<?xml version="1.0" encoding="utf-8" standalone="no"?>
<!DOCTYPE svg PUBLIC "-//W3C//DTD SVG 1.1//EN"
  "http://www.w3.org/Graphics/SVG/1.1/DTD/svg11.dtd">
<svg xmlns:xlink="http://www.w3.org/1999/xlink" width="600.3pt" height="429.793906pt" viewBox="0 0 600.3 429.793906" xmlns="http://www.w3.org/2000/svg" version="1.1">
 <metadata>
  <rdf:RDF xmlns:dc="http://purl.org/dc/elements/1.1/" xmlns:cc="http://creativecommons.org/ns#" xmlns:rdf="http://www.w3.org/1999/02/22-rdf-syntax-ns#">
   <cc:Work>
    <dc:type rdf:resource="http://purl.org/dc/dcmitype/StillImage"/>
    <dc:date>2024-09-05T12:10:53.299879</dc:date>
    <dc:format>image/svg+xml</dc:format>
    <dc:creator>
     <cc:Agent>
      <dc:title>Matplotlib v3.7.1, https://matplotlib.org/</dc:title>
     </cc:Agent>
    </dc:creator>
   </cc:Work>
  </rdf:RDF>
 </metadata>
 <defs>
  <style type="text/css">*{stroke-linejoin: round; stroke-linecap: butt}</style>
 </defs>
 <g id="figure_1">
  <g id="patch_1">
   <path d="M 0 429.793906 
L 600.3 429.793906 
L 600.3 0 
L 0 0 
z
" style="fill: #ffffff"/>
  </g>
  <g id="axes_1">
   <g id="patch_2">
    <path d="M 7.2 396.2197 
L 593.1 396.2197 
L 593.1 382.650469 
L 7.2 382.650469 
z
" clip-path="url(#p6cbb15aae2)" style="fill-opacity: 0.05098"/>
   </g>
   <g id="patch_3">
    <path d="M 7.2 379.258161 
L 593.1 379.258161 
L 593.1 365.68893 
L 7.2 365.68893 
L 7.2 379.258161 
z
" clip-path="url(#p6cbb15aae2)" style="fill: none"/>
   </g>
   <g id="patch_4">
    <path d="M 7.2 362.296623 
L 593.1 362.296623 
L 593.1 348.727392 
L 7.2 348.727392 
z
" clip-path="url(#p6cbb15aae2)" style="fill-opacity: 0.05098"/>
   </g>
   <g id="patch_5">
    <path d="M 7.2 345.335084 
L 593.1 345.335084 
L 593.1 331.765853 
L 7.2 331.765853 
L 7.2 345.335084 
z
" clip-path="url(#p6cbb15aae2)" style="fill: none"/>
   </g>
   <g id="patch_6">
    <path d="M 7.2 328.373546 
L 593.1 328.373546 
L 593.1 314.804315 
L 7.2 314.804315 
z
" clip-path="url(#p6cbb15aae2)" style="fill-opacity: 0.05098"/>
   </g>
   <g id="matplotlib.axis_1"/>
   <g id="matplotlib.axis_2">
    <g id="ytick_1"/>
    <g id="ytick_2"/>
    <g id="ytick_3"/>
    <g id="ytick_4"/>
    <g id="ytick_5"/>
   </g>
  </g>
  <g id="axes_2">
   <g id="matplotlib.axis_3">
    <g id="ytick_6">
     <g id="line2d_1"/>
     <g id="text_1">
      <!-- Supplements -->
      <g style="fill: #262626" transform="translate(94.070642 394.530865) scale(0.14 -0.14)">
       <defs>
        <path id="ArialMT-53" d="M 288 1472 
L 859 1522 
Q 900 1178 1048 958 
Q 1197 738 1509 602 
Q 1822 466 2213 466 
Q 2559 466 2825 569 
Q 3091 672 3220 851 
Q 3350 1031 3350 1244 
Q 3350 1459 3225 1620 
Q 3100 1781 2813 1891 
Q 2628 1963 1997 2114 
Q 1366 2266 1113 2400 
Q 784 2572 623 2826 
Q 463 3081 463 3397 
Q 463 3744 659 4045 
Q 856 4347 1234 4503 
Q 1613 4659 2075 4659 
Q 2584 4659 2973 4495 
Q 3363 4331 3572 4012 
Q 3781 3694 3797 3291 
L 3216 3247 
Q 3169 3681 2898 3903 
Q 2628 4125 2100 4125 
Q 1550 4125 1298 3923 
Q 1047 3722 1047 3438 
Q 1047 3191 1225 3031 
Q 1400 2872 2139 2705 
Q 2878 2538 3153 2413 
Q 3553 2228 3743 1945 
Q 3934 1663 3934 1294 
Q 3934 928 3725 604 
Q 3516 281 3123 101 
Q 2731 -78 2241 -78 
Q 1619 -78 1198 103 
Q 778 284 539 648 
Q 300 1013 288 1472 
z
" transform="scale(0.015625)"/>
        <path id="ArialMT-75" d="M 2597 0 
L 2597 488 
Q 2209 -75 1544 -75 
Q 1250 -75 995 37 
Q 741 150 617 320 
Q 494 491 444 738 
Q 409 903 409 1263 
L 409 3319 
L 972 3319 
L 972 1478 
Q 972 1038 1006 884 
Q 1059 663 1231 536 
Q 1403 409 1656 409 
Q 1909 409 2131 539 
Q 2353 669 2445 892 
Q 2538 1116 2538 1541 
L 2538 3319 
L 3100 3319 
L 3100 0 
L 2597 0 
z
" transform="scale(0.015625)"/>
        <path id="ArialMT-70" d="M 422 -1272 
L 422 3319 
L 934 3319 
L 934 2888 
Q 1116 3141 1344 3267 
Q 1572 3394 1897 3394 
Q 2322 3394 2647 3175 
Q 2972 2956 3137 2557 
Q 3303 2159 3303 1684 
Q 3303 1175 3120 767 
Q 2938 359 2589 142 
Q 2241 -75 1856 -75 
Q 1575 -75 1351 44 
Q 1128 163 984 344 
L 984 -1272 
L 422 -1272 
z
M 931 1641 
Q 931 1000 1190 694 
Q 1450 388 1819 388 
Q 2194 388 2461 705 
Q 2728 1022 2728 1688 
Q 2728 2322 2467 2637 
Q 2206 2953 1844 2953 
Q 1484 2953 1207 2617 
Q 931 2281 931 1641 
z
" transform="scale(0.015625)"/>
        <path id="ArialMT-6c" d="M 409 0 
L 409 4581 
L 972 4581 
L 972 0 
L 409 0 
z
" transform="scale(0.015625)"/>
        <path id="ArialMT-65" d="M 2694 1069 
L 3275 997 
Q 3138 488 2766 206 
Q 2394 -75 1816 -75 
Q 1088 -75 661 373 
Q 234 822 234 1631 
Q 234 2469 665 2931 
Q 1097 3394 1784 3394 
Q 2450 3394 2872 2941 
Q 3294 2488 3294 1666 
Q 3294 1616 3291 1516 
L 816 1516 
Q 847 969 1125 678 
Q 1403 388 1819 388 
Q 2128 388 2347 550 
Q 2566 713 2694 1069 
z
M 847 1978 
L 2700 1978 
Q 2663 2397 2488 2606 
Q 2219 2931 1791 2931 
Q 1403 2931 1139 2672 
Q 875 2413 847 1978 
z
" transform="scale(0.015625)"/>
        <path id="ArialMT-6d" d="M 422 0 
L 422 3319 
L 925 3319 
L 925 2853 
Q 1081 3097 1340 3245 
Q 1600 3394 1931 3394 
Q 2300 3394 2536 3241 
Q 2772 3088 2869 2813 
Q 3263 3394 3894 3394 
Q 4388 3394 4653 3120 
Q 4919 2847 4919 2278 
L 4919 0 
L 4359 0 
L 4359 2091 
Q 4359 2428 4304 2576 
Q 4250 2725 4106 2815 
Q 3963 2906 3769 2906 
Q 3419 2906 3187 2673 
Q 2956 2441 2956 1928 
L 2956 0 
L 2394 0 
L 2394 2156 
Q 2394 2531 2256 2718 
Q 2119 2906 1806 2906 
Q 1569 2906 1367 2781 
Q 1166 2656 1075 2415 
Q 984 2175 984 1722 
L 984 0 
L 422 0 
z
" transform="scale(0.015625)"/>
        <path id="ArialMT-6e" d="M 422 0 
L 422 3319 
L 928 3319 
L 928 2847 
Q 1294 3394 1984 3394 
Q 2284 3394 2536 3286 
Q 2788 3178 2913 3003 
Q 3038 2828 3088 2588 
Q 3119 2431 3119 2041 
L 3119 0 
L 2556 0 
L 2556 2019 
Q 2556 2363 2490 2533 
Q 2425 2703 2258 2804 
Q 2091 2906 1866 2906 
Q 1506 2906 1245 2678 
Q 984 2450 984 1813 
L 984 0 
L 422 0 
z
" transform="scale(0.015625)"/>
        <path id="ArialMT-74" d="M 1650 503 
L 1731 6 
Q 1494 -44 1306 -44 
Q 1000 -44 831 53 
Q 663 150 594 308 
Q 525 466 525 972 
L 525 2881 
L 113 2881 
L 113 3319 
L 525 3319 
L 525 4141 
L 1084 4478 
L 1084 3319 
L 1650 3319 
L 1650 2881 
L 1084 2881 
L 1084 941 
Q 1084 700 1114 631 
Q 1144 563 1211 522 
Q 1278 481 1403 481 
Q 1497 481 1650 503 
z
" transform="scale(0.015625)"/>
        <path id="ArialMT-73" d="M 197 991 
L 753 1078 
Q 800 744 1014 566 
Q 1228 388 1613 388 
Q 2000 388 2187 545 
Q 2375 703 2375 916 
Q 2375 1106 2209 1216 
Q 2094 1291 1634 1406 
Q 1016 1563 777 1677 
Q 538 1791 414 1992 
Q 291 2194 291 2438 
Q 291 2659 392 2848 
Q 494 3038 669 3163 
Q 800 3259 1026 3326 
Q 1253 3394 1513 3394 
Q 1903 3394 2198 3281 
Q 2494 3169 2634 2976 
Q 2775 2784 2828 2463 
L 2278 2388 
Q 2241 2644 2061 2787 
Q 1881 2931 1553 2931 
Q 1166 2931 1000 2803 
Q 834 2675 834 2503 
Q 834 2394 903 2306 
Q 972 2216 1119 2156 
Q 1203 2125 1616 2013 
Q 2213 1853 2448 1751 
Q 2684 1650 2818 1456 
Q 2953 1263 2953 975 
Q 2953 694 2789 445 
Q 2625 197 2315 61 
Q 2006 -75 1616 -75 
Q 969 -75 630 194 
Q 291 463 197 991 
z
" transform="scale(0.015625)"/>
       </defs>
       <use xlink:href="#ArialMT-53"/>
       <use xlink:href="#ArialMT-75" x="66.699219"/>
       <use xlink:href="#ArialMT-70" x="122.314453"/>
       <use xlink:href="#ArialMT-70" x="177.929688"/>
       <use xlink:href="#ArialMT-6c" x="233.544922"/>
       <use xlink:href="#ArialMT-65" x="255.761719"/>
       <use xlink:href="#ArialMT-6d" x="311.376953"/>
       <use xlink:href="#ArialMT-65" x="394.677734"/>
       <use xlink:href="#ArialMT-6e" x="450.292969"/>
       <use xlink:href="#ArialMT-74" x="505.908203"/>
       <use xlink:href="#ArialMT-73" x="533.691406"/>
      </g>
     </g>
    </g>
    <g id="ytick_7">
     <g id="line2d_2"/>
     <g id="text_2">
      <!-- Cognitive enhancer -->
      <g style="fill: #262626" transform="translate(55.157205 377.569327) scale(0.14 -0.14)">
       <defs>
        <path id="ArialMT-43" d="M 3763 1606 
L 4369 1453 
Q 4178 706 3683 314 
Q 3188 -78 2472 -78 
Q 1731 -78 1267 223 
Q 803 525 561 1097 
Q 319 1669 319 2325 
Q 319 3041 592 3573 
Q 866 4106 1370 4382 
Q 1875 4659 2481 4659 
Q 3169 4659 3637 4309 
Q 4106 3959 4291 3325 
L 3694 3184 
Q 3534 3684 3231 3912 
Q 2928 4141 2469 4141 
Q 1941 4141 1586 3887 
Q 1231 3634 1087 3207 
Q 944 2781 944 2328 
Q 944 1744 1114 1308 
Q 1284 872 1643 656 
Q 2003 441 2422 441 
Q 2931 441 3284 734 
Q 3638 1028 3763 1606 
z
" transform="scale(0.015625)"/>
        <path id="ArialMT-6f" d="M 213 1659 
Q 213 2581 725 3025 
Q 1153 3394 1769 3394 
Q 2453 3394 2887 2945 
Q 3322 2497 3322 1706 
Q 3322 1066 3130 698 
Q 2938 331 2570 128 
Q 2203 -75 1769 -75 
Q 1072 -75 642 372 
Q 213 819 213 1659 
z
M 791 1659 
Q 791 1022 1069 705 
Q 1347 388 1769 388 
Q 2188 388 2466 706 
Q 2744 1025 2744 1678 
Q 2744 2294 2464 2611 
Q 2184 2928 1769 2928 
Q 1347 2928 1069 2612 
Q 791 2297 791 1659 
z
" transform="scale(0.015625)"/>
        <path id="ArialMT-67" d="M 319 -275 
L 866 -356 
Q 900 -609 1056 -725 
Q 1266 -881 1628 -881 
Q 2019 -881 2231 -725 
Q 2444 -569 2519 -288 
Q 2563 -116 2559 434 
Q 2191 0 1641 0 
Q 956 0 581 494 
Q 206 988 206 1678 
Q 206 2153 378 2554 
Q 550 2956 876 3175 
Q 1203 3394 1644 3394 
Q 2231 3394 2613 2919 
L 2613 3319 
L 3131 3319 
L 3131 450 
Q 3131 -325 2973 -648 
Q 2816 -972 2473 -1159 
Q 2131 -1347 1631 -1347 
Q 1038 -1347 672 -1080 
Q 306 -813 319 -275 
z
M 784 1719 
Q 784 1066 1043 766 
Q 1303 466 1694 466 
Q 2081 466 2343 764 
Q 2606 1063 2606 1700 
Q 2606 2309 2336 2618 
Q 2066 2928 1684 2928 
Q 1309 2928 1046 2623 
Q 784 2319 784 1719 
z
" transform="scale(0.015625)"/>
        <path id="ArialMT-69" d="M 425 3934 
L 425 4581 
L 988 4581 
L 988 3934 
L 425 3934 
z
M 425 0 
L 425 3319 
L 988 3319 
L 988 0 
L 425 0 
z
" transform="scale(0.015625)"/>
        <path id="ArialMT-76" d="M 1344 0 
L 81 3319 
L 675 3319 
L 1388 1331 
Q 1503 1009 1600 663 
Q 1675 925 1809 1294 
L 2547 3319 
L 3125 3319 
L 1869 0 
L 1344 0 
z
" transform="scale(0.015625)"/>
        <path id="ArialMT-20" transform="scale(0.015625)"/>
        <path id="ArialMT-68" d="M 422 0 
L 422 4581 
L 984 4581 
L 984 2938 
Q 1378 3394 1978 3394 
Q 2347 3394 2619 3248 
Q 2891 3103 3008 2847 
Q 3125 2591 3125 2103 
L 3125 0 
L 2563 0 
L 2563 2103 
Q 2563 2525 2380 2717 
Q 2197 2909 1863 2909 
Q 1613 2909 1392 2779 
Q 1172 2650 1078 2428 
Q 984 2206 984 1816 
L 984 0 
L 422 0 
z
" transform="scale(0.015625)"/>
        <path id="ArialMT-61" d="M 2588 409 
Q 2275 144 1986 34 
Q 1697 -75 1366 -75 
Q 819 -75 525 192 
Q 231 459 231 875 
Q 231 1119 342 1320 
Q 453 1522 633 1644 
Q 813 1766 1038 1828 
Q 1203 1872 1538 1913 
Q 2219 1994 2541 2106 
Q 2544 2222 2544 2253 
Q 2544 2597 2384 2738 
Q 2169 2928 1744 2928 
Q 1347 2928 1158 2789 
Q 969 2650 878 2297 
L 328 2372 
Q 403 2725 575 2942 
Q 747 3159 1072 3276 
Q 1397 3394 1825 3394 
Q 2250 3394 2515 3294 
Q 2781 3194 2906 3042 
Q 3031 2891 3081 2659 
Q 3109 2516 3109 2141 
L 3109 1391 
Q 3109 606 3145 398 
Q 3181 191 3288 0 
L 2700 0 
Q 2613 175 2588 409 
z
M 2541 1666 
Q 2234 1541 1622 1453 
Q 1275 1403 1131 1340 
Q 988 1278 909 1158 
Q 831 1038 831 891 
Q 831 666 1001 516 
Q 1172 366 1500 366 
Q 1825 366 2078 508 
Q 2331 650 2450 897 
Q 2541 1088 2541 1459 
L 2541 1666 
z
" transform="scale(0.015625)"/>
        <path id="ArialMT-63" d="M 2588 1216 
L 3141 1144 
Q 3050 572 2676 248 
Q 2303 -75 1759 -75 
Q 1078 -75 664 370 
Q 250 816 250 1647 
Q 250 2184 428 2587 
Q 606 2991 970 3192 
Q 1334 3394 1763 3394 
Q 2303 3394 2647 3120 
Q 2991 2847 3088 2344 
L 2541 2259 
Q 2463 2594 2264 2762 
Q 2066 2931 1784 2931 
Q 1359 2931 1093 2626 
Q 828 2322 828 1663 
Q 828 994 1084 691 
Q 1341 388 1753 388 
Q 2084 388 2306 591 
Q 2528 794 2588 1216 
z
" transform="scale(0.015625)"/>
        <path id="ArialMT-72" d="M 416 0 
L 416 3319 
L 922 3319 
L 922 2816 
Q 1116 3169 1280 3281 
Q 1444 3394 1641 3394 
Q 1925 3394 2219 3213 
L 2025 2691 
Q 1819 2813 1613 2813 
Q 1428 2813 1281 2702 
Q 1134 2591 1072 2394 
Q 978 2094 978 1738 
L 978 0 
L 416 0 
z
" transform="scale(0.015625)"/>
       </defs>
       <use xlink:href="#ArialMT-43"/>
       <use xlink:href="#ArialMT-6f" x="72.216797"/>
       <use xlink:href="#ArialMT-67" x="127.832031"/>
       <use xlink:href="#ArialMT-6e" x="183.447266"/>
       <use xlink:href="#ArialMT-69" x="239.0625"/>
       <use xlink:href="#ArialMT-74" x="261.279297"/>
       <use xlink:href="#ArialMT-69" x="289.0625"/>
       <use xlink:href="#ArialMT-76" x="311.279297"/>
       <use xlink:href="#ArialMT-65" x="361.279297"/>
       <use xlink:href="#ArialMT-20" x="416.894531"/>
       <use xlink:href="#ArialMT-65" x="444.677734"/>
       <use xlink:href="#ArialMT-6e" x="500.292969"/>
       <use xlink:href="#ArialMT-68" x="555.908203"/>
       <use xlink:href="#ArialMT-61" x="611.523438"/>
       <use xlink:href="#ArialMT-6e" x="667.138672"/>
       <use xlink:href="#ArialMT-63" x="722.753906"/>
       <use xlink:href="#ArialMT-65" x="772.753906"/>
       <use xlink:href="#ArialMT-72" x="828.369141"/>
      </g>
     </g>
    </g>
    <g id="ytick_8">
     <g id="line2d_3"/>
     <g id="text_3">
      <!-- Non Drug Therapy -->
      <g style="fill: #262626" transform="translate(60.870955 360.522476) scale(0.14 -0.14)">
       <defs>
        <path id="ArialMT-4e" d="M 488 0 
L 488 4581 
L 1109 4581 
L 3516 984 
L 3516 4581 
L 4097 4581 
L 4097 0 
L 3475 0 
L 1069 3600 
L 1069 0 
L 488 0 
z
" transform="scale(0.015625)"/>
        <path id="ArialMT-44" d="M 494 0 
L 494 4581 
L 2072 4581 
Q 2606 4581 2888 4516 
Q 3281 4425 3559 4188 
Q 3922 3881 4101 3404 
Q 4281 2928 4281 2316 
Q 4281 1794 4159 1391 
Q 4038 988 3847 723 
Q 3656 459 3429 307 
Q 3203 156 2883 78 
Q 2563 0 2147 0 
L 494 0 
z
M 1100 541 
L 2078 541 
Q 2531 541 2789 625 
Q 3047 709 3200 863 
Q 3416 1078 3536 1442 
Q 3656 1806 3656 2325 
Q 3656 3044 3420 3430 
Q 3184 3816 2847 3947 
Q 2603 4041 2063 4041 
L 1100 4041 
L 1100 541 
z
" transform="scale(0.015625)"/>
        <path id="ArialMT-54" d="M 1659 0 
L 1659 4041 
L 150 4041 
L 150 4581 
L 3781 4581 
L 3781 4041 
L 2266 4041 
L 2266 0 
L 1659 0 
z
" transform="scale(0.015625)"/>
        <path id="ArialMT-79" d="M 397 -1278 
L 334 -750 
Q 519 -800 656 -800 
Q 844 -800 956 -737 
Q 1069 -675 1141 -563 
Q 1194 -478 1313 -144 
Q 1328 -97 1363 -6 
L 103 3319 
L 709 3319 
L 1400 1397 
Q 1534 1031 1641 628 
Q 1738 1016 1872 1384 
L 2581 3319 
L 3144 3319 
L 1881 -56 
Q 1678 -603 1566 -809 
Q 1416 -1088 1222 -1217 
Q 1028 -1347 759 -1347 
Q 597 -1347 397 -1278 
z
" transform="scale(0.015625)"/>
       </defs>
       <use xlink:href="#ArialMT-4e"/>
       <use xlink:href="#ArialMT-6f" x="72.216797"/>
       <use xlink:href="#ArialMT-6e" x="127.832031"/>
       <use xlink:href="#ArialMT-20" x="183.447266"/>
       <use xlink:href="#ArialMT-44" x="211.230469"/>
       <use xlink:href="#ArialMT-72" x="283.447266"/>
       <use xlink:href="#ArialMT-75" x="316.748047"/>
       <use xlink:href="#ArialMT-67" x="372.363281"/>
       <use xlink:href="#ArialMT-20" x="427.978516"/>
       <use xlink:href="#ArialMT-54" x="454.011719"/>
       <use xlink:href="#ArialMT-68" x="515.095703"/>
       <use xlink:href="#ArialMT-65" x="570.710938"/>
       <use xlink:href="#ArialMT-72" x="626.326172"/>
       <use xlink:href="#ArialMT-61" x="659.626953"/>
       <use xlink:href="#ArialMT-70" x="715.242188"/>
       <use xlink:href="#ArialMT-79" x="770.857422"/>
      </g>
     </g>
    </g>
    <g id="ytick_9">
     <g id="line2d_4"/>
     <g id="text_4">
      <!-- Anti-depressants -->
      <g style="fill: #262626" transform="translate(70.734392 343.560937) scale(0.14 -0.14)">
       <defs>
        <path id="ArialMT-41" d="M -9 0 
L 1750 4581 
L 2403 4581 
L 4278 0 
L 3588 0 
L 3053 1388 
L 1138 1388 
L 634 0 
L -9 0 
z
M 1313 1881 
L 2866 1881 
L 2388 3150 
Q 2169 3728 2063 4100 
Q 1975 3659 1816 3225 
L 1313 1881 
z
" transform="scale(0.015625)"/>
        <path id="ArialMT-2d" d="M 203 1375 
L 203 1941 
L 1931 1941 
L 1931 1375 
L 203 1375 
z
" transform="scale(0.015625)"/>
        <path id="ArialMT-64" d="M 2575 0 
L 2575 419 
Q 2259 -75 1647 -75 
Q 1250 -75 917 144 
Q 584 363 401 755 
Q 219 1147 219 1656 
Q 219 2153 384 2558 
Q 550 2963 881 3178 
Q 1213 3394 1622 3394 
Q 1922 3394 2156 3267 
Q 2391 3141 2538 2938 
L 2538 4581 
L 3097 4581 
L 3097 0 
L 2575 0 
z
M 797 1656 
Q 797 1019 1065 703 
Q 1334 388 1700 388 
Q 2069 388 2326 689 
Q 2584 991 2584 1609 
Q 2584 2291 2321 2609 
Q 2059 2928 1675 2928 
Q 1300 2928 1048 2622 
Q 797 2316 797 1656 
z
" transform="scale(0.015625)"/>
       </defs>
       <use xlink:href="#ArialMT-41"/>
       <use xlink:href="#ArialMT-6e" x="66.699219"/>
       <use xlink:href="#ArialMT-74" x="122.314453"/>
       <use xlink:href="#ArialMT-69" x="150.097656"/>
       <use xlink:href="#ArialMT-2d" x="172.314453"/>
       <use xlink:href="#ArialMT-64" x="205.615234"/>
       <use xlink:href="#ArialMT-65" x="261.230469"/>
       <use xlink:href="#ArialMT-70" x="316.845703"/>
       <use xlink:href="#ArialMT-72" x="372.460938"/>
       <use xlink:href="#ArialMT-65" x="405.761719"/>
       <use xlink:href="#ArialMT-73" x="461.376953"/>
       <use xlink:href="#ArialMT-73" x="511.376953"/>
       <use xlink:href="#ArialMT-61" x="561.376953"/>
       <use xlink:href="#ArialMT-6e" x="616.992188"/>
       <use xlink:href="#ArialMT-74" x="672.607422"/>
       <use xlink:href="#ArialMT-73" x="700.390625"/>
      </g>
     </g>
    </g>
    <g id="ytick_10">
     <g id="line2d_5"/>
     <g id="text_5">
      <!-- Anti-psycotic -->
      <g style="fill: #262626" transform="translate(96.42658 326.599399) scale(0.14 -0.14)">
       <use xlink:href="#ArialMT-41"/>
       <use xlink:href="#ArialMT-6e" x="66.699219"/>
       <use xlink:href="#ArialMT-74" x="122.314453"/>
       <use xlink:href="#ArialMT-69" x="150.097656"/>
       <use xlink:href="#ArialMT-2d" x="172.314453"/>
       <use xlink:href="#ArialMT-70" x="205.615234"/>
       <use xlink:href="#ArialMT-73" x="261.230469"/>
       <use xlink:href="#ArialMT-79" x="311.230469"/>
       <use xlink:href="#ArialMT-63" x="361.230469"/>
       <use xlink:href="#ArialMT-6f" x="411.230469"/>
       <use xlink:href="#ArialMT-74" x="466.845703"/>
       <use xlink:href="#ArialMT-69" x="494.628906"/>
       <use xlink:href="#ArialMT-63" x="516.845703"/>
      </g>
     </g>
    </g>
   </g>
   <g id="LineCollection_1">
    <path d="M 191.45362 389.435084 
L 191.45362 355.512007 
" clip-path="url(#p86b481dee2)" style="fill: none; stroke: #001c7f; stroke-width: 2"/>
    <path d="M 215.795825 389.435084 
L 215.795825 372.473546 
" clip-path="url(#p86b481dee2)" style="fill: none; stroke: #001c7f; stroke-width: 2"/>
    <path d="M 240.13803 372.473546 
L 240.13803 355.512007 
" clip-path="url(#p86b481dee2)" style="fill: none; stroke: #001c7f; stroke-width: 2"/>
    <path d="M 264.480234 389.435084 
L 264.480234 355.512007 
" clip-path="url(#p86b481dee2)" style="fill: none; stroke: #001c7f; stroke-width: 2"/>
    <path d="M 288.822439 372.473546 
L 288.822439 372.473546 
" clip-path="url(#p86b481dee2)" style="fill: none; stroke: #001c7f; stroke-width: 2"/>
    <path d="M 313.164644 389.435084 
L 313.164644 389.435084 
" clip-path="url(#p86b481dee2)" style="fill: none; stroke: #001c7f; stroke-width: 2"/>
    <path d="M 337.506849 389.435084 
L 337.506849 321.58893 
" clip-path="url(#p86b481dee2)" style="fill: none; stroke: #001c7f; stroke-width: 2"/>
    <path d="M 361.849054 389.435084 
L 361.849054 338.550469 
" clip-path="url(#p86b481dee2)" style="fill: none; stroke: #001c7f; stroke-width: 2"/>
    <path d="M 386.191259 389.435084 
L 386.191259 321.58893 
" clip-path="url(#p86b481dee2)" style="fill: none; stroke: #001c7f; stroke-width: 2"/>
    <path d="M 410.533464 389.435084 
L 410.533464 338.550469 
" clip-path="url(#p86b481dee2)" style="fill: none; stroke: #001c7f; stroke-width: 2"/>
    <path d="M 434.875668 389.435084 
L 434.875668 321.58893 
" clip-path="url(#p86b481dee2)" style="fill: none; stroke: #001c7f; stroke-width: 2"/>
    <path d="M 459.217873 372.473546 
L 459.217873 338.550469 
" clip-path="url(#p86b481dee2)" style="fill: none; stroke: #001c7f; stroke-width: 2"/>
    <path d="M 483.560078 389.435084 
L 483.560078 338.550469 
" clip-path="url(#p86b481dee2)" style="fill: none; stroke: #001c7f; stroke-width: 2"/>
    <path d="M 507.902283 355.512007 
L 507.902283 321.58893 
" clip-path="url(#p86b481dee2)" style="fill: none; stroke: #001c7f; stroke-width: 2"/>
    <path d="M 532.244488 338.550469 
L 532.244488 321.58893 
" clip-path="url(#p86b481dee2)" style="fill: none; stroke: #001c7f; stroke-width: 2"/>
    <path d="M 556.586693 372.473546 
L 556.586693 338.550469 
" clip-path="url(#p86b481dee2)" style="fill: none; stroke: #001c7f; stroke-width: 2"/>
    <path d="M 580.928898 389.435084 
L 580.928898 338.550469 
" clip-path="url(#p86b481dee2)" style="fill: none; stroke: #001c7f; stroke-width: 2"/>
   </g>
   <g id="PathCollection_1">
    <defs>
     <path id="C0_0_acfae6c1ff" d="M 0 5.6 
C 1.485137 5.6 2.909647 5.009949 3.959798 3.959798 
C 5.009949 2.909647 5.6 1.485137 5.6 -0 
C 5.6 -1.485137 5.009949 -2.909647 3.959798 -3.959798 
C 2.909647 -5.009949 1.485137 -5.6 0 -5.6 
C -1.485137 -5.6 -2.909647 -5.009949 -3.959798 -3.959798 
C -5.009949 -2.909647 -5.6 -1.485137 -5.6 0 
C -5.6 1.485137 -5.009949 2.909647 -3.959798 3.959798 
C -2.909647 5.009949 -1.485137 5.6 0 5.6 
z
"/>
    </defs>
    <g clip-path="url(#p86b481dee2)">
     <use xlink:href="#C0_0_acfae6c1ff" x="191.45362" y="389.435084" style="fill: #001c7f; stroke: #001c7f"/>
    </g>
    <g clip-path="url(#p86b481dee2)">
     <use xlink:href="#C0_0_acfae6c1ff" x="191.45362" y="372.473546" style="fill: #001c7f; stroke: #001c7f"/>
    </g>
    <g clip-path="url(#p86b481dee2)">
     <use xlink:href="#C0_0_acfae6c1ff" x="191.45362" y="355.512007" style="fill: #001c7f; stroke: #001c7f"/>
    </g>
    <g clip-path="url(#p86b481dee2)">
     <use xlink:href="#C0_0_acfae6c1ff" x="191.45362" y="338.550469" style="fill-opacity: 0.180392"/>
    </g>
    <g clip-path="url(#p86b481dee2)">
     <use xlink:href="#C0_0_acfae6c1ff" x="191.45362" y="321.58893" style="fill-opacity: 0.180392"/>
    </g>
    <g clip-path="url(#p86b481dee2)">
     <use xlink:href="#C0_0_acfae6c1ff" x="215.795825" y="389.435084" style="fill: #001c7f; stroke: #001c7f"/>
    </g>
    <g clip-path="url(#p86b481dee2)">
     <use xlink:href="#C0_0_acfae6c1ff" x="215.795825" y="372.473546" style="fill: #001c7f; stroke: #001c7f"/>
    </g>
    <g clip-path="url(#p86b481dee2)">
     <use xlink:href="#C0_0_acfae6c1ff" x="215.795825" y="355.512007" style="fill-opacity: 0.180392"/>
    </g>
    <g clip-path="url(#p86b481dee2)">
     <use xlink:href="#C0_0_acfae6c1ff" x="215.795825" y="338.550469" style="fill-opacity: 0.180392"/>
    </g>
    <g clip-path="url(#p86b481dee2)">
     <use xlink:href="#C0_0_acfae6c1ff" x="215.795825" y="321.58893" style="fill-opacity: 0.180392"/>
    </g>
    <g clip-path="url(#p86b481dee2)">
     <use xlink:href="#C0_0_acfae6c1ff" x="240.13803" y="389.435084" style="fill-opacity: 0.180392"/>
    </g>
    <g clip-path="url(#p86b481dee2)">
     <use xlink:href="#C0_0_acfae6c1ff" x="240.13803" y="372.473546" style="fill: #001c7f; stroke: #001c7f"/>
    </g>
    <g clip-path="url(#p86b481dee2)">
     <use xlink:href="#C0_0_acfae6c1ff" x="240.13803" y="355.512007" style="fill: #001c7f; stroke: #001c7f"/>
    </g>
    <g clip-path="url(#p86b481dee2)">
     <use xlink:href="#C0_0_acfae6c1ff" x="240.13803" y="338.550469" style="fill-opacity: 0.180392"/>
    </g>
    <g clip-path="url(#p86b481dee2)">
     <use xlink:href="#C0_0_acfae6c1ff" x="240.13803" y="321.58893" style="fill-opacity: 0.180392"/>
    </g>
    <g clip-path="url(#p86b481dee2)">
     <use xlink:href="#C0_0_acfae6c1ff" x="264.480234" y="389.435084" style="fill: #001c7f; stroke: #001c7f"/>
    </g>
    <g clip-path="url(#p86b481dee2)">
     <use xlink:href="#C0_0_acfae6c1ff" x="264.480234" y="372.473546" style="fill-opacity: 0.180392"/>
    </g>
    <g clip-path="url(#p86b481dee2)">
     <use xlink:href="#C0_0_acfae6c1ff" x="264.480234" y="355.512007" style="fill: #001c7f; stroke: #001c7f"/>
    </g>
    <g clip-path="url(#p86b481dee2)">
     <use xlink:href="#C0_0_acfae6c1ff" x="264.480234" y="338.550469" style="fill-opacity: 0.180392"/>
    </g>
    <g clip-path="url(#p86b481dee2)">
     <use xlink:href="#C0_0_acfae6c1ff" x="264.480234" y="321.58893" style="fill-opacity: 0.180392"/>
    </g>
    <g clip-path="url(#p86b481dee2)">
     <use xlink:href="#C0_0_acfae6c1ff" x="288.822439" y="389.435084" style="fill-opacity: 0.180392"/>
    </g>
    <g clip-path="url(#p86b481dee2)">
     <use xlink:href="#C0_0_acfae6c1ff" x="288.822439" y="372.473546" style="fill: #001c7f; stroke: #001c7f"/>
    </g>
    <g clip-path="url(#p86b481dee2)">
     <use xlink:href="#C0_0_acfae6c1ff" x="288.822439" y="355.512007" style="fill-opacity: 0.180392"/>
    </g>
    <g clip-path="url(#p86b481dee2)">
     <use xlink:href="#C0_0_acfae6c1ff" x="288.822439" y="338.550469" style="fill-opacity: 0.180392"/>
    </g>
    <g clip-path="url(#p86b481dee2)">
     <use xlink:href="#C0_0_acfae6c1ff" x="288.822439" y="321.58893" style="fill-opacity: 0.180392"/>
    </g>
    <g clip-path="url(#p86b481dee2)">
     <use xlink:href="#C0_0_acfae6c1ff" x="313.164644" y="389.435084" style="fill: #001c7f; stroke: #001c7f"/>
    </g>
    <g clip-path="url(#p86b481dee2)">
     <use xlink:href="#C0_0_acfae6c1ff" x="313.164644" y="372.473546" style="fill-opacity: 0.180392"/>
    </g>
    <g clip-path="url(#p86b481dee2)">
     <use xlink:href="#C0_0_acfae6c1ff" x="313.164644" y="355.512007" style="fill-opacity: 0.180392"/>
    </g>
    <g clip-path="url(#p86b481dee2)">
     <use xlink:href="#C0_0_acfae6c1ff" x="313.164644" y="338.550469" style="fill-opacity: 0.180392"/>
    </g>
    <g clip-path="url(#p86b481dee2)">
     <use xlink:href="#C0_0_acfae6c1ff" x="313.164644" y="321.58893" style="fill-opacity: 0.180392"/>
    </g>
    <g clip-path="url(#p86b481dee2)">
     <use xlink:href="#C0_0_acfae6c1ff" x="337.506849" y="389.435084" style="fill: #001c7f; stroke: #001c7f"/>
    </g>
    <g clip-path="url(#p86b481dee2)">
     <use xlink:href="#C0_0_acfae6c1ff" x="337.506849" y="372.473546" style="fill: #001c7f; stroke: #001c7f"/>
    </g>
    <g clip-path="url(#p86b481dee2)">
     <use xlink:href="#C0_0_acfae6c1ff" x="337.506849" y="355.512007" style="fill: #001c7f; stroke: #001c7f"/>
    </g>
    <g clip-path="url(#p86b481dee2)">
     <use xlink:href="#C0_0_acfae6c1ff" x="337.506849" y="338.550469" style="fill: #001c7f; stroke: #001c7f"/>
    </g>
    <g clip-path="url(#p86b481dee2)">
     <use xlink:href="#C0_0_acfae6c1ff" x="337.506849" y="321.58893" style="fill: #001c7f; stroke: #001c7f"/>
    </g>
    <g clip-path="url(#p86b481dee2)">
     <use xlink:href="#C0_0_acfae6c1ff" x="361.849054" y="389.435084" style="fill: #001c7f; stroke: #001c7f"/>
    </g>
    <g clip-path="url(#p86b481dee2)">
     <use xlink:href="#C0_0_acfae6c1ff" x="361.849054" y="372.473546" style="fill: #001c7f; stroke: #001c7f"/>
    </g>
    <g clip-path="url(#p86b481dee2)">
     <use xlink:href="#C0_0_acfae6c1ff" x="361.849054" y="355.512007" style="fill: #001c7f; stroke: #001c7f"/>
    </g>
    <g clip-path="url(#p86b481dee2)">
     <use xlink:href="#C0_0_acfae6c1ff" x="361.849054" y="338.550469" style="fill: #001c7f; stroke: #001c7f"/>
    </g>
    <g clip-path="url(#p86b481dee2)">
     <use xlink:href="#C0_0_acfae6c1ff" x="361.849054" y="321.58893" style="fill-opacity: 0.180392"/>
    </g>
    <g clip-path="url(#p86b481dee2)">
     <use xlink:href="#C0_0_acfae6c1ff" x="386.191259" y="389.435084" style="fill: #001c7f; stroke: #001c7f"/>
    </g>
    <g clip-path="url(#p86b481dee2)">
     <use xlink:href="#C0_0_acfae6c1ff" x="386.191259" y="372.473546" style="fill-opacity: 0.180392"/>
    </g>
    <g clip-path="url(#p86b481dee2)">
     <use xlink:href="#C0_0_acfae6c1ff" x="386.191259" y="355.512007" style="fill: #001c7f; stroke: #001c7f"/>
    </g>
    <g clip-path="url(#p86b481dee2)">
     <use xlink:href="#C0_0_acfae6c1ff" x="386.191259" y="338.550469" style="fill: #001c7f; stroke: #001c7f"/>
    </g>
    <g clip-path="url(#p86b481dee2)">
     <use xlink:href="#C0_0_acfae6c1ff" x="386.191259" y="321.58893" style="fill: #001c7f; stroke: #001c7f"/>
    </g>
    <g clip-path="url(#p86b481dee2)">
     <use xlink:href="#C0_0_acfae6c1ff" x="410.533464" y="389.435084" style="fill: #001c7f; stroke: #001c7f"/>
    </g>
    <g clip-path="url(#p86b481dee2)">
     <use xlink:href="#C0_0_acfae6c1ff" x="410.533464" y="372.473546" style="fill-opacity: 0.180392"/>
    </g>
    <g clip-path="url(#p86b481dee2)">
     <use xlink:href="#C0_0_acfae6c1ff" x="410.533464" y="355.512007" style="fill: #001c7f; stroke: #001c7f"/>
    </g>
    <g clip-path="url(#p86b481dee2)">
     <use xlink:href="#C0_0_acfae6c1ff" x="410.533464" y="338.550469" style="fill: #001c7f; stroke: #001c7f"/>
    </g>
    <g clip-path="url(#p86b481dee2)">
     <use xlink:href="#C0_0_acfae6c1ff" x="410.533464" y="321.58893" style="fill-opacity: 0.180392"/>
    </g>
    <g clip-path="url(#p86b481dee2)">
     <use xlink:href="#C0_0_acfae6c1ff" x="434.875668" y="389.435084" style="fill: #001c7f; stroke: #001c7f"/>
    </g>
    <g clip-path="url(#p86b481dee2)">
     <use xlink:href="#C0_0_acfae6c1ff" x="434.875668" y="372.473546" style="fill: #001c7f; stroke: #001c7f"/>
    </g>
    <g clip-path="url(#p86b481dee2)">
     <use xlink:href="#C0_0_acfae6c1ff" x="434.875668" y="355.512007" style="fill-opacity: 0.180392"/>
    </g>
    <g clip-path="url(#p86b481dee2)">
     <use xlink:href="#C0_0_acfae6c1ff" x="434.875668" y="338.550469" style="fill: #001c7f; stroke: #001c7f"/>
    </g>
    <g clip-path="url(#p86b481dee2)">
     <use xlink:href="#C0_0_acfae6c1ff" x="434.875668" y="321.58893" style="fill: #001c7f; stroke: #001c7f"/>
    </g>
    <g clip-path="url(#p86b481dee2)">
     <use xlink:href="#C0_0_acfae6c1ff" x="459.217873" y="389.435084" style="fill-opacity: 0.180392"/>
    </g>
    <g clip-path="url(#p86b481dee2)">
     <use xlink:href="#C0_0_acfae6c1ff" x="459.217873" y="372.473546" style="fill: #001c7f; stroke: #001c7f"/>
    </g>
    <g clip-path="url(#p86b481dee2)">
     <use xlink:href="#C0_0_acfae6c1ff" x="459.217873" y="355.512007" style="fill: #001c7f; stroke: #001c7f"/>
    </g>
    <g clip-path="url(#p86b481dee2)">
     <use xlink:href="#C0_0_acfae6c1ff" x="459.217873" y="338.550469" style="fill: #001c7f; stroke: #001c7f"/>
    </g>
    <g clip-path="url(#p86b481dee2)">
     <use xlink:href="#C0_0_acfae6c1ff" x="459.217873" y="321.58893" style="fill-opacity: 0.180392"/>
    </g>
    <g clip-path="url(#p86b481dee2)">
     <use xlink:href="#C0_0_acfae6c1ff" x="483.560078" y="389.435084" style="fill: #001c7f; stroke: #001c7f"/>
    </g>
    <g clip-path="url(#p86b481dee2)">
     <use xlink:href="#C0_0_acfae6c1ff" x="483.560078" y="372.473546" style="fill-opacity: 0.180392"/>
    </g>
    <g clip-path="url(#p86b481dee2)">
     <use xlink:href="#C0_0_acfae6c1ff" x="483.560078" y="355.512007" style="fill-opacity: 0.180392"/>
    </g>
    <g clip-path="url(#p86b481dee2)">
     <use xlink:href="#C0_0_acfae6c1ff" x="483.560078" y="338.550469" style="fill: #001c7f; stroke: #001c7f"/>
    </g>
    <g clip-path="url(#p86b481dee2)">
     <use xlink:href="#C0_0_acfae6c1ff" x="483.560078" y="321.58893" style="fill-opacity: 0.180392"/>
    </g>
    <g clip-path="url(#p86b481dee2)">
     <use xlink:href="#C0_0_acfae6c1ff" x="507.902283" y="389.435084" style="fill-opacity: 0.180392"/>
    </g>
    <g clip-path="url(#p86b481dee2)">
     <use xlink:href="#C0_0_acfae6c1ff" x="507.902283" y="372.473546" style="fill-opacity: 0.180392"/>
    </g>
    <g clip-path="url(#p86b481dee2)">
     <use xlink:href="#C0_0_acfae6c1ff" x="507.902283" y="355.512007" style="fill: #001c7f; stroke: #001c7f"/>
    </g>
    <g clip-path="url(#p86b481dee2)">
     <use xlink:href="#C0_0_acfae6c1ff" x="507.902283" y="338.550469" style="fill: #001c7f; stroke: #001c7f"/>
    </g>
    <g clip-path="url(#p86b481dee2)">
     <use xlink:href="#C0_0_acfae6c1ff" x="507.902283" y="321.58893" style="fill: #001c7f; stroke: #001c7f"/>
    </g>
    <g clip-path="url(#p86b481dee2)">
     <use xlink:href="#C0_0_acfae6c1ff" x="532.244488" y="389.435084" style="fill-opacity: 0.180392"/>
    </g>
    <g clip-path="url(#p86b481dee2)">
     <use xlink:href="#C0_0_acfae6c1ff" x="532.244488" y="372.473546" style="fill-opacity: 0.180392"/>
    </g>
    <g clip-path="url(#p86b481dee2)">
     <use xlink:href="#C0_0_acfae6c1ff" x="532.244488" y="355.512007" style="fill-opacity: 0.180392"/>
    </g>
    <g clip-path="url(#p86b481dee2)">
     <use xlink:href="#C0_0_acfae6c1ff" x="532.244488" y="338.550469" style="fill: #001c7f; stroke: #001c7f"/>
    </g>
    <g clip-path="url(#p86b481dee2)">
     <use xlink:href="#C0_0_acfae6c1ff" x="532.244488" y="321.58893" style="fill: #001c7f; stroke: #001c7f"/>
    </g>
    <g clip-path="url(#p86b481dee2)">
     <use xlink:href="#C0_0_acfae6c1ff" x="556.586693" y="389.435084" style="fill-opacity: 0.180392"/>
    </g>
    <g clip-path="url(#p86b481dee2)">
     <use xlink:href="#C0_0_acfae6c1ff" x="556.586693" y="372.473546" style="fill: #001c7f; stroke: #001c7f"/>
    </g>
    <g clip-path="url(#p86b481dee2)">
     <use xlink:href="#C0_0_acfae6c1ff" x="556.586693" y="355.512007" style="fill-opacity: 0.180392"/>
    </g>
    <g clip-path="url(#p86b481dee2)">
     <use xlink:href="#C0_0_acfae6c1ff" x="556.586693" y="338.550469" style="fill: #001c7f; stroke: #001c7f"/>
    </g>
    <g clip-path="url(#p86b481dee2)">
     <use xlink:href="#C0_0_acfae6c1ff" x="556.586693" y="321.58893" style="fill-opacity: 0.180392"/>
    </g>
    <g clip-path="url(#p86b481dee2)">
     <use xlink:href="#C0_0_acfae6c1ff" x="580.928898" y="389.435084" style="fill: #001c7f; stroke: #001c7f"/>
    </g>
    <g clip-path="url(#p86b481dee2)">
     <use xlink:href="#C0_0_acfae6c1ff" x="580.928898" y="372.473546" style="fill: #001c7f; stroke: #001c7f"/>
    </g>
    <g clip-path="url(#p86b481dee2)">
     <use xlink:href="#C0_0_acfae6c1ff" x="580.928898" y="355.512007" style="fill-opacity: 0.180392"/>
    </g>
    <g clip-path="url(#p86b481dee2)">
     <use xlink:href="#C0_0_acfae6c1ff" x="580.928898" y="338.550469" style="fill: #001c7f; stroke: #001c7f"/>
    </g>
    <g clip-path="url(#p86b481dee2)">
     <use xlink:href="#C0_0_acfae6c1ff" x="580.928898" y="321.58893" style="fill-opacity: 0.180392"/>
    </g>
   </g>
  </g>
  <g id="axes_3">
   <g id="matplotlib.axis_4">
    <g id="xtick_1">
     <g id="line2d_6">
      <path d="M 52.269231 400.290469 
L 52.269231 310.733546 
" clip-path="url(#pecc4a4655b)" style="fill: none; stroke: #cccccc; stroke-linecap: round"/>
     </g>
     <g id="line2d_7">
      <defs>
       <path id="m4eb7fd5544" d="M 0 0 
L 0 6 
" style="stroke: #262626; stroke-width: 1.25"/>
      </defs>
      <g>
       <use xlink:href="#m4eb7fd5544" x="52.269231" y="400.290469" style="fill: #262626; stroke: #262626; stroke-width: 1.25"/>
      </g>
     </g>
     <g id="text_6">
      <!-- 0 -->
      <g style="fill: #262626" transform="translate(48.376575 419.811406) scale(0.14 -0.14)">
       <defs>
        <path id="ArialMT-30" d="M 266 2259 
Q 266 3072 433 3567 
Q 600 4063 929 4331 
Q 1259 4600 1759 4600 
Q 2128 4600 2406 4451 
Q 2684 4303 2865 4023 
Q 3047 3744 3150 3342 
Q 3253 2941 3253 2259 
Q 3253 1453 3087 958 
Q 2922 463 2592 192 
Q 2263 -78 1759 -78 
Q 1097 -78 719 397 
Q 266 969 266 2259 
z
M 844 2259 
Q 844 1131 1108 757 
Q 1372 384 1759 384 
Q 2147 384 2411 759 
Q 2675 1134 2675 2259 
Q 2675 3391 2411 3762 
Q 2147 4134 1753 4134 
Q 1366 4134 1134 3806 
Q 844 3388 844 2259 
z
" transform="scale(0.015625)"/>
       </defs>
       <use xlink:href="#ArialMT-30"/>
      </g>
     </g>
    </g>
    <g id="xtick_2">
     <g id="line2d_8">
      <path d="M 22.14274 400.290469 
L 22.14274 310.733546 
" clip-path="url(#pecc4a4655b)" style="fill: none; stroke: #cccccc; stroke-linecap: round"/>
     </g>
     <g id="line2d_9">
      <g>
       <use xlink:href="#m4eb7fd5544" x="22.14274" y="400.290469" style="fill: #262626; stroke: #262626; stroke-width: 1.25"/>
      </g>
     </g>
     <g id="text_7">
      <!-- 250 -->
      <g style="fill: #262626" transform="translate(10.464771 419.811406) scale(0.14 -0.14)">
       <defs>
        <path id="ArialMT-32" d="M 3222 541 
L 3222 0 
L 194 0 
Q 188 203 259 391 
Q 375 700 629 1000 
Q 884 1300 1366 1694 
Q 2113 2306 2375 2664 
Q 2638 3022 2638 3341 
Q 2638 3675 2398 3904 
Q 2159 4134 1775 4134 
Q 1369 4134 1125 3890 
Q 881 3647 878 3216 
L 300 3275 
Q 359 3922 746 4261 
Q 1134 4600 1788 4600 
Q 2447 4600 2831 4234 
Q 3216 3869 3216 3328 
Q 3216 3053 3103 2787 
Q 2991 2522 2730 2228 
Q 2469 1934 1863 1422 
Q 1356 997 1212 845 
Q 1069 694 975 541 
L 3222 541 
z
" transform="scale(0.015625)"/>
        <path id="ArialMT-35" d="M 266 1200 
L 856 1250 
Q 922 819 1161 601 
Q 1400 384 1738 384 
Q 2144 384 2425 690 
Q 2706 997 2706 1503 
Q 2706 1984 2436 2262 
Q 2166 2541 1728 2541 
Q 1456 2541 1237 2417 
Q 1019 2294 894 2097 
L 366 2166 
L 809 4519 
L 3088 4519 
L 3088 3981 
L 1259 3981 
L 1013 2750 
Q 1425 3038 1878 3038 
Q 2478 3038 2890 2622 
Q 3303 2206 3303 1553 
Q 3303 931 2941 478 
Q 2500 -78 1738 -78 
Q 1113 -78 717 272 
Q 322 622 266 1200 
z
" transform="scale(0.015625)"/>
       </defs>
       <use xlink:href="#ArialMT-32"/>
       <use xlink:href="#ArialMT-35" x="55.615234"/>
       <use xlink:href="#ArialMT-30" x="111.230469"/>
      </g>
     </g>
    </g>
   </g>
   <g id="patch_7">
    <path d="M 52.269231 393.675469 
L 7.2 393.675469 
L 7.2 385.1947 
L 52.269231 385.1947 
z
" clip-path="url(#pecc4a4655b)" style="stroke: #000000; stroke-linejoin: miter"/>
   </g>
   <g id="patch_8">
    <path d="M 52.269231 376.71393 
L 7.80253 376.71393 
L 7.80253 368.233161 
L 52.269231 368.233161 
z
" clip-path="url(#pecc4a4655b)" style="stroke: #000000; stroke-linejoin: miter"/>
   </g>
   <g id="patch_9">
    <path d="M 52.269231 359.752392 
L 15.876429 359.752392 
L 15.876429 351.271623 
L 52.269231 351.271623 
z
" clip-path="url(#pecc4a4655b)" style="stroke: #000000; stroke-linejoin: miter"/>
   </g>
   <g id="patch_10">
    <path d="M 52.269231 342.790853 
L 47.328486 342.790853 
L 47.328486 334.310084 
L 52.269231 334.310084 
z
" clip-path="url(#pecc4a4655b)" style="stroke: #000000; stroke-linejoin: miter"/>
   </g>
   <g id="patch_11">
    <path d="M 52.269231 325.829315 
L 49.6181 325.829315 
L 49.6181 317.348546 
L 52.269231 317.348546 
z
" clip-path="url(#pecc4a4655b)" style="stroke: #000000; stroke-linejoin: miter"/>
   </g>
   <g id="patch_12">
    <path d="M 7.2 400.290469 
L 52.269231 400.290469 
" style="fill: none; stroke: #262626; stroke-width: 1.25; stroke-linejoin: miter; stroke-linecap: square"/>
   </g>
  </g>
  <g id="axes_4">
   <g id="patch_13">
    <path d="M 179.282517 300.782776 
L 593.1 300.782776 
L 593.1 12.210469 
L 179.282517 12.210469 
z
" style="fill: #ffffff"/>
   </g>
   <g id="matplotlib.axis_5">
    <g id="ytick_11">
     <g id="line2d_10">
      <defs>
       <path id="m634015ce98" d="M 0 0 
L -6 0 
" style="stroke: #262626; stroke-width: 1.25"/>
      </defs>
      <g>
       <use xlink:href="#m634015ce98" x="179.282517" y="300.782776" style="fill: #262626; stroke: #262626; stroke-width: 1.25"/>
      </g>
     </g>
     <g id="text_8">
      <!-- 0 -->
      <g style="fill: #262626" transform="translate(161.997205 305.793245) scale(0.14 -0.14)">
       <defs>
        <path id="Arial-BoldMT-30" d="M 1756 4600 
Q 2422 4600 2797 4125 
Q 3244 3563 3244 2259 
Q 3244 959 2794 391 
Q 2422 -78 1756 -78 
Q 1088 -78 678 436 
Q 269 950 269 2269 
Q 269 3563 719 4131 
Q 1091 4600 1756 4600 
z
M 1756 3872 
Q 1597 3872 1472 3770 
Q 1347 3669 1278 3406 
Q 1188 3066 1188 2259 
Q 1188 1453 1269 1151 
Q 1350 850 1473 750 
Q 1597 650 1756 650 
Q 1916 650 2041 751 
Q 2166 853 2234 1116 
Q 2325 1453 2325 2259 
Q 2325 3066 2244 3367 
Q 2163 3669 2039 3770 
Q 1916 3872 1756 3872 
z
" transform="scale(0.015625)"/>
       </defs>
       <use xlink:href="#Arial-BoldMT-30"/>
      </g>
     </g>
    </g>
    <g id="ytick_12">
     <g id="line2d_11">
      <g>
       <use xlink:href="#m634015ce98" x="179.282517" y="243.068315" style="fill: #262626; stroke: #262626; stroke-width: 1.25"/>
      </g>
     </g>
     <g id="text_9">
      <!-- 50 -->
      <g style="fill: #262626" transform="translate(154.211892 248.078784) scale(0.14 -0.14)">
       <defs>
        <path id="Arial-BoldMT-35" d="M 284 1178 
L 1159 1269 
Q 1197 972 1381 798 
Q 1566 625 1806 625 
Q 2081 625 2272 848 
Q 2463 1072 2463 1522 
Q 2463 1944 2273 2155 
Q 2084 2366 1781 2366 
Q 1403 2366 1103 2031 
L 391 2134 
L 841 4519 
L 3163 4519 
L 3163 3697 
L 1506 3697 
L 1369 2919 
Q 1663 3066 1969 3066 
Q 2553 3066 2959 2641 
Q 3366 2216 3366 1538 
Q 3366 972 3038 528 
Q 2591 -78 1797 -78 
Q 1163 -78 763 262 
Q 363 603 284 1178 
z
" transform="scale(0.015625)"/>
       </defs>
       <use xlink:href="#Arial-BoldMT-35"/>
       <use xlink:href="#Arial-BoldMT-30" x="55.615234"/>
      </g>
     </g>
    </g>
    <g id="ytick_13">
     <g id="line2d_12">
      <g>
       <use xlink:href="#m634015ce98" x="179.282517" y="185.353853" style="fill: #262626; stroke: #262626; stroke-width: 1.25"/>
      </g>
     </g>
     <g id="text_10">
      <!-- 100 -->
      <g style="fill: #262626" transform="translate(146.42658 190.364322) scale(0.14 -0.14)">
       <defs>
        <path id="Arial-BoldMT-31" d="M 2519 0 
L 1641 0 
L 1641 3309 
Q 1159 2859 506 2644 
L 506 3441 
Q 850 3553 1253 3867 
Q 1656 4181 1806 4600 
L 2519 4600 
L 2519 0 
z
" transform="scale(0.015625)"/>
       </defs>
       <use xlink:href="#Arial-BoldMT-31"/>
       <use xlink:href="#Arial-BoldMT-30" x="55.615234"/>
       <use xlink:href="#Arial-BoldMT-30" x="111.230469"/>
      </g>
     </g>
    </g>
    <g id="ytick_14">
     <g id="line2d_13">
      <g>
       <use xlink:href="#m634015ce98" x="179.282517" y="127.639392" style="fill: #262626; stroke: #262626; stroke-width: 1.25"/>
      </g>
     </g>
     <g id="text_11">
      <!-- 150 -->
      <g style="fill: #262626" transform="translate(146.42658 132.649861) scale(0.14 -0.14)">
       <use xlink:href="#Arial-BoldMT-31"/>
       <use xlink:href="#Arial-BoldMT-35" x="55.615234"/>
       <use xlink:href="#Arial-BoldMT-30" x="111.230469"/>
      </g>
     </g>
    </g>
    <g id="ytick_15">
     <g id="line2d_14">
      <g>
       <use xlink:href="#m634015ce98" x="179.282517" y="69.92493" style="fill: #262626; stroke: #262626; stroke-width: 1.25"/>
      </g>
     </g>
     <g id="text_12">
      <!-- 200 -->
      <g style="fill: #262626" transform="translate(146.42658 74.935399) scale(0.14 -0.14)">
       <defs>
        <path id="Arial-BoldMT-32" d="M 3238 816 
L 3238 0 
L 159 0 
Q 209 463 459 877 
Q 709 1291 1447 1975 
Q 2041 2528 2175 2725 
Q 2356 2997 2356 3263 
Q 2356 3556 2198 3714 
Q 2041 3872 1763 3872 
Q 1488 3872 1325 3706 
Q 1163 3541 1138 3156 
L 263 3244 
Q 341 3969 753 4284 
Q 1166 4600 1784 4600 
Q 2463 4600 2850 4234 
Q 3238 3869 3238 3325 
Q 3238 3016 3127 2736 
Q 3016 2456 2775 2150 
Q 2616 1947 2200 1565 
Q 1784 1184 1673 1059 
Q 1563 934 1494 816 
L 3238 816 
z
" transform="scale(0.015625)"/>
       </defs>
       <use xlink:href="#Arial-BoldMT-32"/>
       <use xlink:href="#Arial-BoldMT-30" x="55.615234"/>
       <use xlink:href="#Arial-BoldMT-30" x="111.230469"/>
      </g>
     </g>
    </g>
    <g id="ytick_16">
     <g id="line2d_15">
      <g>
       <use xlink:href="#m634015ce98" x="179.282517" y="12.210469" style="fill: #262626; stroke: #262626; stroke-width: 1.25"/>
      </g>
     </g>
     <g id="text_13">
      <!-- 250 -->
      <g style="fill: #262626" transform="translate(146.42658 17.220937) scale(0.14 -0.14)">
       <use xlink:href="#Arial-BoldMT-32"/>
       <use xlink:href="#Arial-BoldMT-35" x="55.615234"/>
       <use xlink:href="#Arial-BoldMT-30" x="111.230469"/>
      </g>
     </g>
    </g>
    <g id="text_14">
     <!-- Intersection Size -->
     <g style="fill: #262626" transform="translate(139.466424 216.093498) rotate(-90) scale(0.15 -0.15)">
      <defs>
       <path id="Arial-BoldMT-49" d="M 438 0 
L 438 4581 
L 1363 4581 
L 1363 0 
L 438 0 
z
" transform="scale(0.015625)"/>
       <path id="Arial-BoldMT-6e" d="M 3478 0 
L 2600 0 
L 2600 1694 
Q 2600 2231 2544 2389 
Q 2488 2547 2361 2634 
Q 2234 2722 2056 2722 
Q 1828 2722 1647 2597 
Q 1466 2472 1398 2265 
Q 1331 2059 1331 1503 
L 1331 0 
L 453 0 
L 453 3319 
L 1269 3319 
L 1269 2831 
Q 1703 3394 2363 3394 
Q 2653 3394 2893 3289 
Q 3134 3184 3257 3021 
Q 3381 2859 3429 2653 
Q 3478 2447 3478 2063 
L 3478 0 
z
" transform="scale(0.015625)"/>
       <path id="Arial-BoldMT-74" d="M 1981 3319 
L 1981 2619 
L 1381 2619 
L 1381 1281 
Q 1381 875 1398 808 
Q 1416 741 1477 697 
Q 1538 653 1625 653 
Q 1747 653 1978 738 
L 2053 56 
Q 1747 -75 1359 -75 
Q 1122 -75 931 4 
Q 741 84 652 211 
Q 563 338 528 553 
Q 500 706 500 1172 
L 500 2619 
L 97 2619 
L 97 3319 
L 500 3319 
L 500 3978 
L 1381 4491 
L 1381 3319 
L 1981 3319 
z
" transform="scale(0.015625)"/>
       <path id="Arial-BoldMT-65" d="M 2381 1056 
L 3256 909 
Q 3088 428 2723 176 
Q 2359 -75 1813 -75 
Q 947 -75 531 491 
Q 203 944 203 1634 
Q 203 2459 634 2926 
Q 1066 3394 1725 3394 
Q 2466 3394 2894 2905 
Q 3322 2416 3303 1406 
L 1103 1406 
Q 1113 1016 1316 798 
Q 1519 581 1822 581 
Q 2028 581 2168 693 
Q 2309 806 2381 1056 
z
M 2431 1944 
Q 2422 2325 2234 2523 
Q 2047 2722 1778 2722 
Q 1491 2722 1303 2513 
Q 1116 2303 1119 1944 
L 2431 1944 
z
" transform="scale(0.015625)"/>
       <path id="Arial-BoldMT-72" d="M 1300 0 
L 422 0 
L 422 3319 
L 1238 3319 
L 1238 2847 
Q 1447 3181 1614 3287 
Q 1781 3394 1994 3394 
Q 2294 3394 2572 3228 
L 2300 2463 
Q 2078 2606 1888 2606 
Q 1703 2606 1575 2504 
Q 1447 2403 1373 2137 
Q 1300 1872 1300 1025 
L 1300 0 
z
" transform="scale(0.015625)"/>
       <path id="Arial-BoldMT-73" d="M 150 947 
L 1031 1081 
Q 1088 825 1259 692 
Q 1431 559 1741 559 
Q 2081 559 2253 684 
Q 2369 772 2369 919 
Q 2369 1019 2306 1084 
Q 2241 1147 2013 1200 
Q 950 1434 666 1628 
Q 272 1897 272 2375 
Q 272 2806 612 3100 
Q 953 3394 1669 3394 
Q 2350 3394 2681 3172 
Q 3013 2950 3138 2516 
L 2309 2363 
Q 2256 2556 2107 2659 
Q 1959 2763 1684 2763 
Q 1338 2763 1188 2666 
Q 1088 2597 1088 2488 
Q 1088 2394 1175 2328 
Q 1294 2241 1995 2081 
Q 2697 1922 2975 1691 
Q 3250 1456 3250 1038 
Q 3250 581 2869 253 
Q 2488 -75 1741 -75 
Q 1063 -75 667 200 
Q 272 475 150 947 
z
" transform="scale(0.015625)"/>
       <path id="Arial-BoldMT-63" d="M 3353 2338 
L 2488 2181 
Q 2444 2441 2289 2572 
Q 2134 2703 1888 2703 
Q 1559 2703 1364 2476 
Q 1169 2250 1169 1719 
Q 1169 1128 1367 884 
Q 1566 641 1900 641 
Q 2150 641 2309 783 
Q 2469 925 2534 1272 
L 3397 1125 
Q 3263 531 2881 228 
Q 2500 -75 1859 -75 
Q 1131 -75 698 384 
Q 266 844 266 1656 
Q 266 2478 700 2936 
Q 1134 3394 1875 3394 
Q 2481 3394 2839 3133 
Q 3197 2872 3353 2338 
z
" transform="scale(0.015625)"/>
       <path id="Arial-BoldMT-69" d="M 459 3769 
L 459 4581 
L 1338 4581 
L 1338 3769 
L 459 3769 
z
M 459 0 
L 459 3319 
L 1338 3319 
L 1338 0 
L 459 0 
z
" transform="scale(0.015625)"/>
       <path id="Arial-BoldMT-6f" d="M 256 1706 
Q 256 2144 472 2553 
Q 688 2963 1083 3178 
Q 1478 3394 1966 3394 
Q 2719 3394 3200 2905 
Q 3681 2416 3681 1669 
Q 3681 916 3195 420 
Q 2709 -75 1972 -75 
Q 1516 -75 1102 131 
Q 688 338 472 736 
Q 256 1134 256 1706 
z
M 1156 1659 
Q 1156 1166 1390 903 
Q 1625 641 1969 641 
Q 2313 641 2545 903 
Q 2778 1166 2778 1666 
Q 2778 2153 2545 2415 
Q 2313 2678 1969 2678 
Q 1625 2678 1390 2415 
Q 1156 2153 1156 1659 
z
" transform="scale(0.015625)"/>
       <path id="Arial-BoldMT-20" transform="scale(0.015625)"/>
       <path id="Arial-BoldMT-53" d="M 231 1491 
L 1131 1578 
Q 1213 1125 1461 912 
Q 1709 700 2131 700 
Q 2578 700 2804 889 
Q 3031 1078 3031 1331 
Q 3031 1494 2936 1608 
Q 2841 1722 2603 1806 
Q 2441 1863 1863 2006 
Q 1119 2191 819 2459 
Q 397 2838 397 3381 
Q 397 3731 595 4036 
Q 794 4341 1167 4500 
Q 1541 4659 2069 4659 
Q 2931 4659 3367 4281 
Q 3803 3903 3825 3272 
L 2900 3231 
Q 2841 3584 2645 3739 
Q 2450 3894 2059 3894 
Q 1656 3894 1428 3728 
Q 1281 3622 1281 3444 
Q 1281 3281 1419 3166 
Q 1594 3019 2269 2859 
Q 2944 2700 3267 2529 
Q 3591 2359 3773 2064 
Q 3956 1769 3956 1334 
Q 3956 941 3737 597 
Q 3519 253 3119 86 
Q 2719 -81 2122 -81 
Q 1253 -81 787 320 
Q 322 722 231 1491 
z
" transform="scale(0.015625)"/>
       <path id="Arial-BoldMT-7a" d="M 106 0 
L 106 684 
L 1350 2113 
Q 1656 2463 1803 2609 
Q 1650 2600 1400 2597 
L 228 2591 
L 228 3319 
L 2972 3319 
L 2972 2697 
L 1703 1234 
L 1256 750 
Q 1622 772 1709 772 
L 3069 772 
L 3069 0 
L 106 0 
z
" transform="scale(0.015625)"/>
      </defs>
      <use xlink:href="#Arial-BoldMT-49"/>
      <use xlink:href="#Arial-BoldMT-6e" x="27.783203"/>
      <use xlink:href="#Arial-BoldMT-74" x="88.867188"/>
      <use xlink:href="#Arial-BoldMT-65" x="122.167969"/>
      <use xlink:href="#Arial-BoldMT-72" x="177.783203"/>
      <use xlink:href="#Arial-BoldMT-73" x="216.699219"/>
      <use xlink:href="#Arial-BoldMT-65" x="272.314453"/>
      <use xlink:href="#Arial-BoldMT-63" x="327.929688"/>
      <use xlink:href="#Arial-BoldMT-74" x="383.544922"/>
      <use xlink:href="#Arial-BoldMT-69" x="416.845703"/>
      <use xlink:href="#Arial-BoldMT-6f" x="444.628906"/>
      <use xlink:href="#Arial-BoldMT-6e" x="505.712891"/>
      <use xlink:href="#Arial-BoldMT-20" x="566.796875"/>
      <use xlink:href="#Arial-BoldMT-53" x="594.580078"/>
      <use xlink:href="#Arial-BoldMT-69" x="661.279297"/>
      <use xlink:href="#Arial-BoldMT-7a" x="689.0625"/>
      <use xlink:href="#Arial-BoldMT-65" x="739.0625"/>
     </g>
    </g>
   </g>
   <g id="patch_14">
    <path d="M 179.282517 300.782776 
L 179.282517 12.210469 
" style="fill: none; stroke: #262626; stroke-width: 1.25; stroke-linejoin: miter; stroke-linecap: square"/>
   </g>
   <g id="patch_15">
    <path d="M 185.368069 300.782776 
L 197.539171 300.782776 
L 197.539171 56.07346 
L 185.368069 56.07346 
z
" clip-path="url(#pe34db28148)" style="fill: #001c7f; stroke: #001c7f; stroke-linejoin: miter"/>
   </g>
   <g id="patch_16">
    <path d="M 209.710274 300.782776 
L 221.881376 300.782776 
L 221.881376 202.668192 
L 209.710274 202.668192 
z
" clip-path="url(#pe34db28148)" style="fill: #001c7f; stroke: #001c7f; stroke-linejoin: miter"/>
   </g>
   <g id="patch_17">
    <path d="M 234.052478 300.782776 
L 246.223581 300.782776 
L 246.223581 266.1541 
L 234.052478 266.1541 
z
" clip-path="url(#pe34db28148)" style="fill: #001c7f; stroke: #001c7f; stroke-linejoin: miter"/>
   </g>
   <g id="patch_18">
    <path d="M 258.394683 300.782776 
L 270.565786 300.782776 
L 270.565786 269.616967 
L 258.394683 269.616967 
z
" clip-path="url(#pe34db28148)" style="fill: #001c7f; stroke: #001c7f; stroke-linejoin: miter"/>
   </g>
   <g id="patch_19">
    <path d="M 282.736888 300.782776 
L 294.907991 300.782776 
L 294.907991 284.622727 
L 282.736888 284.622727 
z
" clip-path="url(#pe34db28148)" style="fill: #001c7f; stroke: #001c7f; stroke-linejoin: miter"/>
   </g>
   <g id="patch_20">
    <path d="M 307.079093 300.782776 
L 319.250195 300.782776 
L 319.250195 284.622727 
L 307.079093 284.622727 
z
" clip-path="url(#pe34db28148)" style="fill: #001c7f; stroke: #001c7f; stroke-linejoin: miter"/>
   </g>
   <g id="patch_21">
    <path d="M 331.421298 300.782776 
L 343.5924 300.782776 
L 343.5924 288.085595 
L 331.421298 288.085595 
z
" clip-path="url(#pe34db28148)" style="fill: #001c7f; stroke: #001c7f; stroke-linejoin: miter"/>
   </g>
   <g id="patch_22">
    <path d="M 355.763503 300.782776 
L 367.934605 300.782776 
L 367.934605 290.394173 
L 355.763503 290.394173 
z
" clip-path="url(#pe34db28148)" style="fill: #001c7f; stroke: #001c7f; stroke-linejoin: miter"/>
   </g>
   <g id="patch_23">
    <path d="M 380.105708 300.782776 
L 392.27681 300.782776 
L 392.27681 295.01133 
L 380.105708 295.01133 
z
" clip-path="url(#pe34db28148)" style="fill: #001c7f; stroke: #001c7f; stroke-linejoin: miter"/>
   </g>
   <g id="patch_24">
    <path d="M 404.447912 300.782776 
L 416.619015 300.782776 
L 416.619015 295.01133 
L 404.447912 295.01133 
z
" clip-path="url(#pe34db28148)" style="fill: #001c7f; stroke: #001c7f; stroke-linejoin: miter"/>
   </g>
   <g id="patch_25">
    <path d="M 428.790117 300.782776 
L 440.96122 300.782776 
L 440.96122 296.16562 
L 428.790117 296.16562 
z
" clip-path="url(#pe34db28148)" style="fill: #001c7f; stroke: #001c7f; stroke-linejoin: miter"/>
   </g>
   <g id="patch_26">
    <path d="M 453.132322 300.782776 
L 465.303425 300.782776 
L 465.303425 298.474198 
L 453.132322 298.474198 
z
" clip-path="url(#pe34db28148)" style="fill: #001c7f; stroke: #001c7f; stroke-linejoin: miter"/>
   </g>
   <g id="patch_27">
    <path d="M 477.474527 300.782776 
L 489.645629 300.782776 
L 489.645629 299.628487 
L 477.474527 299.628487 
z
" clip-path="url(#pe34db28148)" style="fill: #001c7f; stroke: #001c7f; stroke-linejoin: miter"/>
   </g>
   <g id="patch_28">
    <path d="M 501.816732 300.782776 
L 513.987834 300.782776 
L 513.987834 299.628487 
L 501.816732 299.628487 
z
" clip-path="url(#pe34db28148)" style="fill: #001c7f; stroke: #001c7f; stroke-linejoin: miter"/>
   </g>
   <g id="patch_29">
    <path d="M 526.158937 300.782776 
L 538.330039 300.782776 
L 538.330039 299.628487 
L 526.158937 299.628487 
z
" clip-path="url(#pe34db28148)" style="fill: #001c7f; stroke: #001c7f; stroke-linejoin: miter"/>
   </g>
   <g id="patch_30">
    <path d="M 550.501142 300.782776 
L 562.672244 300.782776 
L 562.672244 299.628487 
L 550.501142 299.628487 
z
" clip-path="url(#pe34db28148)" style="fill: #001c7f; stroke: #001c7f; stroke-linejoin: miter"/>
   </g>
   <g id="patch_31">
    <path d="M 574.843346 300.782776 
L 587.014449 300.782776 
L 587.014449 299.628487 
L 574.843346 299.628487 
z
" clip-path="url(#pe34db28148)" style="fill: #001c7f; stroke: #001c7f; stroke-linejoin: miter"/>
   </g>
  </g>
 </g>
 <defs>
  <clipPath id="p6cbb15aae2">
   <rect x="7.2" y="310.733546" width="585.9" height="89.556923"/>
  </clipPath>
  <clipPath id="p86b481dee2">
   <rect x="179.282517" y="310.733546" width="413.817483" height="89.556923"/>
  </clipPath>
  <clipPath id="pecc4a4655b">
   <rect x="7.2" y="310.733546" width="45.069231" height="89.556923"/>
  </clipPath>
  <clipPath id="pe34db28148">
   <rect x="179.282517" y="12.210469" width="413.817483" height="288.572308"/>
  </clipPath>
 </defs>
</svg>
