<?xml version="1.0" encoding="utf-8" standalone="no"?>
<!DOCTYPE svg PUBLIC "-//W3C//DTD SVG 1.1//EN"
  "http://www.w3.org/Graphics/SVG/1.1/DTD/svg11.dtd">
<svg xmlns:xlink="http://www.w3.org/1999/xlink" width="460.8pt" height="425.976641pt" viewBox="0 0 460.8 425.976641" xmlns="http://www.w3.org/2000/svg" version="1.1">
 <metadata>
  <rdf:RDF xmlns:dc="http://purl.org/dc/elements/1.1/" xmlns:cc="http://creativecommons.org/ns#" xmlns:rdf="http://www.w3.org/1999/02/22-rdf-syntax-ns#">
   <cc:Work>
    <dc:type rdf:resource="http://purl.org/dc/dcmitype/StillImage"/>
    <dc:date>2024-08-31T22:00:37.505315</dc:date>
    <dc:format>image/svg+xml</dc:format>
    <dc:creator>
     <cc:Agent>
      <dc:title>Matplotlib v3.7.1, https://matplotlib.org/</dc:title>
     </cc:Agent>
    </dc:creator>
   </cc:Work>
  </rdf:RDF>
 </metadata>
 <defs>
  <style type="text/css">*{stroke-linejoin: round; stroke-linecap: butt}</style>
 </defs>
 <g id="figure_1">
  <g id="patch_1">
   <path d="M 0 425.976641 
L 460.8 425.976641 
L 460.8 0 
L 0 0 
z
" style="fill: #ffffff"/>
  </g>
  <g id="axes_1">
   <g id="patch_2">
    <path d="M 7.2 394.484114 
L 453.6 394.484114 
L 453.6 381.428437 
L 7.2 381.428437 
z
" clip-path="url(#p37e1557a60)" style="fill-opacity: 0.05098"/>
   </g>
   <g id="patch_3">
    <path d="M 7.2 378.164518 
L 453.6 378.164518 
L 453.6 365.108841 
L 7.2 365.108841 
L 7.2 378.164518 
z
" clip-path="url(#p37e1557a60)" style="fill: none"/>
   </g>
   <g id="patch_4">
    <path d="M 7.2 361.844921 
L 453.6 361.844921 
L 453.6 348.789244 
L 7.2 348.789244 
z
" clip-path="url(#p37e1557a60)" style="fill-opacity: 0.05098"/>
   </g>
   <g id="patch_5">
    <path d="M 7.2 345.525325 
L 453.6 345.525325 
L 453.6 332.469648 
L 7.2 332.469648 
L 7.2 345.525325 
z
" clip-path="url(#p37e1557a60)" style="fill: none"/>
   </g>
   <g id="patch_6">
    <path d="M 7.2 329.205729 
L 453.6 329.205729 
L 453.6 316.150052 
L 7.2 316.150052 
z
" clip-path="url(#p37e1557a60)" style="fill-opacity: 0.05098"/>
   </g>
   <g id="patch_7">
    <path d="M 7.2 312.886132 
L 453.6 312.886132 
L 453.6 299.830455 
L 7.2 299.830455 
L 7.2 312.886132 
z
" clip-path="url(#p37e1557a60)" style="fill: none"/>
   </g>
   <g id="matplotlib.axis_1"/>
   <g id="matplotlib.axis_2">
    <g id="ytick_1"/>
    <g id="ytick_2"/>
    <g id="ytick_3"/>
    <g id="ytick_4"/>
    <g id="ytick_5"/>
    <g id="ytick_6"/>
   </g>
  </g>
  <g id="axes_2">
   <g id="matplotlib.axis_3">
    <g id="ytick_7">
     <g id="line2d_1"/>
     <g id="text_1">
      <!-- Hypertension -->
      <g style="fill: #262626" transform="translate(104.809678 391.893072) scale(0.11 -0.11)">
       <defs>
        <path id="ArialMT-48" d="M 513 0 
L 513 4581 
L 1119 4581 
L 1119 2700 
L 3500 2700 
L 3500 4581 
L 4106 4581 
L 4106 0 
L 3500 0 
L 3500 2159 
L 1119 2159 
L 1119 0 
L 513 0 
z
" transform="scale(0.015625)"/>
        <path id="ArialMT-79" d="M 397 -1278 
L 334 -750 
Q 519 -800 656 -800 
Q 844 -800 956 -737 
Q 1069 -675 1141 -563 
Q 1194 -478 1313 -144 
Q 1328 -97 1363 -6 
L 103 3319 
L 709 3319 
L 1400 1397 
Q 1534 1031 1641 628 
Q 1738 1016 1872 1384 
L 2581 3319 
L 3144 3319 
L 1881 -56 
Q 1678 -603 1566 -809 
Q 1416 -1088 1222 -1217 
Q 1028 -1347 759 -1347 
Q 597 -1347 397 -1278 
z
" transform="scale(0.015625)"/>
        <path id="ArialMT-70" d="M 422 -1272 
L 422 3319 
L 934 3319 
L 934 2888 
Q 1116 3141 1344 3267 
Q 1572 3394 1897 3394 
Q 2322 3394 2647 3175 
Q 2972 2956 3137 2557 
Q 3303 2159 3303 1684 
Q 3303 1175 3120 767 
Q 2938 359 2589 142 
Q 2241 -75 1856 -75 
Q 1575 -75 1351 44 
Q 1128 163 984 344 
L 984 -1272 
L 422 -1272 
z
M 931 1641 
Q 931 1000 1190 694 
Q 1450 388 1819 388 
Q 2194 388 2461 705 
Q 2728 1022 2728 1688 
Q 2728 2322 2467 2637 
Q 2206 2953 1844 2953 
Q 1484 2953 1207 2617 
Q 931 2281 931 1641 
z
" transform="scale(0.015625)"/>
        <path id="ArialMT-65" d="M 2694 1069 
L 3275 997 
Q 3138 488 2766 206 
Q 2394 -75 1816 -75 
Q 1088 -75 661 373 
Q 234 822 234 1631 
Q 234 2469 665 2931 
Q 1097 3394 1784 3394 
Q 2450 3394 2872 2941 
Q 3294 2488 3294 1666 
Q 3294 1616 3291 1516 
L 816 1516 
Q 847 969 1125 678 
Q 1403 388 1819 388 
Q 2128 388 2347 550 
Q 2566 713 2694 1069 
z
M 847 1978 
L 2700 1978 
Q 2663 2397 2488 2606 
Q 2219 2931 1791 2931 
Q 1403 2931 1139 2672 
Q 875 2413 847 1978 
z
" transform="scale(0.015625)"/>
        <path id="ArialMT-72" d="M 416 0 
L 416 3319 
L 922 3319 
L 922 2816 
Q 1116 3169 1280 3281 
Q 1444 3394 1641 3394 
Q 1925 3394 2219 3213 
L 2025 2691 
Q 1819 2813 1613 2813 
Q 1428 2813 1281 2702 
Q 1134 2591 1072 2394 
Q 978 2094 978 1738 
L 978 0 
L 416 0 
z
" transform="scale(0.015625)"/>
        <path id="ArialMT-74" d="M 1650 503 
L 1731 6 
Q 1494 -44 1306 -44 
Q 1000 -44 831 53 
Q 663 150 594 308 
Q 525 466 525 972 
L 525 2881 
L 113 2881 
L 113 3319 
L 525 3319 
L 525 4141 
L 1084 4478 
L 1084 3319 
L 1650 3319 
L 1650 2881 
L 1084 2881 
L 1084 941 
Q 1084 700 1114 631 
Q 1144 563 1211 522 
Q 1278 481 1403 481 
Q 1497 481 1650 503 
z
" transform="scale(0.015625)"/>
        <path id="ArialMT-6e" d="M 422 0 
L 422 3319 
L 928 3319 
L 928 2847 
Q 1294 3394 1984 3394 
Q 2284 3394 2536 3286 
Q 2788 3178 2913 3003 
Q 3038 2828 3088 2588 
Q 3119 2431 3119 2041 
L 3119 0 
L 2556 0 
L 2556 2019 
Q 2556 2363 2490 2533 
Q 2425 2703 2258 2804 
Q 2091 2906 1866 2906 
Q 1506 2906 1245 2678 
Q 984 2450 984 1813 
L 984 0 
L 422 0 
z
" transform="scale(0.015625)"/>
        <path id="ArialMT-73" d="M 197 991 
L 753 1078 
Q 800 744 1014 566 
Q 1228 388 1613 388 
Q 2000 388 2187 545 
Q 2375 703 2375 916 
Q 2375 1106 2209 1216 
Q 2094 1291 1634 1406 
Q 1016 1563 777 1677 
Q 538 1791 414 1992 
Q 291 2194 291 2438 
Q 291 2659 392 2848 
Q 494 3038 669 3163 
Q 800 3259 1026 3326 
Q 1253 3394 1513 3394 
Q 1903 3394 2198 3281 
Q 2494 3169 2634 2976 
Q 2775 2784 2828 2463 
L 2278 2388 
Q 2241 2644 2061 2787 
Q 1881 2931 1553 2931 
Q 1166 2931 1000 2803 
Q 834 2675 834 2503 
Q 834 2394 903 2306 
Q 972 2216 1119 2156 
Q 1203 2125 1616 2013 
Q 2213 1853 2448 1751 
Q 2684 1650 2818 1456 
Q 2953 1263 2953 975 
Q 2953 694 2789 445 
Q 2625 197 2315 61 
Q 2006 -75 1616 -75 
Q 969 -75 630 194 
Q 291 463 197 991 
z
" transform="scale(0.015625)"/>
        <path id="ArialMT-69" d="M 425 3934 
L 425 4581 
L 988 4581 
L 988 3934 
L 425 3934 
z
M 425 0 
L 425 3319 
L 988 3319 
L 988 0 
L 425 0 
z
" transform="scale(0.015625)"/>
        <path id="ArialMT-6f" d="M 213 1659 
Q 213 2581 725 3025 
Q 1153 3394 1769 3394 
Q 2453 3394 2887 2945 
Q 3322 2497 3322 1706 
Q 3322 1066 3130 698 
Q 2938 331 2570 128 
Q 2203 -75 1769 -75 
Q 1072 -75 642 372 
Q 213 819 213 1659 
z
M 791 1659 
Q 791 1022 1069 705 
Q 1347 388 1769 388 
Q 2188 388 2466 706 
Q 2744 1025 2744 1678 
Q 2744 2294 2464 2611 
Q 2184 2928 1769 2928 
Q 1347 2928 1069 2612 
Q 791 2297 791 1659 
z
" transform="scale(0.015625)"/>
       </defs>
       <use xlink:href="#ArialMT-48"/>
       <use xlink:href="#ArialMT-79" x="72.216797"/>
       <use xlink:href="#ArialMT-70" x="122.216797"/>
       <use xlink:href="#ArialMT-65" x="177.832031"/>
       <use xlink:href="#ArialMT-72" x="233.447266"/>
       <use xlink:href="#ArialMT-74" x="266.748047"/>
       <use xlink:href="#ArialMT-65" x="294.53125"/>
       <use xlink:href="#ArialMT-6e" x="350.146484"/>
       <use xlink:href="#ArialMT-73" x="405.761719"/>
       <use xlink:href="#ArialMT-69" x="455.761719"/>
       <use xlink:href="#ArialMT-6f" x="477.978516"/>
       <use xlink:href="#ArialMT-6e" x="533.59375"/>
      </g>
     </g>
    </g>
    <g id="ytick_8">
     <g id="line2d_2"/>
     <g id="text_2">
      <!-- Depression -->
      <g style="fill: #262626" transform="translate(113.982647 375.573476) scale(0.11 -0.11)">
       <defs>
        <path id="ArialMT-44" d="M 494 0 
L 494 4581 
L 2072 4581 
Q 2606 4581 2888 4516 
Q 3281 4425 3559 4188 
Q 3922 3881 4101 3404 
Q 4281 2928 4281 2316 
Q 4281 1794 4159 1391 
Q 4038 988 3847 723 
Q 3656 459 3429 307 
Q 3203 156 2883 78 
Q 2563 0 2147 0 
L 494 0 
z
M 1100 541 
L 2078 541 
Q 2531 541 2789 625 
Q 3047 709 3200 863 
Q 3416 1078 3536 1442 
Q 3656 1806 3656 2325 
Q 3656 3044 3420 3430 
Q 3184 3816 2847 3947 
Q 2603 4041 2063 4041 
L 1100 4041 
L 1100 541 
z
" transform="scale(0.015625)"/>
       </defs>
       <use xlink:href="#ArialMT-44"/>
       <use xlink:href="#ArialMT-65" x="72.216797"/>
       <use xlink:href="#ArialMT-70" x="127.832031"/>
       <use xlink:href="#ArialMT-72" x="183.447266"/>
       <use xlink:href="#ArialMT-65" x="216.748047"/>
       <use xlink:href="#ArialMT-73" x="272.363281"/>
       <use xlink:href="#ArialMT-73" x="322.363281"/>
       <use xlink:href="#ArialMT-69" x="372.363281"/>
       <use xlink:href="#ArialMT-6f" x="394.580078"/>
       <use xlink:href="#ArialMT-6e" x="450.195312"/>
      </g>
     </g>
    </g>
    <g id="ytick_9">
     <g id="line2d_3"/>
     <g id="text_3">
      <!-- Stroke -->
      <g style="fill: #262626" transform="translate(137.828584 359.25388) scale(0.11 -0.11)">
       <defs>
        <path id="ArialMT-53" d="M 288 1472 
L 859 1522 
Q 900 1178 1048 958 
Q 1197 738 1509 602 
Q 1822 466 2213 466 
Q 2559 466 2825 569 
Q 3091 672 3220 851 
Q 3350 1031 3350 1244 
Q 3350 1459 3225 1620 
Q 3100 1781 2813 1891 
Q 2628 1963 1997 2114 
Q 1366 2266 1113 2400 
Q 784 2572 623 2826 
Q 463 3081 463 3397 
Q 463 3744 659 4045 
Q 856 4347 1234 4503 
Q 1613 4659 2075 4659 
Q 2584 4659 2973 4495 
Q 3363 4331 3572 4012 
Q 3781 3694 3797 3291 
L 3216 3247 
Q 3169 3681 2898 3903 
Q 2628 4125 2100 4125 
Q 1550 4125 1298 3923 
Q 1047 3722 1047 3438 
Q 1047 3191 1225 3031 
Q 1400 2872 2139 2705 
Q 2878 2538 3153 2413 
Q 3553 2228 3743 1945 
Q 3934 1663 3934 1294 
Q 3934 928 3725 604 
Q 3516 281 3123 101 
Q 2731 -78 2241 -78 
Q 1619 -78 1198 103 
Q 778 284 539 648 
Q 300 1013 288 1472 
z
" transform="scale(0.015625)"/>
        <path id="ArialMT-6b" d="M 425 0 
L 425 4581 
L 988 4581 
L 988 1969 
L 2319 3319 
L 3047 3319 
L 1778 2088 
L 3175 0 
L 2481 0 
L 1384 1697 
L 988 1316 
L 988 0 
L 425 0 
z
" transform="scale(0.015625)"/>
       </defs>
       <use xlink:href="#ArialMT-53"/>
       <use xlink:href="#ArialMT-74" x="66.699219"/>
       <use xlink:href="#ArialMT-72" x="94.482422"/>
       <use xlink:href="#ArialMT-6f" x="127.783203"/>
       <use xlink:href="#ArialMT-6b" x="183.398438"/>
       <use xlink:href="#ArialMT-65" x="233.398438"/>
      </g>
     </g>
    </g>
    <g id="ytick_10">
     <g id="line2d_4"/>
     <g id="text_4">
      <!-- Other -->
      <g style="fill: #262626" transform="translate(142.10999 342.934283) scale(0.11 -0.11)">
       <defs>
        <path id="ArialMT-4f" d="M 309 2231 
Q 309 3372 921 4017 
Q 1534 4663 2503 4663 
Q 3138 4663 3647 4359 
Q 4156 4056 4423 3514 
Q 4691 2972 4691 2284 
Q 4691 1588 4409 1038 
Q 4128 488 3612 205 
Q 3097 -78 2500 -78 
Q 1853 -78 1343 234 
Q 834 547 571 1087 
Q 309 1628 309 2231 
z
M 934 2222 
Q 934 1394 1379 917 
Q 1825 441 2497 441 
Q 3181 441 3623 922 
Q 4066 1403 4066 2288 
Q 4066 2847 3877 3264 
Q 3688 3681 3323 3911 
Q 2959 4141 2506 4141 
Q 1863 4141 1398 3698 
Q 934 3256 934 2222 
z
" transform="scale(0.015625)"/>
        <path id="ArialMT-68" d="M 422 0 
L 422 4581 
L 984 4581 
L 984 2938 
Q 1378 3394 1978 3394 
Q 2347 3394 2619 3248 
Q 2891 3103 3008 2847 
Q 3125 2591 3125 2103 
L 3125 0 
L 2563 0 
L 2563 2103 
Q 2563 2525 2380 2717 
Q 2197 2909 1863 2909 
Q 1613 2909 1392 2779 
Q 1172 2650 1078 2428 
Q 984 2206 984 1816 
L 984 0 
L 422 0 
z
" transform="scale(0.015625)"/>
       </defs>
       <use xlink:href="#ArialMT-4f"/>
       <use xlink:href="#ArialMT-74" x="77.783203"/>
       <use xlink:href="#ArialMT-68" x="105.566406"/>
       <use xlink:href="#ArialMT-65" x="161.181641"/>
       <use xlink:href="#ArialMT-72" x="216.796875"/>
      </g>
     </g>
    </g>
    <g id="ytick_11">
     <g id="line2d_5"/>
     <g id="text_5">
      <!-- Parkinson's Disease -->
      <g style="fill: #262626" transform="translate(70.310928 326.614687) scale(0.11 -0.11)">
       <defs>
        <path id="ArialMT-50" d="M 494 0 
L 494 4581 
L 2222 4581 
Q 2678 4581 2919 4538 
Q 3256 4481 3484 4323 
Q 3713 4166 3852 3881 
Q 3991 3597 3991 3256 
Q 3991 2672 3619 2267 
Q 3247 1863 2275 1863 
L 1100 1863 
L 1100 0 
L 494 0 
z
M 1100 2403 
L 2284 2403 
Q 2872 2403 3119 2622 
Q 3366 2841 3366 3238 
Q 3366 3525 3220 3729 
Q 3075 3934 2838 4000 
Q 2684 4041 2272 4041 
L 1100 4041 
L 1100 2403 
z
" transform="scale(0.015625)"/>
        <path id="ArialMT-61" d="M 2588 409 
Q 2275 144 1986 34 
Q 1697 -75 1366 -75 
Q 819 -75 525 192 
Q 231 459 231 875 
Q 231 1119 342 1320 
Q 453 1522 633 1644 
Q 813 1766 1038 1828 
Q 1203 1872 1538 1913 
Q 2219 1994 2541 2106 
Q 2544 2222 2544 2253 
Q 2544 2597 2384 2738 
Q 2169 2928 1744 2928 
Q 1347 2928 1158 2789 
Q 969 2650 878 2297 
L 328 2372 
Q 403 2725 575 2942 
Q 747 3159 1072 3276 
Q 1397 3394 1825 3394 
Q 2250 3394 2515 3294 
Q 2781 3194 2906 3042 
Q 3031 2891 3081 2659 
Q 3109 2516 3109 2141 
L 3109 1391 
Q 3109 606 3145 398 
Q 3181 191 3288 0 
L 2700 0 
Q 2613 175 2588 409 
z
M 2541 1666 
Q 2234 1541 1622 1453 
Q 1275 1403 1131 1340 
Q 988 1278 909 1158 
Q 831 1038 831 891 
Q 831 666 1001 516 
Q 1172 366 1500 366 
Q 1825 366 2078 508 
Q 2331 650 2450 897 
Q 2541 1088 2541 1459 
L 2541 1666 
z
" transform="scale(0.015625)"/>
        <path id="ArialMT-27" d="M 425 2959 
L 281 3816 
L 281 4581 
L 922 4581 
L 922 3816 
L 772 2959 
L 425 2959 
z
" transform="scale(0.015625)"/>
        <path id="ArialMT-20" transform="scale(0.015625)"/>
       </defs>
       <use xlink:href="#ArialMT-50"/>
       <use xlink:href="#ArialMT-61" x="66.699219"/>
       <use xlink:href="#ArialMT-72" x="122.314453"/>
       <use xlink:href="#ArialMT-6b" x="155.615234"/>
       <use xlink:href="#ArialMT-69" x="205.615234"/>
       <use xlink:href="#ArialMT-6e" x="227.832031"/>
       <use xlink:href="#ArialMT-73" x="283.447266"/>
       <use xlink:href="#ArialMT-6f" x="333.447266"/>
       <use xlink:href="#ArialMT-6e" x="389.0625"/>
       <use xlink:href="#ArialMT-27" x="444.677734"/>
       <use xlink:href="#ArialMT-73" x="463.769531"/>
       <use xlink:href="#ArialMT-20" x="513.769531"/>
       <use xlink:href="#ArialMT-44" x="541.552734"/>
       <use xlink:href="#ArialMT-69" x="613.769531"/>
       <use xlink:href="#ArialMT-73" x="635.986328"/>
       <use xlink:href="#ArialMT-65" x="685.986328"/>
       <use xlink:href="#ArialMT-61" x="741.601562"/>
       <use xlink:href="#ArialMT-73" x="797.216797"/>
       <use xlink:href="#ArialMT-65" x="847.216797"/>
      </g>
     </g>
    </g>
    <g id="ytick_12">
     <g id="line2d_6"/>
     <g id="text_6">
      <!-- Diabetes -->
      <g style="fill: #262626" transform="translate(126.206397 310.295091) scale(0.11 -0.11)">
       <defs>
        <path id="ArialMT-62" d="M 941 0 
L 419 0 
L 419 4581 
L 981 4581 
L 981 2947 
Q 1338 3394 1891 3394 
Q 2197 3394 2470 3270 
Q 2744 3147 2920 2923 
Q 3097 2700 3197 2384 
Q 3297 2069 3297 1709 
Q 3297 856 2875 390 
Q 2453 -75 1863 -75 
Q 1275 -75 941 416 
L 941 0 
z
M 934 1684 
Q 934 1088 1097 822 
Q 1363 388 1816 388 
Q 2184 388 2453 708 
Q 2722 1028 2722 1663 
Q 2722 2313 2464 2622 
Q 2206 2931 1841 2931 
Q 1472 2931 1203 2611 
Q 934 2291 934 1684 
z
" transform="scale(0.015625)"/>
       </defs>
       <use xlink:href="#ArialMT-44"/>
       <use xlink:href="#ArialMT-69" x="72.216797"/>
       <use xlink:href="#ArialMT-61" x="94.433594"/>
       <use xlink:href="#ArialMT-62" x="150.048828"/>
       <use xlink:href="#ArialMT-65" x="205.664062"/>
       <use xlink:href="#ArialMT-74" x="261.279297"/>
       <use xlink:href="#ArialMT-65" x="289.0625"/>
       <use xlink:href="#ArialMT-73" x="344.677734"/>
      </g>
     </g>
    </g>
   </g>
   <g id="LineCollection_1">
    <path d="M 208.178761 387.956275 
L 208.178761 387.956275 
" clip-path="url(#p2dc2d6571d)" style="fill: none; stroke: #001c7f; stroke-width: 2"/>
    <path d="M 231.552212 371.636679 
L 231.552212 371.636679 
" clip-path="url(#p2dc2d6571d)" style="fill: none; stroke: #001c7f; stroke-width: 2"/>
    <path d="M 254.925664 387.956275 
L 254.925664 371.636679 
" clip-path="url(#p2dc2d6571d)" style="fill: none; stroke: #001c7f; stroke-width: 2"/>
    <path d="M 278.299115 387.956275 
L 278.299115 355.317083 
" clip-path="url(#p2dc2d6571d)" style="fill: none; stroke: #001c7f; stroke-width: 2"/>
    <path d="M 301.672566 338.997487 
L 301.672566 338.997487 
" clip-path="url(#p2dc2d6571d)" style="fill: none; stroke: #001c7f; stroke-width: 2"/>
    <path d="M 325.046018 355.317083 
L 325.046018 355.317083 
" clip-path="url(#p2dc2d6571d)" style="fill: none; stroke: #001c7f; stroke-width: 2"/>
    <path d="M 348.419469 387.956275 
L 348.419469 338.997487 
" clip-path="url(#p2dc2d6571d)" style="fill: none; stroke: #001c7f; stroke-width: 2"/>
    <path d="M 371.79292 322.67789 
L 371.79292 322.67789 
" clip-path="url(#p2dc2d6571d)" style="fill: none; stroke: #001c7f; stroke-width: 2"/>
    <path d="M 395.166372 387.956275 
L 395.166372 306.358294 
" clip-path="url(#p2dc2d6571d)" style="fill: none; stroke: #001c7f; stroke-width: 2"/>
    <path d="M 418.539823 306.358294 
L 418.539823 306.358294 
" clip-path="url(#p2dc2d6571d)" style="fill: none; stroke: #001c7f; stroke-width: 2"/>
    <path d="M 441.913274 371.636679 
L 441.913274 355.317083 
" clip-path="url(#p2dc2d6571d)" style="fill: none; stroke: #001c7f; stroke-width: 2"/>
   </g>
   <g id="PathCollection_1">
    <defs>
     <path id="C0_0_ea79bbc083" d="M 0 5.6 
C 1.485137 5.6 2.909647 5.009949 3.959798 3.959798 
C 5.009949 2.909647 5.6 1.485137 5.6 -0 
C 5.6 -1.485137 5.009949 -2.909647 3.959798 -3.959798 
C 2.909647 -5.009949 1.485137 -5.6 0 -5.6 
C -1.485137 -5.6 -2.909647 -5.009949 -3.959798 -3.959798 
C -5.009949 -2.909647 -5.6 -1.485137 -5.6 0 
C -5.6 1.485137 -5.009949 2.909647 -3.959798 3.959798 
C -2.909647 5.009949 -1.485137 5.6 0 5.6 
z
"/>
    </defs>
    <g clip-path="url(#p2dc2d6571d)">
     <use xlink:href="#C0_0_ea79bbc083" x="184.80531" y="387.956275" style="fill-opacity: 0.180392"/>
    </g>
    <g clip-path="url(#p2dc2d6571d)">
     <use xlink:href="#C0_0_ea79bbc083" x="184.80531" y="371.636679" style="fill-opacity: 0.180392"/>
    </g>
    <g clip-path="url(#p2dc2d6571d)">
     <use xlink:href="#C0_0_ea79bbc083" x="184.80531" y="355.317083" style="fill-opacity: 0.180392"/>
    </g>
    <g clip-path="url(#p2dc2d6571d)">
     <use xlink:href="#C0_0_ea79bbc083" x="184.80531" y="338.997487" style="fill-opacity: 0.180392"/>
    </g>
    <g clip-path="url(#p2dc2d6571d)">
     <use xlink:href="#C0_0_ea79bbc083" x="184.80531" y="322.67789" style="fill-opacity: 0.180392"/>
    </g>
    <g clip-path="url(#p2dc2d6571d)">
     <use xlink:href="#C0_0_ea79bbc083" x="184.80531" y="306.358294" style="fill-opacity: 0.180392"/>
    </g>
    <g clip-path="url(#p2dc2d6571d)">
     <use xlink:href="#C0_0_ea79bbc083" x="208.178761" y="387.956275" style="fill: #001c7f; stroke: #001c7f"/>
    </g>
    <g clip-path="url(#p2dc2d6571d)">
     <use xlink:href="#C0_0_ea79bbc083" x="208.178761" y="371.636679" style="fill-opacity: 0.180392"/>
    </g>
    <g clip-path="url(#p2dc2d6571d)">
     <use xlink:href="#C0_0_ea79bbc083" x="208.178761" y="355.317083" style="fill-opacity: 0.180392"/>
    </g>
    <g clip-path="url(#p2dc2d6571d)">
     <use xlink:href="#C0_0_ea79bbc083" x="208.178761" y="338.997487" style="fill-opacity: 0.180392"/>
    </g>
    <g clip-path="url(#p2dc2d6571d)">
     <use xlink:href="#C0_0_ea79bbc083" x="208.178761" y="322.67789" style="fill-opacity: 0.180392"/>
    </g>
    <g clip-path="url(#p2dc2d6571d)">
     <use xlink:href="#C0_0_ea79bbc083" x="208.178761" y="306.358294" style="fill-opacity: 0.180392"/>
    </g>
    <g clip-path="url(#p2dc2d6571d)">
     <use xlink:href="#C0_0_ea79bbc083" x="231.552212" y="387.956275" style="fill-opacity: 0.180392"/>
    </g>
    <g clip-path="url(#p2dc2d6571d)">
     <use xlink:href="#C0_0_ea79bbc083" x="231.552212" y="371.636679" style="fill: #001c7f; stroke: #001c7f"/>
    </g>
    <g clip-path="url(#p2dc2d6571d)">
     <use xlink:href="#C0_0_ea79bbc083" x="231.552212" y="355.317083" style="fill-opacity: 0.180392"/>
    </g>
    <g clip-path="url(#p2dc2d6571d)">
     <use xlink:href="#C0_0_ea79bbc083" x="231.552212" y="338.997487" style="fill-opacity: 0.180392"/>
    </g>
    <g clip-path="url(#p2dc2d6571d)">
     <use xlink:href="#C0_0_ea79bbc083" x="231.552212" y="322.67789" style="fill-opacity: 0.180392"/>
    </g>
    <g clip-path="url(#p2dc2d6571d)">
     <use xlink:href="#C0_0_ea79bbc083" x="231.552212" y="306.358294" style="fill-opacity: 0.180392"/>
    </g>
    <g clip-path="url(#p2dc2d6571d)">
     <use xlink:href="#C0_0_ea79bbc083" x="254.925664" y="387.956275" style="fill: #001c7f; stroke: #001c7f"/>
    </g>
    <g clip-path="url(#p2dc2d6571d)">
     <use xlink:href="#C0_0_ea79bbc083" x="254.925664" y="371.636679" style="fill: #001c7f; stroke: #001c7f"/>
    </g>
    <g clip-path="url(#p2dc2d6571d)">
     <use xlink:href="#C0_0_ea79bbc083" x="254.925664" y="355.317083" style="fill-opacity: 0.180392"/>
    </g>
    <g clip-path="url(#p2dc2d6571d)">
     <use xlink:href="#C0_0_ea79bbc083" x="254.925664" y="338.997487" style="fill-opacity: 0.180392"/>
    </g>
    <g clip-path="url(#p2dc2d6571d)">
     <use xlink:href="#C0_0_ea79bbc083" x="254.925664" y="322.67789" style="fill-opacity: 0.180392"/>
    </g>
    <g clip-path="url(#p2dc2d6571d)">
     <use xlink:href="#C0_0_ea79bbc083" x="254.925664" y="306.358294" style="fill-opacity: 0.180392"/>
    </g>
    <g clip-path="url(#p2dc2d6571d)">
     <use xlink:href="#C0_0_ea79bbc083" x="278.299115" y="387.956275" style="fill: #001c7f; stroke: #001c7f"/>
    </g>
    <g clip-path="url(#p2dc2d6571d)">
     <use xlink:href="#C0_0_ea79bbc083" x="278.299115" y="371.636679" style="fill-opacity: 0.180392"/>
    </g>
    <g clip-path="url(#p2dc2d6571d)">
     <use xlink:href="#C0_0_ea79bbc083" x="278.299115" y="355.317083" style="fill: #001c7f; stroke: #001c7f"/>
    </g>
    <g clip-path="url(#p2dc2d6571d)">
     <use xlink:href="#C0_0_ea79bbc083" x="278.299115" y="338.997487" style="fill-opacity: 0.180392"/>
    </g>
    <g clip-path="url(#p2dc2d6571d)">
     <use xlink:href="#C0_0_ea79bbc083" x="278.299115" y="322.67789" style="fill-opacity: 0.180392"/>
    </g>
    <g clip-path="url(#p2dc2d6571d)">
     <use xlink:href="#C0_0_ea79bbc083" x="278.299115" y="306.358294" style="fill-opacity: 0.180392"/>
    </g>
    <g clip-path="url(#p2dc2d6571d)">
     <use xlink:href="#C0_0_ea79bbc083" x="301.672566" y="387.956275" style="fill-opacity: 0.180392"/>
    </g>
    <g clip-path="url(#p2dc2d6571d)">
     <use xlink:href="#C0_0_ea79bbc083" x="301.672566" y="371.636679" style="fill-opacity: 0.180392"/>
    </g>
    <g clip-path="url(#p2dc2d6571d)">
     <use xlink:href="#C0_0_ea79bbc083" x="301.672566" y="355.317083" style="fill-opacity: 0.180392"/>
    </g>
    <g clip-path="url(#p2dc2d6571d)">
     <use xlink:href="#C0_0_ea79bbc083" x="301.672566" y="338.997487" style="fill: #001c7f; stroke: #001c7f"/>
    </g>
    <g clip-path="url(#p2dc2d6571d)">
     <use xlink:href="#C0_0_ea79bbc083" x="301.672566" y="322.67789" style="fill-opacity: 0.180392"/>
    </g>
    <g clip-path="url(#p2dc2d6571d)">
     <use xlink:href="#C0_0_ea79bbc083" x="301.672566" y="306.358294" style="fill-opacity: 0.180392"/>
    </g>
    <g clip-path="url(#p2dc2d6571d)">
     <use xlink:href="#C0_0_ea79bbc083" x="325.046018" y="387.956275" style="fill-opacity: 0.180392"/>
    </g>
    <g clip-path="url(#p2dc2d6571d)">
     <use xlink:href="#C0_0_ea79bbc083" x="325.046018" y="371.636679" style="fill-opacity: 0.180392"/>
    </g>
    <g clip-path="url(#p2dc2d6571d)">
     <use xlink:href="#C0_0_ea79bbc083" x="325.046018" y="355.317083" style="fill: #001c7f; stroke: #001c7f"/>
    </g>
    <g clip-path="url(#p2dc2d6571d)">
     <use xlink:href="#C0_0_ea79bbc083" x="325.046018" y="338.997487" style="fill-opacity: 0.180392"/>
    </g>
    <g clip-path="url(#p2dc2d6571d)">
     <use xlink:href="#C0_0_ea79bbc083" x="325.046018" y="322.67789" style="fill-opacity: 0.180392"/>
    </g>
    <g clip-path="url(#p2dc2d6571d)">
     <use xlink:href="#C0_0_ea79bbc083" x="325.046018" y="306.358294" style="fill-opacity: 0.180392"/>
    </g>
    <g clip-path="url(#p2dc2d6571d)">
     <use xlink:href="#C0_0_ea79bbc083" x="348.419469" y="387.956275" style="fill: #001c7f; stroke: #001c7f"/>
    </g>
    <g clip-path="url(#p2dc2d6571d)">
     <use xlink:href="#C0_0_ea79bbc083" x="348.419469" y="371.636679" style="fill-opacity: 0.180392"/>
    </g>
    <g clip-path="url(#p2dc2d6571d)">
     <use xlink:href="#C0_0_ea79bbc083" x="348.419469" y="355.317083" style="fill-opacity: 0.180392"/>
    </g>
    <g clip-path="url(#p2dc2d6571d)">
     <use xlink:href="#C0_0_ea79bbc083" x="348.419469" y="338.997487" style="fill: #001c7f; stroke: #001c7f"/>
    </g>
    <g clip-path="url(#p2dc2d6571d)">
     <use xlink:href="#C0_0_ea79bbc083" x="348.419469" y="322.67789" style="fill-opacity: 0.180392"/>
    </g>
    <g clip-path="url(#p2dc2d6571d)">
     <use xlink:href="#C0_0_ea79bbc083" x="348.419469" y="306.358294" style="fill-opacity: 0.180392"/>
    </g>
    <g clip-path="url(#p2dc2d6571d)">
     <use xlink:href="#C0_0_ea79bbc083" x="371.79292" y="387.956275" style="fill-opacity: 0.180392"/>
    </g>
    <g clip-path="url(#p2dc2d6571d)">
     <use xlink:href="#C0_0_ea79bbc083" x="371.79292" y="371.636679" style="fill-opacity: 0.180392"/>
    </g>
    <g clip-path="url(#p2dc2d6571d)">
     <use xlink:href="#C0_0_ea79bbc083" x="371.79292" y="355.317083" style="fill-opacity: 0.180392"/>
    </g>
    <g clip-path="url(#p2dc2d6571d)">
     <use xlink:href="#C0_0_ea79bbc083" x="371.79292" y="338.997487" style="fill-opacity: 0.180392"/>
    </g>
    <g clip-path="url(#p2dc2d6571d)">
     <use xlink:href="#C0_0_ea79bbc083" x="371.79292" y="322.67789" style="fill: #001c7f; stroke: #001c7f"/>
    </g>
    <g clip-path="url(#p2dc2d6571d)">
     <use xlink:href="#C0_0_ea79bbc083" x="371.79292" y="306.358294" style="fill-opacity: 0.180392"/>
    </g>
    <g clip-path="url(#p2dc2d6571d)">
     <use xlink:href="#C0_0_ea79bbc083" x="395.166372" y="387.956275" style="fill: #001c7f; stroke: #001c7f"/>
    </g>
    <g clip-path="url(#p2dc2d6571d)">
     <use xlink:href="#C0_0_ea79bbc083" x="395.166372" y="371.636679" style="fill-opacity: 0.180392"/>
    </g>
    <g clip-path="url(#p2dc2d6571d)">
     <use xlink:href="#C0_0_ea79bbc083" x="395.166372" y="355.317083" style="fill-opacity: 0.180392"/>
    </g>
    <g clip-path="url(#p2dc2d6571d)">
     <use xlink:href="#C0_0_ea79bbc083" x="395.166372" y="338.997487" style="fill-opacity: 0.180392"/>
    </g>
    <g clip-path="url(#p2dc2d6571d)">
     <use xlink:href="#C0_0_ea79bbc083" x="395.166372" y="322.67789" style="fill-opacity: 0.180392"/>
    </g>
    <g clip-path="url(#p2dc2d6571d)">
     <use xlink:href="#C0_0_ea79bbc083" x="395.166372" y="306.358294" style="fill: #001c7f; stroke: #001c7f"/>
    </g>
    <g clip-path="url(#p2dc2d6571d)">
     <use xlink:href="#C0_0_ea79bbc083" x="418.539823" y="387.956275" style="fill-opacity: 0.180392"/>
    </g>
    <g clip-path="url(#p2dc2d6571d)">
     <use xlink:href="#C0_0_ea79bbc083" x="418.539823" y="371.636679" style="fill-opacity: 0.180392"/>
    </g>
    <g clip-path="url(#p2dc2d6571d)">
     <use xlink:href="#C0_0_ea79bbc083" x="418.539823" y="355.317083" style="fill-opacity: 0.180392"/>
    </g>
    <g clip-path="url(#p2dc2d6571d)">
     <use xlink:href="#C0_0_ea79bbc083" x="418.539823" y="338.997487" style="fill-opacity: 0.180392"/>
    </g>
    <g clip-path="url(#p2dc2d6571d)">
     <use xlink:href="#C0_0_ea79bbc083" x="418.539823" y="322.67789" style="fill-opacity: 0.180392"/>
    </g>
    <g clip-path="url(#p2dc2d6571d)">
     <use xlink:href="#C0_0_ea79bbc083" x="418.539823" y="306.358294" style="fill: #001c7f; stroke: #001c7f"/>
    </g>
    <g clip-path="url(#p2dc2d6571d)">
     <use xlink:href="#C0_0_ea79bbc083" x="441.913274" y="387.956275" style="fill-opacity: 0.180392"/>
    </g>
    <g clip-path="url(#p2dc2d6571d)">
     <use xlink:href="#C0_0_ea79bbc083" x="441.913274" y="371.636679" style="fill: #001c7f; stroke: #001c7f"/>
    </g>
    <g clip-path="url(#p2dc2d6571d)">
     <use xlink:href="#C0_0_ea79bbc083" x="441.913274" y="355.317083" style="fill: #001c7f; stroke: #001c7f"/>
    </g>
    <g clip-path="url(#p2dc2d6571d)">
     <use xlink:href="#C0_0_ea79bbc083" x="441.913274" y="338.997487" style="fill-opacity: 0.180392"/>
    </g>
    <g clip-path="url(#p2dc2d6571d)">
     <use xlink:href="#C0_0_ea79bbc083" x="441.913274" y="322.67789" style="fill-opacity: 0.180392"/>
    </g>
    <g clip-path="url(#p2dc2d6571d)">
     <use xlink:href="#C0_0_ea79bbc083" x="441.913274" y="306.358294" style="fill-opacity: 0.180392"/>
    </g>
   </g>
  </g>
  <g id="axes_3">
   <g id="matplotlib.axis_4">
    <g id="xtick_1">
     <g id="line2d_7">
      <path d="M 50.654867 399.216797 
L 50.654867 295.097772 
" clip-path="url(#pefae3e4ddf)" style="fill: none; stroke: #cccccc; stroke-linecap: round"/>
     </g>
     <g id="line2d_8">
      <defs>
       <path id="mda89a36ccc" d="M 0 0 
L 0 6 
" style="stroke: #262626; stroke-width: 1.25"/>
      </defs>
      <g>
       <use xlink:href="#mda89a36ccc" x="50.654867" y="399.216797" style="fill: #262626; stroke: #262626; stroke-width: 1.25"/>
      </g>
     </g>
     <g id="text_7">
      <!-- 0 -->
      <g style="fill: #262626" transform="translate(47.596352 416.590391) scale(0.11 -0.11)">
       <defs>
        <path id="ArialMT-30" d="M 266 2259 
Q 266 3072 433 3567 
Q 600 4063 929 4331 
Q 1259 4600 1759 4600 
Q 2128 4600 2406 4451 
Q 2684 4303 2865 4023 
Q 3047 3744 3150 3342 
Q 3253 2941 3253 2259 
Q 3253 1453 3087 958 
Q 2922 463 2592 192 
Q 2263 -78 1759 -78 
Q 1097 -78 719 397 
Q 266 969 266 2259 
z
M 844 2259 
Q 844 1131 1108 757 
Q 1372 384 1759 384 
Q 2147 384 2411 759 
Q 2675 1134 2675 2259 
Q 2675 3391 2411 3762 
Q 2147 4134 1753 4134 
Q 1366 4134 1134 3806 
Q 844 3388 844 2259 
z
" transform="scale(0.015625)"/>
       </defs>
       <use xlink:href="#ArialMT-30"/>
      </g>
     </g>
    </g>
    <g id="xtick_2">
     <g id="line2d_9">
      <path d="M 25.964602 399.216797 
L 25.964602 295.097772 
" clip-path="url(#pefae3e4ddf)" style="fill: none; stroke: #cccccc; stroke-linecap: round"/>
     </g>
     <g id="line2d_10">
      <g>
       <use xlink:href="#mda89a36ccc" x="25.964602" y="399.216797" style="fill: #262626; stroke: #262626; stroke-width: 1.25"/>
      </g>
     </g>
     <g id="text_8">
      <!-- 100 -->
      <g style="fill: #262626" transform="translate(16.789055 416.590391) scale(0.11 -0.11)">
       <defs>
        <path id="ArialMT-31" d="M 2384 0 
L 1822 0 
L 1822 3584 
Q 1619 3391 1289 3197 
Q 959 3003 697 2906 
L 697 3450 
Q 1169 3672 1522 3987 
Q 1875 4303 2022 4600 
L 2384 4600 
L 2384 0 
z
" transform="scale(0.015625)"/>
       </defs>
       <use xlink:href="#ArialMT-31"/>
       <use xlink:href="#ArialMT-30" x="55.615234"/>
       <use xlink:href="#ArialMT-30" x="111.230469"/>
      </g>
     </g>
    </g>
   </g>
   <g id="patch_8">
    <path d="M 50.654867 392.036175 
L 7.2 392.036175 
L 7.2 383.876376 
L 50.654867 383.876376 
z
" clip-path="url(#pefae3e4ddf)" style="stroke: #000000; stroke-linejoin: miter"/>
   </g>
   <g id="patch_9">
    <path d="M 50.654867 375.716578 
L 44.976106 375.716578 
L 44.976106 367.55678 
L 50.654867 367.55678 
z
" clip-path="url(#pefae3e4ddf)" style="stroke: #000000; stroke-linejoin: miter"/>
   </g>
   <g id="patch_10">
    <path d="M 50.654867 359.396982 
L 47.692035 359.396982 
L 47.692035 351.237184 
L 50.654867 351.237184 
z
" clip-path="url(#pefae3e4ddf)" style="stroke: #000000; stroke-linejoin: miter"/>
   </g>
   <g id="patch_11">
    <path d="M 50.654867 343.077386 
L 48.185841 343.077386 
L 48.185841 334.917587 
L 50.654867 334.917587 
z
" clip-path="url(#pefae3e4ddf)" style="stroke: #000000; stroke-linejoin: miter"/>
   </g>
   <g id="patch_12">
    <path d="M 50.654867 326.757789 
L 49.667257 326.757789 
L 49.667257 318.597991 
L 50.654867 318.597991 
z
" clip-path="url(#pefae3e4ddf)" style="stroke: #000000; stroke-linejoin: miter"/>
   </g>
   <g id="patch_13">
    <path d="M 50.654867 310.438193 
L 49.914159 310.438193 
L 49.914159 302.278395 
L 50.654867 302.278395 
z
" clip-path="url(#pefae3e4ddf)" style="stroke: #000000; stroke-linejoin: miter"/>
   </g>
   <g id="patch_14">
    <path d="M 7.2 399.216797 
L 50.654867 399.216797 
" style="fill: none; stroke: #262626; stroke-width: 1.25; stroke-linejoin: miter; stroke-linecap: square"/>
   </g>
  </g>
  <g id="axes_4">
   <g id="patch_15">
    <path d="M 173.118584 285.632407 
L 453.6 285.632407 
L 453.6 11.136797 
L 173.118584 11.136797 
z
" style="fill: #ffffff"/>
   </g>
   <g id="matplotlib.axis_5">
    <g id="ytick_13">
     <g id="line2d_11">
      <defs>
       <path id="m1fae6ab4fe" d="M 0 0 
L -6 0 
" style="stroke: #262626; stroke-width: 1.25"/>
      </defs>
      <g>
       <use xlink:href="#m1fae6ab4fe" x="173.118584" y="285.632407" style="fill: #262626; stroke: #262626; stroke-width: 1.25"/>
      </g>
     </g>
     <g id="text_9">
      <!-- 0 -->
      <g style="fill: #262626" transform="translate(157.501553 289.569204) scale(0.11 -0.11)">
       <use xlink:href="#ArialMT-30"/>
      </g>
     </g>
    </g>
    <g id="ytick_14">
     <g id="line2d_12">
      <g>
       <use xlink:href="#m1fae6ab4fe" x="173.118584" y="239.883138" style="fill: #262626; stroke: #262626; stroke-width: 1.25"/>
      </g>
     </g>
     <g id="text_10">
      <!-- 50 -->
      <g style="fill: #262626" transform="translate(151.384522 243.819935) scale(0.11 -0.11)">
       <defs>
        <path id="ArialMT-35" d="M 266 1200 
L 856 1250 
Q 922 819 1161 601 
Q 1400 384 1738 384 
Q 2144 384 2425 690 
Q 2706 997 2706 1503 
Q 2706 1984 2436 2262 
Q 2166 2541 1728 2541 
Q 1456 2541 1237 2417 
Q 1019 2294 894 2097 
L 366 2166 
L 809 4519 
L 3088 4519 
L 3088 3981 
L 1259 3981 
L 1013 2750 
Q 1425 3038 1878 3038 
Q 2478 3038 2890 2622 
Q 3303 2206 3303 1553 
Q 3303 931 2941 478 
Q 2500 -78 1738 -78 
Q 1113 -78 717 272 
Q 322 622 266 1200 
z
" transform="scale(0.015625)"/>
       </defs>
       <use xlink:href="#ArialMT-35"/>
       <use xlink:href="#ArialMT-30" x="55.615234"/>
      </g>
     </g>
    </g>
    <g id="ytick_15">
     <g id="line2d_13">
      <g>
       <use xlink:href="#m1fae6ab4fe" x="173.118584" y="194.13387" style="fill: #262626; stroke: #262626; stroke-width: 1.25"/>
      </g>
     </g>
     <g id="text_11">
      <!-- 100 -->
      <g style="fill: #262626" transform="translate(145.26749 198.070667) scale(0.11 -0.11)">
       <use xlink:href="#ArialMT-31"/>
       <use xlink:href="#ArialMT-30" x="55.615234"/>
       <use xlink:href="#ArialMT-30" x="111.230469"/>
      </g>
     </g>
    </g>
    <g id="ytick_16">
     <g id="line2d_14">
      <g>
       <use xlink:href="#m1fae6ab4fe" x="173.118584" y="148.384602" style="fill: #262626; stroke: #262626; stroke-width: 1.25"/>
      </g>
     </g>
     <g id="text_12">
      <!-- 150 -->
      <g style="fill: #262626" transform="translate(145.26749 152.321399) scale(0.11 -0.11)">
       <use xlink:href="#ArialMT-31"/>
       <use xlink:href="#ArialMT-35" x="55.615234"/>
       <use xlink:href="#ArialMT-30" x="111.230469"/>
      </g>
     </g>
    </g>
    <g id="ytick_17">
     <g id="line2d_15">
      <g>
       <use xlink:href="#m1fae6ab4fe" x="173.118584" y="102.635333" style="fill: #262626; stroke: #262626; stroke-width: 1.25"/>
      </g>
     </g>
     <g id="text_13">
      <!-- 200 -->
      <g style="fill: #262626" transform="translate(145.26749 106.57213) scale(0.11 -0.11)">
       <defs>
        <path id="ArialMT-32" d="M 3222 541 
L 3222 0 
L 194 0 
Q 188 203 259 391 
Q 375 700 629 1000 
Q 884 1300 1366 1694 
Q 2113 2306 2375 2664 
Q 2638 3022 2638 3341 
Q 2638 3675 2398 3904 
Q 2159 4134 1775 4134 
Q 1369 4134 1125 3890 
Q 881 3647 878 3216 
L 300 3275 
Q 359 3922 746 4261 
Q 1134 4600 1788 4600 
Q 2447 4600 2831 4234 
Q 3216 3869 3216 3328 
Q 3216 3053 3103 2787 
Q 2991 2522 2730 2228 
Q 2469 1934 1863 1422 
Q 1356 997 1212 845 
Q 1069 694 975 541 
L 3222 541 
z
" transform="scale(0.015625)"/>
       </defs>
       <use xlink:href="#ArialMT-32"/>
       <use xlink:href="#ArialMT-30" x="55.615234"/>
       <use xlink:href="#ArialMT-30" x="111.230469"/>
      </g>
     </g>
    </g>
    <g id="ytick_18">
     <g id="line2d_16">
      <g>
       <use xlink:href="#m1fae6ab4fe" x="173.118584" y="56.886065" style="fill: #262626; stroke: #262626; stroke-width: 1.25"/>
      </g>
     </g>
     <g id="text_14">
      <!-- 250 -->
      <g style="fill: #262626" transform="translate(145.26749 60.822862) scale(0.11 -0.11)">
       <use xlink:href="#ArialMT-32"/>
       <use xlink:href="#ArialMT-35" x="55.615234"/>
       <use xlink:href="#ArialMT-30" x="111.230469"/>
      </g>
     </g>
    </g>
    <g id="ytick_19">
     <g id="line2d_17">
      <g>
       <use xlink:href="#m1fae6ab4fe" x="173.118584" y="11.136797" style="fill: #262626; stroke: #262626; stroke-width: 1.25"/>
      </g>
     </g>
     <g id="text_15">
      <!-- 300 -->
      <g style="fill: #262626" transform="translate(145.26749 15.073594) scale(0.11 -0.11)">
       <defs>
        <path id="ArialMT-33" d="M 269 1209 
L 831 1284 
Q 928 806 1161 595 
Q 1394 384 1728 384 
Q 2125 384 2398 659 
Q 2672 934 2672 1341 
Q 2672 1728 2419 1979 
Q 2166 2231 1775 2231 
Q 1616 2231 1378 2169 
L 1441 2663 
Q 1497 2656 1531 2656 
Q 1891 2656 2178 2843 
Q 2466 3031 2466 3422 
Q 2466 3731 2256 3934 
Q 2047 4138 1716 4138 
Q 1388 4138 1169 3931 
Q 950 3725 888 3313 
L 325 3413 
Q 428 3978 793 4289 
Q 1159 4600 1703 4600 
Q 2078 4600 2393 4439 
Q 2709 4278 2876 4000 
Q 3044 3722 3044 3409 
Q 3044 3113 2884 2869 
Q 2725 2625 2413 2481 
Q 2819 2388 3044 2092 
Q 3269 1797 3269 1353 
Q 3269 753 2831 336 
Q 2394 -81 1725 -81 
Q 1122 -81 723 278 
Q 325 638 269 1209 
z
" transform="scale(0.015625)"/>
       </defs>
       <use xlink:href="#ArialMT-33"/>
       <use xlink:href="#ArialMT-30" x="55.615234"/>
       <use xlink:href="#ArialMT-30" x="111.230469"/>
      </g>
     </g>
    </g>
    <g id="text_16">
     <!-- Intersection size -->
     <g style="fill: #262626" transform="translate(138.88249 191.735539) rotate(-90) scale(0.12 -0.12)">
      <defs>
       <path id="ArialMT-49" d="M 597 0 
L 597 4581 
L 1203 4581 
L 1203 0 
L 597 0 
z
" transform="scale(0.015625)"/>
       <path id="ArialMT-63" d="M 2588 1216 
L 3141 1144 
Q 3050 572 2676 248 
Q 2303 -75 1759 -75 
Q 1078 -75 664 370 
Q 250 816 250 1647 
Q 250 2184 428 2587 
Q 606 2991 970 3192 
Q 1334 3394 1763 3394 
Q 2303 3394 2647 3120 
Q 2991 2847 3088 2344 
L 2541 2259 
Q 2463 2594 2264 2762 
Q 2066 2931 1784 2931 
Q 1359 2931 1093 2626 
Q 828 2322 828 1663 
Q 828 994 1084 691 
Q 1341 388 1753 388 
Q 2084 388 2306 591 
Q 2528 794 2588 1216 
z
" transform="scale(0.015625)"/>
       <path id="ArialMT-7a" d="M 125 0 
L 125 456 
L 2238 2881 
Q 1878 2863 1603 2863 
L 250 2863 
L 250 3319 
L 2963 3319 
L 2963 2947 
L 1166 841 
L 819 456 
Q 1197 484 1528 484 
L 3063 484 
L 3063 0 
L 125 0 
z
" transform="scale(0.015625)"/>
      </defs>
      <use xlink:href="#ArialMT-49"/>
      <use xlink:href="#ArialMT-6e" x="27.783203"/>
      <use xlink:href="#ArialMT-74" x="83.398438"/>
      <use xlink:href="#ArialMT-65" x="111.181641"/>
      <use xlink:href="#ArialMT-72" x="166.796875"/>
      <use xlink:href="#ArialMT-73" x="200.097656"/>
      <use xlink:href="#ArialMT-65" x="250.097656"/>
      <use xlink:href="#ArialMT-63" x="305.712891"/>
      <use xlink:href="#ArialMT-74" x="355.712891"/>
      <use xlink:href="#ArialMT-69" x="383.496094"/>
      <use xlink:href="#ArialMT-6f" x="405.712891"/>
      <use xlink:href="#ArialMT-6e" x="461.328125"/>
      <use xlink:href="#ArialMT-20" x="516.943359"/>
      <use xlink:href="#ArialMT-73" x="544.726562"/>
      <use xlink:href="#ArialMT-69" x="594.726562"/>
      <use xlink:href="#ArialMT-7a" x="616.943359"/>
      <use xlink:href="#ArialMT-65" x="666.943359"/>
     </g>
    </g>
   </g>
   <g id="patch_16">
    <path d="M 173.118584 285.632407 
L 173.118584 11.136797 
" style="fill: none; stroke: #262626; stroke-width: 1.25; stroke-linejoin: miter; stroke-linecap: square"/>
   </g>
   <g id="patch_17">
    <path d="M 178.961947 285.632407 
L 190.648673 285.632407 
L 190.648673 85.250612 
L 178.961947 85.250612 
z
" clip-path="url(#pe14bc7b893)" style="fill: #001c7f; stroke: #001c7f; stroke-linejoin: miter"/>
   </g>
   <g id="patch_18">
    <path d="M 202.335398 285.632407 
L 214.022124 285.632407 
L 214.022124 145.639646 
L 202.335398 145.639646 
z
" clip-path="url(#pe14bc7b893)" style="fill: #001c7f; stroke: #001c7f; stroke-linejoin: miter"/>
   </g>
   <g id="patch_19">
    <path d="M 225.70885 285.632407 
L 237.395575 285.632407 
L 237.395575 274.652582 
L 225.70885 274.652582 
z
" clip-path="url(#pe14bc7b893)" style="fill: #001c7f; stroke: #001c7f; stroke-linejoin: miter"/>
   </g>
   <g id="patch_20">
    <path d="M 249.082301 285.632407 
L 260.769027 285.632407 
L 260.769027 276.482553 
L 249.082301 276.482553 
z
" clip-path="url(#pe14bc7b893)" style="fill: #001c7f; stroke: #001c7f; stroke-linejoin: miter"/>
   </g>
   <g id="patch_21">
    <path d="M 272.455752 285.632407 
L 284.142478 285.632407 
L 284.142478 279.227509 
L 272.455752 279.227509 
z
" clip-path="url(#pe14bc7b893)" style="fill: #001c7f; stroke: #001c7f; stroke-linejoin: miter"/>
   </g>
   <g id="patch_22">
    <path d="M 295.829204 285.632407 
L 307.515929 285.632407 
L 307.515929 280.142494 
L 295.829204 280.142494 
z
" clip-path="url(#pe14bc7b893)" style="fill: #001c7f; stroke: #001c7f; stroke-linejoin: miter"/>
   </g>
   <g id="patch_23">
    <path d="M 319.202655 285.632407 
L 330.889381 285.632407 
L 330.889381 281.972465 
L 319.202655 281.972465 
z
" clip-path="url(#pe14bc7b893)" style="fill: #001c7f; stroke: #001c7f; stroke-linejoin: miter"/>
   </g>
   <g id="patch_24">
    <path d="M 342.576106 285.632407 
L 354.262832 285.632407 
L 354.262832 281.972465 
L 342.576106 281.972465 
z
" clip-path="url(#pe14bc7b893)" style="fill: #001c7f; stroke: #001c7f; stroke-linejoin: miter"/>
   </g>
   <g id="patch_25">
    <path d="M 365.949558 285.632407 
L 377.636283 285.632407 
L 377.636283 281.972465 
L 365.949558 281.972465 
z
" clip-path="url(#pe14bc7b893)" style="fill: #001c7f; stroke: #001c7f; stroke-linejoin: miter"/>
   </g>
   <g id="patch_26">
    <path d="M 389.323009 285.632407 
L 401.009735 285.632407 
L 401.009735 283.802436 
L 389.323009 283.802436 
z
" clip-path="url(#pe14bc7b893)" style="fill: #001c7f; stroke: #001c7f; stroke-linejoin: miter"/>
   </g>
   <g id="patch_27">
    <path d="M 412.69646 285.632407 
L 424.383186 285.632407 
L 424.383186 284.717421 
L 412.69646 284.717421 
z
" clip-path="url(#pe14bc7b893)" style="fill: #001c7f; stroke: #001c7f; stroke-linejoin: miter"/>
   </g>
   <g id="patch_28">
    <path d="M 436.069912 285.632407 
L 447.756637 285.632407 
L 447.756637 284.717421 
L 436.069912 284.717421 
z
" clip-path="url(#pe14bc7b893)" style="fill: #001c7f; stroke: #001c7f; stroke-linejoin: miter"/>
   </g>
  </g>
 </g>
 <defs>
  <clipPath id="p37e1557a60">
   <rect x="7.2" y="295.097772" width="446.4" height="104.119024"/>
  </clipPath>
  <clipPath id="p2dc2d6571d">
   <rect x="173.118584" y="295.097772" width="280.481416" height="104.119024"/>
  </clipPath>
  <clipPath id="pefae3e4ddf">
   <rect x="7.2" y="295.097772" width="43.454867" height="104.119024"/>
  </clipPath>
  <clipPath id="pe14bc7b893">
   <rect x="173.118584" y="11.136797" width="280.481416" height="274.49561"/>
  </clipPath>
 </defs>
</svg>
