<?xml version="1.0" encoding="utf-8" standalone="no"?>
<!DOCTYPE svg PUBLIC "-//W3C//DTD SVG 1.1//EN"
  "http://www.w3.org/Graphics/SVG/1.1/DTD/svg11.dtd">
<svg xmlns:xlink="http://www.w3.org/1999/xlink" width="516.6pt" height="485.233906pt" viewBox="0 0 516.6 485.233906" xmlns="http://www.w3.org/2000/svg" version="1.1">
 <metadata>
  <rdf:RDF xmlns:dc="http://purl.org/dc/elements/1.1/" xmlns:cc="http://creativecommons.org/ns#" xmlns:rdf="http://www.w3.org/1999/02/22-rdf-syntax-ns#">
   <cc:Work>
    <dc:type rdf:resource="http://purl.org/dc/dcmitype/StillImage"/>
    <dc:date>2024-09-05T12:09:26.985332</dc:date>
    <dc:format>image/svg+xml</dc:format>
    <dc:creator>
     <cc:Agent>
      <dc:title>Matplotlib v3.7.1, https://matplotlib.org/</dc:title>
     </cc:Agent>
    </dc:creator>
   </cc:Work>
  </rdf:RDF>
 </metadata>
 <defs>
  <style type="text/css">*{stroke-linejoin: round; stroke-linecap: butt}</style>
 </defs>
 <g id="figure_1">
  <g id="patch_1">
   <path d="M 0 485.233906 
L 516.6 485.233906 
L 516.6 0 
L 0 0 
z
" style="fill: #ffffff"/>
  </g>
  <g id="axes_1">
   <g id="patch_2">
    <path d="M 7.2 450.321688 
L 509.4 450.321688 
L 509.4 435.400915 
L 7.2 435.400915 
z
" clip-path="url(#p3adf6df5e8)" style="fill-opacity: 0.05098"/>
   </g>
   <g id="patch_3">
    <path d="M 7.2 431.670721 
L 509.4 431.670721 
L 509.4 416.749947 
L 7.2 416.749947 
L 7.2 431.670721 
z
" clip-path="url(#p3adf6df5e8)" style="fill: none"/>
   </g>
   <g id="patch_4">
    <path d="M 7.2 413.019754 
L 509.4 413.019754 
L 509.4 398.09898 
L 7.2 398.09898 
z
" clip-path="url(#p3adf6df5e8)" style="fill-opacity: 0.05098"/>
   </g>
   <g id="patch_5">
    <path d="M 7.2 394.368787 
L 509.4 394.368787 
L 509.4 379.448013 
L 7.2 379.448013 
L 7.2 394.368787 
z
" clip-path="url(#p3adf6df5e8)" style="fill: none"/>
   </g>
   <g id="patch_6">
    <path d="M 7.2 375.717819 
L 509.4 375.717819 
L 509.4 360.797046 
L 7.2 360.797046 
z
" clip-path="url(#p3adf6df5e8)" style="fill-opacity: 0.05098"/>
   </g>
   <g id="patch_7">
    <path d="M 7.2 357.066852 
L 509.4 357.066852 
L 509.4 342.146079 
L 7.2 342.146079 
L 7.2 357.066852 
z
" clip-path="url(#p3adf6df5e8)" style="fill: none"/>
   </g>
   <g id="matplotlib.axis_1"/>
   <g id="matplotlib.axis_2">
    <g id="ytick_1"/>
    <g id="ytick_2"/>
    <g id="ytick_3"/>
    <g id="ytick_4"/>
    <g id="ytick_5"/>
    <g id="ytick_6"/>
   </g>
  </g>
  <g id="axes_2">
   <g id="matplotlib.axis_3">
    <g id="ytick_7">
     <g id="line2d_1"/>
     <g id="text_1">
      <!-- memory loss -->
      <g style="fill: #262626" transform="translate(76.285425 447.87177) scale(0.14 -0.14)">
       <defs>
        <path id="ArialMT-6d" d="M 422 0 
L 422 3319 
L 925 3319 
L 925 2853 
Q 1081 3097 1340 3245 
Q 1600 3394 1931 3394 
Q 2300 3394 2536 3241 
Q 2772 3088 2869 2813 
Q 3263 3394 3894 3394 
Q 4388 3394 4653 3120 
Q 4919 2847 4919 2278 
L 4919 0 
L 4359 0 
L 4359 2091 
Q 4359 2428 4304 2576 
Q 4250 2725 4106 2815 
Q 3963 2906 3769 2906 
Q 3419 2906 3187 2673 
Q 2956 2441 2956 1928 
L 2956 0 
L 2394 0 
L 2394 2156 
Q 2394 2531 2256 2718 
Q 2119 2906 1806 2906 
Q 1569 2906 1367 2781 
Q 1166 2656 1075 2415 
Q 984 2175 984 1722 
L 984 0 
L 422 0 
z
" transform="scale(0.015625)"/>
        <path id="ArialMT-65" d="M 2694 1069 
L 3275 997 
Q 3138 488 2766 206 
Q 2394 -75 1816 -75 
Q 1088 -75 661 373 
Q 234 822 234 1631 
Q 234 2469 665 2931 
Q 1097 3394 1784 3394 
Q 2450 3394 2872 2941 
Q 3294 2488 3294 1666 
Q 3294 1616 3291 1516 
L 816 1516 
Q 847 969 1125 678 
Q 1403 388 1819 388 
Q 2128 388 2347 550 
Q 2566 713 2694 1069 
z
M 847 1978 
L 2700 1978 
Q 2663 2397 2488 2606 
Q 2219 2931 1791 2931 
Q 1403 2931 1139 2672 
Q 875 2413 847 1978 
z
" transform="scale(0.015625)"/>
        <path id="ArialMT-6f" d="M 213 1659 
Q 213 2581 725 3025 
Q 1153 3394 1769 3394 
Q 2453 3394 2887 2945 
Q 3322 2497 3322 1706 
Q 3322 1066 3130 698 
Q 2938 331 2570 128 
Q 2203 -75 1769 -75 
Q 1072 -75 642 372 
Q 213 819 213 1659 
z
M 791 1659 
Q 791 1022 1069 705 
Q 1347 388 1769 388 
Q 2188 388 2466 706 
Q 2744 1025 2744 1678 
Q 2744 2294 2464 2611 
Q 2184 2928 1769 2928 
Q 1347 2928 1069 2612 
Q 791 2297 791 1659 
z
" transform="scale(0.015625)"/>
        <path id="ArialMT-72" d="M 416 0 
L 416 3319 
L 922 3319 
L 922 2816 
Q 1116 3169 1280 3281 
Q 1444 3394 1641 3394 
Q 1925 3394 2219 3213 
L 2025 2691 
Q 1819 2813 1613 2813 
Q 1428 2813 1281 2702 
Q 1134 2591 1072 2394 
Q 978 2094 978 1738 
L 978 0 
L 416 0 
z
" transform="scale(0.015625)"/>
        <path id="ArialMT-79" d="M 397 -1278 
L 334 -750 
Q 519 -800 656 -800 
Q 844 -800 956 -737 
Q 1069 -675 1141 -563 
Q 1194 -478 1313 -144 
Q 1328 -97 1363 -6 
L 103 3319 
L 709 3319 
L 1400 1397 
Q 1534 1031 1641 628 
Q 1738 1016 1872 1384 
L 2581 3319 
L 3144 3319 
L 1881 -56 
Q 1678 -603 1566 -809 
Q 1416 -1088 1222 -1217 
Q 1028 -1347 759 -1347 
Q 597 -1347 397 -1278 
z
" transform="scale(0.015625)"/>
        <path id="ArialMT-20" transform="scale(0.015625)"/>
        <path id="ArialMT-6c" d="M 409 0 
L 409 4581 
L 972 4581 
L 972 0 
L 409 0 
z
" transform="scale(0.015625)"/>
        <path id="ArialMT-73" d="M 197 991 
L 753 1078 
Q 800 744 1014 566 
Q 1228 388 1613 388 
Q 2000 388 2187 545 
Q 2375 703 2375 916 
Q 2375 1106 2209 1216 
Q 2094 1291 1634 1406 
Q 1016 1563 777 1677 
Q 538 1791 414 1992 
Q 291 2194 291 2438 
Q 291 2659 392 2848 
Q 494 3038 669 3163 
Q 800 3259 1026 3326 
Q 1253 3394 1513 3394 
Q 1903 3394 2198 3281 
Q 2494 3169 2634 2976 
Q 2775 2784 2828 2463 
L 2278 2388 
Q 2241 2644 2061 2787 
Q 1881 2931 1553 2931 
Q 1166 2931 1000 2803 
Q 834 2675 834 2503 
Q 834 2394 903 2306 
Q 972 2216 1119 2156 
Q 1203 2125 1616 2013 
Q 2213 1853 2448 1751 
Q 2684 1650 2818 1456 
Q 2953 1263 2953 975 
Q 2953 694 2789 445 
Q 2625 197 2315 61 
Q 2006 -75 1616 -75 
Q 969 -75 630 194 
Q 291 463 197 991 
z
" transform="scale(0.015625)"/>
       </defs>
       <use xlink:href="#ArialMT-6d"/>
       <use xlink:href="#ArialMT-65" x="83.300781"/>
       <use xlink:href="#ArialMT-6d" x="138.916016"/>
       <use xlink:href="#ArialMT-6f" x="222.216797"/>
       <use xlink:href="#ArialMT-72" x="277.832031"/>
       <use xlink:href="#ArialMT-79" x="311.132812"/>
       <use xlink:href="#ArialMT-20" x="361.132812"/>
       <use xlink:href="#ArialMT-6c" x="388.916016"/>
       <use xlink:href="#ArialMT-6f" x="411.132812"/>
       <use xlink:href="#ArialMT-73" x="466.748047"/>
       <use xlink:href="#ArialMT-73" x="516.748047"/>
      </g>
     </g>
    </g>
    <g id="ytick_8">
     <g id="line2d_2"/>
     <g id="text_2">
      <!-- Languange -->
      <g style="fill: #262626" transform="translate(85.558238 429.220803) scale(0.14 -0.14)">
       <defs>
        <path id="ArialMT-4c" d="M 469 0 
L 469 4581 
L 1075 4581 
L 1075 541 
L 3331 541 
L 3331 0 
L 469 0 
z
" transform="scale(0.015625)"/>
        <path id="ArialMT-61" d="M 2588 409 
Q 2275 144 1986 34 
Q 1697 -75 1366 -75 
Q 819 -75 525 192 
Q 231 459 231 875 
Q 231 1119 342 1320 
Q 453 1522 633 1644 
Q 813 1766 1038 1828 
Q 1203 1872 1538 1913 
Q 2219 1994 2541 2106 
Q 2544 2222 2544 2253 
Q 2544 2597 2384 2738 
Q 2169 2928 1744 2928 
Q 1347 2928 1158 2789 
Q 969 2650 878 2297 
L 328 2372 
Q 403 2725 575 2942 
Q 747 3159 1072 3276 
Q 1397 3394 1825 3394 
Q 2250 3394 2515 3294 
Q 2781 3194 2906 3042 
Q 3031 2891 3081 2659 
Q 3109 2516 3109 2141 
L 3109 1391 
Q 3109 606 3145 398 
Q 3181 191 3288 0 
L 2700 0 
Q 2613 175 2588 409 
z
M 2541 1666 
Q 2234 1541 1622 1453 
Q 1275 1403 1131 1340 
Q 988 1278 909 1158 
Q 831 1038 831 891 
Q 831 666 1001 516 
Q 1172 366 1500 366 
Q 1825 366 2078 508 
Q 2331 650 2450 897 
Q 2541 1088 2541 1459 
L 2541 1666 
z
" transform="scale(0.015625)"/>
        <path id="ArialMT-6e" d="M 422 0 
L 422 3319 
L 928 3319 
L 928 2847 
Q 1294 3394 1984 3394 
Q 2284 3394 2536 3286 
Q 2788 3178 2913 3003 
Q 3038 2828 3088 2588 
Q 3119 2431 3119 2041 
L 3119 0 
L 2556 0 
L 2556 2019 
Q 2556 2363 2490 2533 
Q 2425 2703 2258 2804 
Q 2091 2906 1866 2906 
Q 1506 2906 1245 2678 
Q 984 2450 984 1813 
L 984 0 
L 422 0 
z
" transform="scale(0.015625)"/>
        <path id="ArialMT-67" d="M 319 -275 
L 866 -356 
Q 900 -609 1056 -725 
Q 1266 -881 1628 -881 
Q 2019 -881 2231 -725 
Q 2444 -569 2519 -288 
Q 2563 -116 2559 434 
Q 2191 0 1641 0 
Q 956 0 581 494 
Q 206 988 206 1678 
Q 206 2153 378 2554 
Q 550 2956 876 3175 
Q 1203 3394 1644 3394 
Q 2231 3394 2613 2919 
L 2613 3319 
L 3131 3319 
L 3131 450 
Q 3131 -325 2973 -648 
Q 2816 -972 2473 -1159 
Q 2131 -1347 1631 -1347 
Q 1038 -1347 672 -1080 
Q 306 -813 319 -275 
z
M 784 1719 
Q 784 1066 1043 766 
Q 1303 466 1694 466 
Q 2081 466 2343 764 
Q 2606 1063 2606 1700 
Q 2606 2309 2336 2618 
Q 2066 2928 1684 2928 
Q 1309 2928 1046 2623 
Q 784 2319 784 1719 
z
" transform="scale(0.015625)"/>
        <path id="ArialMT-75" d="M 2597 0 
L 2597 488 
Q 2209 -75 1544 -75 
Q 1250 -75 995 37 
Q 741 150 617 320 
Q 494 491 444 738 
Q 409 903 409 1263 
L 409 3319 
L 972 3319 
L 972 1478 
Q 972 1038 1006 884 
Q 1059 663 1231 536 
Q 1403 409 1656 409 
Q 1909 409 2131 539 
Q 2353 669 2445 892 
Q 2538 1116 2538 1541 
L 2538 3319 
L 3100 3319 
L 3100 0 
L 2597 0 
z
" transform="scale(0.015625)"/>
       </defs>
       <use xlink:href="#ArialMT-4c"/>
       <use xlink:href="#ArialMT-61" x="55.615234"/>
       <use xlink:href="#ArialMT-6e" x="111.230469"/>
       <use xlink:href="#ArialMT-67" x="166.845703"/>
       <use xlink:href="#ArialMT-75" x="222.460938"/>
       <use xlink:href="#ArialMT-61" x="278.076172"/>
       <use xlink:href="#ArialMT-6e" x="333.691406"/>
       <use xlink:href="#ArialMT-67" x="389.306641"/>
       <use xlink:href="#ArialMT-65" x="444.921875"/>
      </g>
     </g>
    </g>
    <g id="ytick_9">
     <g id="line2d_3"/>
     <g id="text_3">
      <!-- Disorientation -->
      <g style="fill: #262626" transform="translate(70.031363 410.569836) scale(0.14 -0.14)">
       <defs>
        <path id="ArialMT-44" d="M 494 0 
L 494 4581 
L 2072 4581 
Q 2606 4581 2888 4516 
Q 3281 4425 3559 4188 
Q 3922 3881 4101 3404 
Q 4281 2928 4281 2316 
Q 4281 1794 4159 1391 
Q 4038 988 3847 723 
Q 3656 459 3429 307 
Q 3203 156 2883 78 
Q 2563 0 2147 0 
L 494 0 
z
M 1100 541 
L 2078 541 
Q 2531 541 2789 625 
Q 3047 709 3200 863 
Q 3416 1078 3536 1442 
Q 3656 1806 3656 2325 
Q 3656 3044 3420 3430 
Q 3184 3816 2847 3947 
Q 2603 4041 2063 4041 
L 1100 4041 
L 1100 541 
z
" transform="scale(0.015625)"/>
        <path id="ArialMT-69" d="M 425 3934 
L 425 4581 
L 988 4581 
L 988 3934 
L 425 3934 
z
M 425 0 
L 425 3319 
L 988 3319 
L 988 0 
L 425 0 
z
" transform="scale(0.015625)"/>
        <path id="ArialMT-74" d="M 1650 503 
L 1731 6 
Q 1494 -44 1306 -44 
Q 1000 -44 831 53 
Q 663 150 594 308 
Q 525 466 525 972 
L 525 2881 
L 113 2881 
L 113 3319 
L 525 3319 
L 525 4141 
L 1084 4478 
L 1084 3319 
L 1650 3319 
L 1650 2881 
L 1084 2881 
L 1084 941 
Q 1084 700 1114 631 
Q 1144 563 1211 522 
Q 1278 481 1403 481 
Q 1497 481 1650 503 
z
" transform="scale(0.015625)"/>
       </defs>
       <use xlink:href="#ArialMT-44"/>
       <use xlink:href="#ArialMT-69" x="72.216797"/>
       <use xlink:href="#ArialMT-73" x="94.433594"/>
       <use xlink:href="#ArialMT-6f" x="144.433594"/>
       <use xlink:href="#ArialMT-72" x="200.048828"/>
       <use xlink:href="#ArialMT-69" x="233.349609"/>
       <use xlink:href="#ArialMT-65" x="255.566406"/>
       <use xlink:href="#ArialMT-6e" x="311.181641"/>
       <use xlink:href="#ArialMT-74" x="366.796875"/>
       <use xlink:href="#ArialMT-61" x="394.580078"/>
       <use xlink:href="#ArialMT-74" x="450.195312"/>
       <use xlink:href="#ArialMT-69" x="477.978516"/>
       <use xlink:href="#ArialMT-6f" x="500.195312"/>
       <use xlink:href="#ArialMT-6e" x="555.810547"/>
      </g>
     </g>
    </g>
    <g id="ytick_10">
     <g id="line2d_4"/>
     <g id="text_4">
      <!-- Confusion -->
      <g style="fill: #262626" transform="translate(92.588863 391.918869) scale(0.14 -0.14)">
       <defs>
        <path id="ArialMT-43" d="M 3763 1606 
L 4369 1453 
Q 4178 706 3683 314 
Q 3188 -78 2472 -78 
Q 1731 -78 1267 223 
Q 803 525 561 1097 
Q 319 1669 319 2325 
Q 319 3041 592 3573 
Q 866 4106 1370 4382 
Q 1875 4659 2481 4659 
Q 3169 4659 3637 4309 
Q 4106 3959 4291 3325 
L 3694 3184 
Q 3534 3684 3231 3912 
Q 2928 4141 2469 4141 
Q 1941 4141 1586 3887 
Q 1231 3634 1087 3207 
Q 944 2781 944 2328 
Q 944 1744 1114 1308 
Q 1284 872 1643 656 
Q 2003 441 2422 441 
Q 2931 441 3284 734 
Q 3638 1028 3763 1606 
z
" transform="scale(0.015625)"/>
        <path id="ArialMT-66" d="M 556 0 
L 556 2881 
L 59 2881 
L 59 3319 
L 556 3319 
L 556 3672 
Q 556 4006 616 4169 
Q 697 4388 901 4523 
Q 1106 4659 1475 4659 
Q 1713 4659 2000 4603 
L 1916 4113 
Q 1741 4144 1584 4144 
Q 1328 4144 1222 4034 
Q 1116 3925 1116 3625 
L 1116 3319 
L 1763 3319 
L 1763 2881 
L 1116 2881 
L 1116 0 
L 556 0 
z
" transform="scale(0.015625)"/>
       </defs>
       <use xlink:href="#ArialMT-43"/>
       <use xlink:href="#ArialMT-6f" x="72.216797"/>
       <use xlink:href="#ArialMT-6e" x="127.832031"/>
       <use xlink:href="#ArialMT-66" x="183.447266"/>
       <use xlink:href="#ArialMT-75" x="211.230469"/>
       <use xlink:href="#ArialMT-73" x="266.845703"/>
       <use xlink:href="#ArialMT-69" x="316.845703"/>
       <use xlink:href="#ArialMT-6f" x="339.0625"/>
       <use xlink:href="#ArialMT-6e" x="394.677734"/>
      </g>
     </g>
    </g>
    <g id="ytick_11">
     <g id="line2d_5"/>
     <g id="text_5">
      <!-- Impaired Vision -->
      <g style="fill: #262626" transform="translate(59.386988 373.267901) scale(0.14 -0.14)">
       <defs>
        <path id="ArialMT-49" d="M 597 0 
L 597 4581 
L 1203 4581 
L 1203 0 
L 597 0 
z
" transform="scale(0.015625)"/>
        <path id="ArialMT-70" d="M 422 -1272 
L 422 3319 
L 934 3319 
L 934 2888 
Q 1116 3141 1344 3267 
Q 1572 3394 1897 3394 
Q 2322 3394 2647 3175 
Q 2972 2956 3137 2557 
Q 3303 2159 3303 1684 
Q 3303 1175 3120 767 
Q 2938 359 2589 142 
Q 2241 -75 1856 -75 
Q 1575 -75 1351 44 
Q 1128 163 984 344 
L 984 -1272 
L 422 -1272 
z
M 931 1641 
Q 931 1000 1190 694 
Q 1450 388 1819 388 
Q 2194 388 2461 705 
Q 2728 1022 2728 1688 
Q 2728 2322 2467 2637 
Q 2206 2953 1844 2953 
Q 1484 2953 1207 2617 
Q 931 2281 931 1641 
z
" transform="scale(0.015625)"/>
        <path id="ArialMT-64" d="M 2575 0 
L 2575 419 
Q 2259 -75 1647 -75 
Q 1250 -75 917 144 
Q 584 363 401 755 
Q 219 1147 219 1656 
Q 219 2153 384 2558 
Q 550 2963 881 3178 
Q 1213 3394 1622 3394 
Q 1922 3394 2156 3267 
Q 2391 3141 2538 2938 
L 2538 4581 
L 3097 4581 
L 3097 0 
L 2575 0 
z
M 797 1656 
Q 797 1019 1065 703 
Q 1334 388 1700 388 
Q 2069 388 2326 689 
Q 2584 991 2584 1609 
Q 2584 2291 2321 2609 
Q 2059 2928 1675 2928 
Q 1300 2928 1048 2622 
Q 797 2316 797 1656 
z
" transform="scale(0.015625)"/>
        <path id="ArialMT-56" d="M 1803 0 
L 28 4581 
L 684 4581 
L 1875 1253 
Q 2019 853 2116 503 
Q 2222 878 2363 1253 
L 3600 4581 
L 4219 4581 
L 2425 0 
L 1803 0 
z
" transform="scale(0.015625)"/>
       </defs>
       <use xlink:href="#ArialMT-49"/>
       <use xlink:href="#ArialMT-6d" x="27.783203"/>
       <use xlink:href="#ArialMT-70" x="111.083984"/>
       <use xlink:href="#ArialMT-61" x="166.699219"/>
       <use xlink:href="#ArialMT-69" x="222.314453"/>
       <use xlink:href="#ArialMT-72" x="244.53125"/>
       <use xlink:href="#ArialMT-65" x="277.832031"/>
       <use xlink:href="#ArialMT-64" x="333.447266"/>
       <use xlink:href="#ArialMT-20" x="389.0625"/>
       <use xlink:href="#ArialMT-56" x="416.845703"/>
       <use xlink:href="#ArialMT-69" x="481.794922"/>
       <use xlink:href="#ArialMT-73" x="504.011719"/>
       <use xlink:href="#ArialMT-69" x="554.011719"/>
       <use xlink:href="#ArialMT-6f" x="576.228516"/>
       <use xlink:href="#ArialMT-6e" x="631.84375"/>
      </g>
     </g>
    </g>
    <g id="ytick_12">
     <g id="line2d_6"/>
     <g id="text_6">
      <!-- Other -->
      <g style="fill: #262626" transform="translate(120.615113 354.616934) scale(0.14 -0.14)">
       <defs>
        <path id="ArialMT-4f" d="M 309 2231 
Q 309 3372 921 4017 
Q 1534 4663 2503 4663 
Q 3138 4663 3647 4359 
Q 4156 4056 4423 3514 
Q 4691 2972 4691 2284 
Q 4691 1588 4409 1038 
Q 4128 488 3612 205 
Q 3097 -78 2500 -78 
Q 1853 -78 1343 234 
Q 834 547 571 1087 
Q 309 1628 309 2231 
z
M 934 2222 
Q 934 1394 1379 917 
Q 1825 441 2497 441 
Q 3181 441 3623 922 
Q 4066 1403 4066 2288 
Q 4066 2847 3877 3264 
Q 3688 3681 3323 3911 
Q 2959 4141 2506 4141 
Q 1863 4141 1398 3698 
Q 934 3256 934 2222 
z
" transform="scale(0.015625)"/>
        <path id="ArialMT-68" d="M 422 0 
L 422 4581 
L 984 4581 
L 984 2938 
Q 1378 3394 1978 3394 
Q 2347 3394 2619 3248 
Q 2891 3103 3008 2847 
Q 3125 2591 3125 2103 
L 3125 0 
L 2563 0 
L 2563 2103 
Q 2563 2525 2380 2717 
Q 2197 2909 1863 2909 
Q 1613 2909 1392 2779 
Q 1172 2650 1078 2428 
Q 984 2206 984 1816 
L 984 0 
L 422 0 
z
" transform="scale(0.015625)"/>
       </defs>
       <use xlink:href="#ArialMT-4f"/>
       <use xlink:href="#ArialMT-74" x="77.783203"/>
       <use xlink:href="#ArialMT-68" x="105.566406"/>
       <use xlink:href="#ArialMT-65" x="161.181641"/>
       <use xlink:href="#ArialMT-72" x="216.796875"/>
      </g>
     </g>
    </g>
   </g>
   <g id="LineCollection_1">
    <path d="M 171.635834 442.861301 
L 171.635834 442.861301 
" clip-path="url(#p1f972b4159)" style="fill: none; stroke: #001c7f; stroke-width: 2"/>
    <path d="M 196.655402 442.861301 
L 196.655402 424.210334 
" clip-path="url(#p1f972b4159)" style="fill: none; stroke: #001c7f; stroke-width: 2"/>
    <path d="M 221.67497 442.861301 
L 221.67497 405.559367 
" clip-path="url(#p1f972b4159)" style="fill: none; stroke: #001c7f; stroke-width: 2"/>
    <path d="M 246.694538 442.861301 
L 246.694538 386.9084 
" clip-path="url(#p1f972b4159)" style="fill: none; stroke: #001c7f; stroke-width: 2"/>
    <path d="M 271.714106 442.861301 
L 271.714106 368.257433 
" clip-path="url(#p1f972b4159)" style="fill: none; stroke: #001c7f; stroke-width: 2"/>
    <path d="M 296.733673 442.861301 
L 296.733673 405.559367 
" clip-path="url(#p1f972b4159)" style="fill: none; stroke: #001c7f; stroke-width: 2"/>
    <path d="M 321.753241 442.861301 
L 321.753241 386.9084 
" clip-path="url(#p1f972b4159)" style="fill: none; stroke: #001c7f; stroke-width: 2"/>
    <path d="M 346.772809 442.861301 
L 346.772809 349.606465 
" clip-path="url(#p1f972b4159)" style="fill: none; stroke: #001c7f; stroke-width: 2"/>
    <path d="M 371.792377 442.861301 
L 371.792377 349.606465 
" clip-path="url(#p1f972b4159)" style="fill: none; stroke: #001c7f; stroke-width: 2"/>
    <path d="M 396.811945 442.861301 
L 396.811945 386.9084 
" clip-path="url(#p1f972b4159)" style="fill: none; stroke: #001c7f; stroke-width: 2"/>
    <path d="M 421.831513 442.861301 
L 421.831513 368.257433 
" clip-path="url(#p1f972b4159)" style="fill: none; stroke: #001c7f; stroke-width: 2"/>
    <path d="M 446.85108 442.861301 
L 446.85108 349.606465 
" clip-path="url(#p1f972b4159)" style="fill: none; stroke: #001c7f; stroke-width: 2"/>
    <path d="M 471.870648 442.861301 
L 471.870648 349.606465 
" clip-path="url(#p1f972b4159)" style="fill: none; stroke: #001c7f; stroke-width: 2"/>
    <path d="M 496.890216 442.861301 
L 496.890216 386.9084 
" clip-path="url(#p1f972b4159)" style="fill: none; stroke: #001c7f; stroke-width: 2"/>
   </g>
   <g id="PathCollection_1">
    <defs>
     <path id="C0_0_454ec7c561" d="M 0 5.6 
C 1.485137 5.6 2.909647 5.009949 3.959798 3.959798 
C 5.009949 2.909647 5.6 1.485137 5.6 -0 
C 5.6 -1.485137 5.009949 -2.909647 3.959798 -3.959798 
C 2.909647 -5.009949 1.485137 -5.6 0 -5.6 
C -1.485137 -5.6 -2.909647 -5.009949 -3.959798 -3.959798 
C -5.009949 -2.909647 -5.6 -1.485137 -5.6 0 
C -5.6 1.485137 -5.009949 2.909647 -3.959798 3.959798 
C -2.909647 5.009949 -1.485137 5.6 0 5.6 
z
"/>
    </defs>
    <g clip-path="url(#p1f972b4159)">
     <use xlink:href="#C0_0_454ec7c561" x="171.635834" y="442.861301" style="fill: #001c7f; stroke: #001c7f"/>
    </g>
    <g clip-path="url(#p1f972b4159)">
     <use xlink:href="#C0_0_454ec7c561" x="171.635834" y="424.210334" style="fill-opacity: 0.180392"/>
    </g>
    <g clip-path="url(#p1f972b4159)">
     <use xlink:href="#C0_0_454ec7c561" x="171.635834" y="405.559367" style="fill-opacity: 0.180392"/>
    </g>
    <g clip-path="url(#p1f972b4159)">
     <use xlink:href="#C0_0_454ec7c561" x="171.635834" y="386.9084" style="fill-opacity: 0.180392"/>
    </g>
    <g clip-path="url(#p1f972b4159)">
     <use xlink:href="#C0_0_454ec7c561" x="171.635834" y="368.257433" style="fill-opacity: 0.180392"/>
    </g>
    <g clip-path="url(#p1f972b4159)">
     <use xlink:href="#C0_0_454ec7c561" x="171.635834" y="349.606465" style="fill-opacity: 0.180392"/>
    </g>
    <g clip-path="url(#p1f972b4159)">
     <use xlink:href="#C0_0_454ec7c561" x="196.655402" y="442.861301" style="fill: #001c7f; stroke: #001c7f"/>
    </g>
    <g clip-path="url(#p1f972b4159)">
     <use xlink:href="#C0_0_454ec7c561" x="196.655402" y="424.210334" style="fill: #001c7f; stroke: #001c7f"/>
    </g>
    <g clip-path="url(#p1f972b4159)">
     <use xlink:href="#C0_0_454ec7c561" x="196.655402" y="405.559367" style="fill-opacity: 0.180392"/>
    </g>
    <g clip-path="url(#p1f972b4159)">
     <use xlink:href="#C0_0_454ec7c561" x="196.655402" y="386.9084" style="fill-opacity: 0.180392"/>
    </g>
    <g clip-path="url(#p1f972b4159)">
     <use xlink:href="#C0_0_454ec7c561" x="196.655402" y="368.257433" style="fill-opacity: 0.180392"/>
    </g>
    <g clip-path="url(#p1f972b4159)">
     <use xlink:href="#C0_0_454ec7c561" x="196.655402" y="349.606465" style="fill-opacity: 0.180392"/>
    </g>
    <g clip-path="url(#p1f972b4159)">
     <use xlink:href="#C0_0_454ec7c561" x="221.67497" y="442.861301" style="fill: #001c7f; stroke: #001c7f"/>
    </g>
    <g clip-path="url(#p1f972b4159)">
     <use xlink:href="#C0_0_454ec7c561" x="221.67497" y="424.210334" style="fill-opacity: 0.180392"/>
    </g>
    <g clip-path="url(#p1f972b4159)">
     <use xlink:href="#C0_0_454ec7c561" x="221.67497" y="405.559367" style="fill: #001c7f; stroke: #001c7f"/>
    </g>
    <g clip-path="url(#p1f972b4159)">
     <use xlink:href="#C0_0_454ec7c561" x="221.67497" y="386.9084" style="fill-opacity: 0.180392"/>
    </g>
    <g clip-path="url(#p1f972b4159)">
     <use xlink:href="#C0_0_454ec7c561" x="221.67497" y="368.257433" style="fill-opacity: 0.180392"/>
    </g>
    <g clip-path="url(#p1f972b4159)">
     <use xlink:href="#C0_0_454ec7c561" x="221.67497" y="349.606465" style="fill-opacity: 0.180392"/>
    </g>
    <g clip-path="url(#p1f972b4159)">
     <use xlink:href="#C0_0_454ec7c561" x="246.694538" y="442.861301" style="fill: #001c7f; stroke: #001c7f"/>
    </g>
    <g clip-path="url(#p1f972b4159)">
     <use xlink:href="#C0_0_454ec7c561" x="246.694538" y="424.210334" style="fill-opacity: 0.180392"/>
    </g>
    <g clip-path="url(#p1f972b4159)">
     <use xlink:href="#C0_0_454ec7c561" x="246.694538" y="405.559367" style="fill-opacity: 0.180392"/>
    </g>
    <g clip-path="url(#p1f972b4159)">
     <use xlink:href="#C0_0_454ec7c561" x="246.694538" y="386.9084" style="fill: #001c7f; stroke: #001c7f"/>
    </g>
    <g clip-path="url(#p1f972b4159)">
     <use xlink:href="#C0_0_454ec7c561" x="246.694538" y="368.257433" style="fill-opacity: 0.180392"/>
    </g>
    <g clip-path="url(#p1f972b4159)">
     <use xlink:href="#C0_0_454ec7c561" x="246.694538" y="349.606465" style="fill-opacity: 0.180392"/>
    </g>
    <g clip-path="url(#p1f972b4159)">
     <use xlink:href="#C0_0_454ec7c561" x="271.714106" y="442.861301" style="fill: #001c7f; stroke: #001c7f"/>
    </g>
    <g clip-path="url(#p1f972b4159)">
     <use xlink:href="#C0_0_454ec7c561" x="271.714106" y="424.210334" style="fill-opacity: 0.180392"/>
    </g>
    <g clip-path="url(#p1f972b4159)">
     <use xlink:href="#C0_0_454ec7c561" x="271.714106" y="405.559367" style="fill-opacity: 0.180392"/>
    </g>
    <g clip-path="url(#p1f972b4159)">
     <use xlink:href="#C0_0_454ec7c561" x="271.714106" y="386.9084" style="fill-opacity: 0.180392"/>
    </g>
    <g clip-path="url(#p1f972b4159)">
     <use xlink:href="#C0_0_454ec7c561" x="271.714106" y="368.257433" style="fill: #001c7f; stroke: #001c7f"/>
    </g>
    <g clip-path="url(#p1f972b4159)">
     <use xlink:href="#C0_0_454ec7c561" x="271.714106" y="349.606465" style="fill-opacity: 0.180392"/>
    </g>
    <g clip-path="url(#p1f972b4159)">
     <use xlink:href="#C0_0_454ec7c561" x="296.733673" y="442.861301" style="fill: #001c7f; stroke: #001c7f"/>
    </g>
    <g clip-path="url(#p1f972b4159)">
     <use xlink:href="#C0_0_454ec7c561" x="296.733673" y="424.210334" style="fill: #001c7f; stroke: #001c7f"/>
    </g>
    <g clip-path="url(#p1f972b4159)">
     <use xlink:href="#C0_0_454ec7c561" x="296.733673" y="405.559367" style="fill: #001c7f; stroke: #001c7f"/>
    </g>
    <g clip-path="url(#p1f972b4159)">
     <use xlink:href="#C0_0_454ec7c561" x="296.733673" y="386.9084" style="fill-opacity: 0.180392"/>
    </g>
    <g clip-path="url(#p1f972b4159)">
     <use xlink:href="#C0_0_454ec7c561" x="296.733673" y="368.257433" style="fill-opacity: 0.180392"/>
    </g>
    <g clip-path="url(#p1f972b4159)">
     <use xlink:href="#C0_0_454ec7c561" x="296.733673" y="349.606465" style="fill-opacity: 0.180392"/>
    </g>
    <g clip-path="url(#p1f972b4159)">
     <use xlink:href="#C0_0_454ec7c561" x="321.753241" y="442.861301" style="fill: #001c7f; stroke: #001c7f"/>
    </g>
    <g clip-path="url(#p1f972b4159)">
     <use xlink:href="#C0_0_454ec7c561" x="321.753241" y="424.210334" style="fill-opacity: 0.180392"/>
    </g>
    <g clip-path="url(#p1f972b4159)">
     <use xlink:href="#C0_0_454ec7c561" x="321.753241" y="405.559367" style="fill: #001c7f; stroke: #001c7f"/>
    </g>
    <g clip-path="url(#p1f972b4159)">
     <use xlink:href="#C0_0_454ec7c561" x="321.753241" y="386.9084" style="fill: #001c7f; stroke: #001c7f"/>
    </g>
    <g clip-path="url(#p1f972b4159)">
     <use xlink:href="#C0_0_454ec7c561" x="321.753241" y="368.257433" style="fill-opacity: 0.180392"/>
    </g>
    <g clip-path="url(#p1f972b4159)">
     <use xlink:href="#C0_0_454ec7c561" x="321.753241" y="349.606465" style="fill-opacity: 0.180392"/>
    </g>
    <g clip-path="url(#p1f972b4159)">
     <use xlink:href="#C0_0_454ec7c561" x="346.772809" y="442.861301" style="fill: #001c7f; stroke: #001c7f"/>
    </g>
    <g clip-path="url(#p1f972b4159)">
     <use xlink:href="#C0_0_454ec7c561" x="346.772809" y="424.210334" style="fill-opacity: 0.180392"/>
    </g>
    <g clip-path="url(#p1f972b4159)">
     <use xlink:href="#C0_0_454ec7c561" x="346.772809" y="405.559367" style="fill-opacity: 0.180392"/>
    </g>
    <g clip-path="url(#p1f972b4159)">
     <use xlink:href="#C0_0_454ec7c561" x="346.772809" y="386.9084" style="fill-opacity: 0.180392"/>
    </g>
    <g clip-path="url(#p1f972b4159)">
     <use xlink:href="#C0_0_454ec7c561" x="346.772809" y="368.257433" style="fill-opacity: 0.180392"/>
    </g>
    <g clip-path="url(#p1f972b4159)">
     <use xlink:href="#C0_0_454ec7c561" x="346.772809" y="349.606465" style="fill: #001c7f; stroke: #001c7f"/>
    </g>
    <g clip-path="url(#p1f972b4159)">
     <use xlink:href="#C0_0_454ec7c561" x="371.792377" y="442.861301" style="fill: #001c7f; stroke: #001c7f"/>
    </g>
    <g clip-path="url(#p1f972b4159)">
     <use xlink:href="#C0_0_454ec7c561" x="371.792377" y="424.210334" style="fill: #001c7f; stroke: #001c7f"/>
    </g>
    <g clip-path="url(#p1f972b4159)">
     <use xlink:href="#C0_0_454ec7c561" x="371.792377" y="405.559367" style="fill-opacity: 0.180392"/>
    </g>
    <g clip-path="url(#p1f972b4159)">
     <use xlink:href="#C0_0_454ec7c561" x="371.792377" y="386.9084" style="fill-opacity: 0.180392"/>
    </g>
    <g clip-path="url(#p1f972b4159)">
     <use xlink:href="#C0_0_454ec7c561" x="371.792377" y="368.257433" style="fill-opacity: 0.180392"/>
    </g>
    <g clip-path="url(#p1f972b4159)">
     <use xlink:href="#C0_0_454ec7c561" x="371.792377" y="349.606465" style="fill: #001c7f; stroke: #001c7f"/>
    </g>
    <g clip-path="url(#p1f972b4159)">
     <use xlink:href="#C0_0_454ec7c561" x="396.811945" y="442.861301" style="fill: #001c7f; stroke: #001c7f"/>
    </g>
    <g clip-path="url(#p1f972b4159)">
     <use xlink:href="#C0_0_454ec7c561" x="396.811945" y="424.210334" style="fill: #001c7f; stroke: #001c7f"/>
    </g>
    <g clip-path="url(#p1f972b4159)">
     <use xlink:href="#C0_0_454ec7c561" x="396.811945" y="405.559367" style="fill-opacity: 0.180392"/>
    </g>
    <g clip-path="url(#p1f972b4159)">
     <use xlink:href="#C0_0_454ec7c561" x="396.811945" y="386.9084" style="fill: #001c7f; stroke: #001c7f"/>
    </g>
    <g clip-path="url(#p1f972b4159)">
     <use xlink:href="#C0_0_454ec7c561" x="396.811945" y="368.257433" style="fill-opacity: 0.180392"/>
    </g>
    <g clip-path="url(#p1f972b4159)">
     <use xlink:href="#C0_0_454ec7c561" x="396.811945" y="349.606465" style="fill-opacity: 0.180392"/>
    </g>
    <g clip-path="url(#p1f972b4159)">
     <use xlink:href="#C0_0_454ec7c561" x="421.831513" y="442.861301" style="fill: #001c7f; stroke: #001c7f"/>
    </g>
    <g clip-path="url(#p1f972b4159)">
     <use xlink:href="#C0_0_454ec7c561" x="421.831513" y="424.210334" style="fill: #001c7f; stroke: #001c7f"/>
    </g>
    <g clip-path="url(#p1f972b4159)">
     <use xlink:href="#C0_0_454ec7c561" x="421.831513" y="405.559367" style="fill-opacity: 0.180392"/>
    </g>
    <g clip-path="url(#p1f972b4159)">
     <use xlink:href="#C0_0_454ec7c561" x="421.831513" y="386.9084" style="fill-opacity: 0.180392"/>
    </g>
    <g clip-path="url(#p1f972b4159)">
     <use xlink:href="#C0_0_454ec7c561" x="421.831513" y="368.257433" style="fill: #001c7f; stroke: #001c7f"/>
    </g>
    <g clip-path="url(#p1f972b4159)">
     <use xlink:href="#C0_0_454ec7c561" x="421.831513" y="349.606465" style="fill-opacity: 0.180392"/>
    </g>
    <g clip-path="url(#p1f972b4159)">
     <use xlink:href="#C0_0_454ec7c561" x="446.85108" y="442.861301" style="fill: #001c7f; stroke: #001c7f"/>
    </g>
    <g clip-path="url(#p1f972b4159)">
     <use xlink:href="#C0_0_454ec7c561" x="446.85108" y="424.210334" style="fill-opacity: 0.180392"/>
    </g>
    <g clip-path="url(#p1f972b4159)">
     <use xlink:href="#C0_0_454ec7c561" x="446.85108" y="405.559367" style="fill: #001c7f; stroke: #001c7f"/>
    </g>
    <g clip-path="url(#p1f972b4159)">
     <use xlink:href="#C0_0_454ec7c561" x="446.85108" y="386.9084" style="fill-opacity: 0.180392"/>
    </g>
    <g clip-path="url(#p1f972b4159)">
     <use xlink:href="#C0_0_454ec7c561" x="446.85108" y="368.257433" style="fill: #001c7f; stroke: #001c7f"/>
    </g>
    <g clip-path="url(#p1f972b4159)">
     <use xlink:href="#C0_0_454ec7c561" x="446.85108" y="349.606465" style="fill: #001c7f; stroke: #001c7f"/>
    </g>
    <g clip-path="url(#p1f972b4159)">
     <use xlink:href="#C0_0_454ec7c561" x="471.870648" y="442.861301" style="fill: #001c7f; stroke: #001c7f"/>
    </g>
    <g clip-path="url(#p1f972b4159)">
     <use xlink:href="#C0_0_454ec7c561" x="471.870648" y="424.210334" style="fill-opacity: 0.180392"/>
    </g>
    <g clip-path="url(#p1f972b4159)">
     <use xlink:href="#C0_0_454ec7c561" x="471.870648" y="405.559367" style="fill-opacity: 0.180392"/>
    </g>
    <g clip-path="url(#p1f972b4159)">
     <use xlink:href="#C0_0_454ec7c561" x="471.870648" y="386.9084" style="fill: #001c7f; stroke: #001c7f"/>
    </g>
    <g clip-path="url(#p1f972b4159)">
     <use xlink:href="#C0_0_454ec7c561" x="471.870648" y="368.257433" style="fill-opacity: 0.180392"/>
    </g>
    <g clip-path="url(#p1f972b4159)">
     <use xlink:href="#C0_0_454ec7c561" x="471.870648" y="349.606465" style="fill: #001c7f; stroke: #001c7f"/>
    </g>
    <g clip-path="url(#p1f972b4159)">
     <use xlink:href="#C0_0_454ec7c561" x="496.890216" y="442.861301" style="fill: #001c7f; stroke: #001c7f"/>
    </g>
    <g clip-path="url(#p1f972b4159)">
     <use xlink:href="#C0_0_454ec7c561" x="496.890216" y="424.210334" style="fill: #001c7f; stroke: #001c7f"/>
    </g>
    <g clip-path="url(#p1f972b4159)">
     <use xlink:href="#C0_0_454ec7c561" x="496.890216" y="405.559367" style="fill: #001c7f; stroke: #001c7f"/>
    </g>
    <g clip-path="url(#p1f972b4159)">
     <use xlink:href="#C0_0_454ec7c561" x="496.890216" y="386.9084" style="fill: #001c7f; stroke: #001c7f"/>
    </g>
    <g clip-path="url(#p1f972b4159)">
     <use xlink:href="#C0_0_454ec7c561" x="496.890216" y="368.257433" style="fill-opacity: 0.180392"/>
    </g>
    <g clip-path="url(#p1f972b4159)">
     <use xlink:href="#C0_0_454ec7c561" x="496.890216" y="349.606465" style="fill-opacity: 0.180392"/>
    </g>
   </g>
  </g>
  <g id="axes_3">
   <g id="matplotlib.axis_4">
    <g id="xtick_1">
     <g id="line2d_7">
      <path d="M 53.621849 455.730469 
L 53.621849 336.737298 
" clip-path="url(#p30b46a92f0)" style="fill: none; stroke: #cccccc; stroke-linecap: round"/>
     </g>
     <g id="line2d_8">
      <defs>
       <path id="ma705d81c4d" d="M 0 0 
L 0 6 
" style="stroke: #262626; stroke-width: 1.25"/>
      </defs>
      <g>
       <use xlink:href="#ma705d81c4d" x="53.621849" y="455.730469" style="fill: #262626; stroke: #262626; stroke-width: 1.25"/>
      </g>
     </g>
     <g id="text_7">
      <!-- 0 -->
      <g style="fill: #262626" transform="translate(49.729192 475.251406) scale(0.14 -0.14)">
       <defs>
        <path id="ArialMT-30" d="M 266 2259 
Q 266 3072 433 3567 
Q 600 4063 929 4331 
Q 1259 4600 1759 4600 
Q 2128 4600 2406 4451 
Q 2684 4303 2865 4023 
Q 3047 3744 3150 3342 
Q 3253 2941 3253 2259 
Q 3253 1453 3087 958 
Q 2922 463 2592 192 
Q 2263 -78 1759 -78 
Q 1097 -78 719 397 
Q 266 969 266 2259 
z
M 844 2259 
Q 844 1131 1108 757 
Q 1372 384 1759 384 
Q 2147 384 2411 759 
Q 2675 1134 2675 2259 
Q 2675 3391 2411 3762 
Q 2147 4134 1753 4134 
Q 1366 4134 1134 3806 
Q 844 3388 844 2259 
z
" transform="scale(0.015625)"/>
       </defs>
       <use xlink:href="#ArialMT-30"/>
      </g>
     </g>
    </g>
    <g id="xtick_2">
     <g id="line2d_9">
      <path d="M 26.185768 455.730469 
L 26.185768 336.737298 
" clip-path="url(#p30b46a92f0)" style="fill: none; stroke: #cccccc; stroke-linecap: round"/>
     </g>
     <g id="line2d_10">
      <g>
       <use xlink:href="#ma705d81c4d" x="26.185768" y="455.730469" style="fill: #262626; stroke: #262626; stroke-width: 1.25"/>
      </g>
     </g>
     <g id="text_8">
      <!-- 250 -->
      <g style="fill: #262626" transform="translate(14.507799 475.251406) scale(0.14 -0.14)">
       <defs>
        <path id="ArialMT-32" d="M 3222 541 
L 3222 0 
L 194 0 
Q 188 203 259 391 
Q 375 700 629 1000 
Q 884 1300 1366 1694 
Q 2113 2306 2375 2664 
Q 2638 3022 2638 3341 
Q 2638 3675 2398 3904 
Q 2159 4134 1775 4134 
Q 1369 4134 1125 3890 
Q 881 3647 878 3216 
L 300 3275 
Q 359 3922 746 4261 
Q 1134 4600 1788 4600 
Q 2447 4600 2831 4234 
Q 3216 3869 3216 3328 
Q 3216 3053 3103 2787 
Q 2991 2522 2730 2228 
Q 2469 1934 1863 1422 
Q 1356 997 1212 845 
Q 1069 694 975 541 
L 3222 541 
z
" transform="scale(0.015625)"/>
        <path id="ArialMT-35" d="M 266 1200 
L 856 1250 
Q 922 819 1161 601 
Q 1400 384 1738 384 
Q 2144 384 2425 690 
Q 2706 997 2706 1503 
Q 2706 1984 2436 2262 
Q 2166 2541 1728 2541 
Q 1456 2541 1237 2417 
Q 1019 2294 894 2097 
L 366 2166 
L 809 4519 
L 3088 4519 
L 3088 3981 
L 1259 3981 
L 1013 2750 
Q 1425 3038 1878 3038 
Q 2478 3038 2890 2622 
Q 3303 2206 3303 1553 
Q 3303 931 2941 478 
Q 2500 -78 1738 -78 
Q 1113 -78 717 272 
Q 322 622 266 1200 
z
" transform="scale(0.015625)"/>
       </defs>
       <use xlink:href="#ArialMT-32"/>
       <use xlink:href="#ArialMT-35" x="55.615234"/>
       <use xlink:href="#ArialMT-30" x="111.230469"/>
      </g>
     </g>
    </g>
   </g>
   <g id="patch_8">
    <path d="M 53.621849 447.524043 
L 7.2 447.524043 
L 7.2 438.19856 
L 53.621849 438.19856 
z
" clip-path="url(#p30b46a92f0)" style="stroke: #000000; stroke-linejoin: miter"/>
   </g>
   <g id="patch_9">
    <path d="M 53.621849 428.873076 
L 45.610513 428.873076 
L 45.610513 419.547592 
L 53.621849 419.547592 
z
" clip-path="url(#p30b46a92f0)" style="stroke: #000000; stroke-linejoin: miter"/>
   </g>
   <g id="patch_10">
    <path d="M 53.621849 410.222109 
L 48.244377 410.222109 
L 48.244377 400.896625 
L 53.621849 400.896625 
z
" clip-path="url(#p30b46a92f0)" style="stroke: #000000; stroke-linejoin: miter"/>
   </g>
   <g id="patch_11">
    <path d="M 53.621849 391.571142 
L 51.207474 391.571142 
L 51.207474 382.245658 
L 53.621849 382.245658 
z
" clip-path="url(#p30b46a92f0)" style="stroke: #000000; stroke-linejoin: miter"/>
   </g>
   <g id="patch_12">
    <path d="M 53.621849 372.920174 
L 52.524406 372.920174 
L 52.524406 363.594691 
L 53.621849 363.594691 
z
" clip-path="url(#p30b46a92f0)" style="stroke: #000000; stroke-linejoin: miter"/>
   </g>
   <g id="patch_13">
    <path d="M 53.621849 354.269207 
L 52.524406 354.269207 
L 52.524406 344.943724 
L 53.621849 344.943724 
z
" clip-path="url(#p30b46a92f0)" style="stroke: #000000; stroke-linejoin: miter"/>
   </g>
   <g id="patch_14">
    <path d="M 7.2 455.730469 
L 53.621849 455.730469 
" style="fill: none; stroke: #262626; stroke-width: 1.25; stroke-linejoin: miter; stroke-linecap: square"/>
   </g>
  </g>
  <g id="axes_4">
   <g id="patch_15">
    <path d="M 159.12605 325.919737 
L 509.4 325.919737 
L 509.4 12.210469 
L 159.12605 12.210469 
z
" style="fill: #ffffff"/>
   </g>
   <g id="matplotlib.axis_5">
    <g id="ytick_13">
     <g id="line2d_11">
      <defs>
       <path id="mac7af2e458" d="M 0 0 
L -6 0 
" style="stroke: #262626; stroke-width: 1.25"/>
      </defs>
      <g>
       <use xlink:href="#mac7af2e458" x="159.12605" y="325.919737" style="fill: #262626; stroke: #262626; stroke-width: 1.25"/>
      </g>
     </g>
     <g id="text_9">
      <!-- 0 -->
      <g style="fill: #262626" transform="translate(141.840738 330.930206) scale(0.14 -0.14)">
       <defs>
        <path id="Arial-BoldMT-30" d="M 1756 4600 
Q 2422 4600 2797 4125 
Q 3244 3563 3244 2259 
Q 3244 959 2794 391 
Q 2422 -78 1756 -78 
Q 1088 -78 678 436 
Q 269 950 269 2269 
Q 269 3563 719 4131 
Q 1091 4600 1756 4600 
z
M 1756 3872 
Q 1597 3872 1472 3770 
Q 1347 3669 1278 3406 
Q 1188 3066 1188 2259 
Q 1188 1453 1269 1151 
Q 1350 850 1473 750 
Q 1597 650 1756 650 
Q 1916 650 2041 751 
Q 2166 853 2234 1116 
Q 2325 1453 2325 2259 
Q 2325 3066 2244 3367 
Q 2163 3669 2039 3770 
Q 1916 3872 1756 3872 
z
" transform="scale(0.015625)"/>
       </defs>
       <use xlink:href="#Arial-BoldMT-30"/>
      </g>
     </g>
    </g>
    <g id="ytick_14">
     <g id="line2d_12">
      <g>
       <use xlink:href="#mac7af2e458" x="159.12605" y="273.634859" style="fill: #262626; stroke: #262626; stroke-width: 1.25"/>
      </g>
     </g>
     <g id="text_10">
      <!-- 50 -->
      <g style="fill: #262626" transform="translate(134.055425 278.645328) scale(0.14 -0.14)">
       <defs>
        <path id="Arial-BoldMT-35" d="M 284 1178 
L 1159 1269 
Q 1197 972 1381 798 
Q 1566 625 1806 625 
Q 2081 625 2272 848 
Q 2463 1072 2463 1522 
Q 2463 1944 2273 2155 
Q 2084 2366 1781 2366 
Q 1403 2366 1103 2031 
L 391 2134 
L 841 4519 
L 3163 4519 
L 3163 3697 
L 1506 3697 
L 1369 2919 
Q 1663 3066 1969 3066 
Q 2553 3066 2959 2641 
Q 3366 2216 3366 1538 
Q 3366 972 3038 528 
Q 2591 -78 1797 -78 
Q 1163 -78 763 262 
Q 363 603 284 1178 
z
" transform="scale(0.015625)"/>
       </defs>
       <use xlink:href="#Arial-BoldMT-35"/>
       <use xlink:href="#Arial-BoldMT-30" x="55.615234"/>
      </g>
     </g>
    </g>
    <g id="ytick_15">
     <g id="line2d_13">
      <g>
       <use xlink:href="#mac7af2e458" x="159.12605" y="221.349981" style="fill: #262626; stroke: #262626; stroke-width: 1.25"/>
      </g>
     </g>
     <g id="text_11">
      <!-- 100 -->
      <g style="fill: #262626" transform="translate(126.270113 226.36045) scale(0.14 -0.14)">
       <defs>
        <path id="Arial-BoldMT-31" d="M 2519 0 
L 1641 0 
L 1641 3309 
Q 1159 2859 506 2644 
L 506 3441 
Q 850 3553 1253 3867 
Q 1656 4181 1806 4600 
L 2519 4600 
L 2519 0 
z
" transform="scale(0.015625)"/>
       </defs>
       <use xlink:href="#Arial-BoldMT-31"/>
       <use xlink:href="#Arial-BoldMT-30" x="55.615234"/>
       <use xlink:href="#Arial-BoldMT-30" x="111.230469"/>
      </g>
     </g>
    </g>
    <g id="ytick_16">
     <g id="line2d_14">
      <g>
       <use xlink:href="#mac7af2e458" x="159.12605" y="169.065103" style="fill: #262626; stroke: #262626; stroke-width: 1.25"/>
      </g>
     </g>
     <g id="text_12">
      <!-- 150 -->
      <g style="fill: #262626" transform="translate(126.270113 174.075572) scale(0.14 -0.14)">
       <use xlink:href="#Arial-BoldMT-31"/>
       <use xlink:href="#Arial-BoldMT-35" x="55.615234"/>
       <use xlink:href="#Arial-BoldMT-30" x="111.230469"/>
      </g>
     </g>
    </g>
    <g id="ytick_17">
     <g id="line2d_15">
      <g>
       <use xlink:href="#mac7af2e458" x="159.12605" y="116.780225" style="fill: #262626; stroke: #262626; stroke-width: 1.25"/>
      </g>
     </g>
     <g id="text_13">
      <!-- 200 -->
      <g style="fill: #262626" transform="translate(126.270113 121.790694) scale(0.14 -0.14)">
       <defs>
        <path id="Arial-BoldMT-32" d="M 3238 816 
L 3238 0 
L 159 0 
Q 209 463 459 877 
Q 709 1291 1447 1975 
Q 2041 2528 2175 2725 
Q 2356 2997 2356 3263 
Q 2356 3556 2198 3714 
Q 2041 3872 1763 3872 
Q 1488 3872 1325 3706 
Q 1163 3541 1138 3156 
L 263 3244 
Q 341 3969 753 4284 
Q 1166 4600 1784 4600 
Q 2463 4600 2850 4234 
Q 3238 3869 3238 3325 
Q 3238 3016 3127 2736 
Q 3016 2456 2775 2150 
Q 2616 1947 2200 1565 
Q 1784 1184 1673 1059 
Q 1563 934 1494 816 
L 3238 816 
z
" transform="scale(0.015625)"/>
       </defs>
       <use xlink:href="#Arial-BoldMT-32"/>
       <use xlink:href="#Arial-BoldMT-30" x="55.615234"/>
       <use xlink:href="#Arial-BoldMT-30" x="111.230469"/>
      </g>
     </g>
    </g>
    <g id="ytick_18">
     <g id="line2d_16">
      <g>
       <use xlink:href="#mac7af2e458" x="159.12605" y="64.495347" style="fill: #262626; stroke: #262626; stroke-width: 1.25"/>
      </g>
     </g>
     <g id="text_14">
      <!-- 250 -->
      <g style="fill: #262626" transform="translate(126.270113 69.505816) scale(0.14 -0.14)">
       <use xlink:href="#Arial-BoldMT-32"/>
       <use xlink:href="#Arial-BoldMT-35" x="55.615234"/>
       <use xlink:href="#Arial-BoldMT-30" x="111.230469"/>
      </g>
     </g>
    </g>
    <g id="ytick_19">
     <g id="line2d_17">
      <g>
       <use xlink:href="#mac7af2e458" x="159.12605" y="12.210469" style="fill: #262626; stroke: #262626; stroke-width: 1.25"/>
      </g>
     </g>
     <g id="text_15">
      <!-- 300 -->
      <g style="fill: #262626" transform="translate(126.270113 17.220937) scale(0.14 -0.14)">
       <defs>
        <path id="Arial-BoldMT-33" d="M 241 1216 
L 1091 1319 
Q 1131 994 1309 822 
Q 1488 650 1741 650 
Q 2013 650 2198 856 
Q 2384 1063 2384 1413 
Q 2384 1744 2206 1937 
Q 2028 2131 1772 2131 
Q 1603 2131 1369 2066 
L 1466 2781 
Q 1822 2772 2009 2936 
Q 2197 3100 2197 3372 
Q 2197 3603 2059 3740 
Q 1922 3878 1694 3878 
Q 1469 3878 1309 3722 
Q 1150 3566 1116 3266 
L 306 3403 
Q 391 3819 561 4067 
Q 731 4316 1036 4458 
Q 1341 4600 1719 4600 
Q 2366 4600 2756 4188 
Q 3078 3850 3078 3425 
Q 3078 2822 2419 2463 
Q 2813 2378 3048 2084 
Q 3284 1791 3284 1375 
Q 3284 772 2843 347 
Q 2403 -78 1747 -78 
Q 1125 -78 715 280 
Q 306 638 241 1216 
z
" transform="scale(0.015625)"/>
       </defs>
       <use xlink:href="#Arial-BoldMT-33"/>
       <use xlink:href="#Arial-BoldMT-30" x="55.615234"/>
       <use xlink:href="#Arial-BoldMT-30" x="111.230469"/>
      </g>
     </g>
    </g>
    <g id="text_16">
     <!-- Intersection Size -->
     <g style="fill: #262626" transform="translate(119.309957 228.661978) rotate(-90) scale(0.15 -0.15)">
      <defs>
       <path id="Arial-BoldMT-49" d="M 438 0 
L 438 4581 
L 1363 4581 
L 1363 0 
L 438 0 
z
" transform="scale(0.015625)"/>
       <path id="Arial-BoldMT-6e" d="M 3478 0 
L 2600 0 
L 2600 1694 
Q 2600 2231 2544 2389 
Q 2488 2547 2361 2634 
Q 2234 2722 2056 2722 
Q 1828 2722 1647 2597 
Q 1466 2472 1398 2265 
Q 1331 2059 1331 1503 
L 1331 0 
L 453 0 
L 453 3319 
L 1269 3319 
L 1269 2831 
Q 1703 3394 2363 3394 
Q 2653 3394 2893 3289 
Q 3134 3184 3257 3021 
Q 3381 2859 3429 2653 
Q 3478 2447 3478 2063 
L 3478 0 
z
" transform="scale(0.015625)"/>
       <path id="Arial-BoldMT-74" d="M 1981 3319 
L 1981 2619 
L 1381 2619 
L 1381 1281 
Q 1381 875 1398 808 
Q 1416 741 1477 697 
Q 1538 653 1625 653 
Q 1747 653 1978 738 
L 2053 56 
Q 1747 -75 1359 -75 
Q 1122 -75 931 4 
Q 741 84 652 211 
Q 563 338 528 553 
Q 500 706 500 1172 
L 500 2619 
L 97 2619 
L 97 3319 
L 500 3319 
L 500 3978 
L 1381 4491 
L 1381 3319 
L 1981 3319 
z
" transform="scale(0.015625)"/>
       <path id="Arial-BoldMT-65" d="M 2381 1056 
L 3256 909 
Q 3088 428 2723 176 
Q 2359 -75 1813 -75 
Q 947 -75 531 491 
Q 203 944 203 1634 
Q 203 2459 634 2926 
Q 1066 3394 1725 3394 
Q 2466 3394 2894 2905 
Q 3322 2416 3303 1406 
L 1103 1406 
Q 1113 1016 1316 798 
Q 1519 581 1822 581 
Q 2028 581 2168 693 
Q 2309 806 2381 1056 
z
M 2431 1944 
Q 2422 2325 2234 2523 
Q 2047 2722 1778 2722 
Q 1491 2722 1303 2513 
Q 1116 2303 1119 1944 
L 2431 1944 
z
" transform="scale(0.015625)"/>
       <path id="Arial-BoldMT-72" d="M 1300 0 
L 422 0 
L 422 3319 
L 1238 3319 
L 1238 2847 
Q 1447 3181 1614 3287 
Q 1781 3394 1994 3394 
Q 2294 3394 2572 3228 
L 2300 2463 
Q 2078 2606 1888 2606 
Q 1703 2606 1575 2504 
Q 1447 2403 1373 2137 
Q 1300 1872 1300 1025 
L 1300 0 
z
" transform="scale(0.015625)"/>
       <path id="Arial-BoldMT-73" d="M 150 947 
L 1031 1081 
Q 1088 825 1259 692 
Q 1431 559 1741 559 
Q 2081 559 2253 684 
Q 2369 772 2369 919 
Q 2369 1019 2306 1084 
Q 2241 1147 2013 1200 
Q 950 1434 666 1628 
Q 272 1897 272 2375 
Q 272 2806 612 3100 
Q 953 3394 1669 3394 
Q 2350 3394 2681 3172 
Q 3013 2950 3138 2516 
L 2309 2363 
Q 2256 2556 2107 2659 
Q 1959 2763 1684 2763 
Q 1338 2763 1188 2666 
Q 1088 2597 1088 2488 
Q 1088 2394 1175 2328 
Q 1294 2241 1995 2081 
Q 2697 1922 2975 1691 
Q 3250 1456 3250 1038 
Q 3250 581 2869 253 
Q 2488 -75 1741 -75 
Q 1063 -75 667 200 
Q 272 475 150 947 
z
" transform="scale(0.015625)"/>
       <path id="Arial-BoldMT-63" d="M 3353 2338 
L 2488 2181 
Q 2444 2441 2289 2572 
Q 2134 2703 1888 2703 
Q 1559 2703 1364 2476 
Q 1169 2250 1169 1719 
Q 1169 1128 1367 884 
Q 1566 641 1900 641 
Q 2150 641 2309 783 
Q 2469 925 2534 1272 
L 3397 1125 
Q 3263 531 2881 228 
Q 2500 -75 1859 -75 
Q 1131 -75 698 384 
Q 266 844 266 1656 
Q 266 2478 700 2936 
Q 1134 3394 1875 3394 
Q 2481 3394 2839 3133 
Q 3197 2872 3353 2338 
z
" transform="scale(0.015625)"/>
       <path id="Arial-BoldMT-69" d="M 459 3769 
L 459 4581 
L 1338 4581 
L 1338 3769 
L 459 3769 
z
M 459 0 
L 459 3319 
L 1338 3319 
L 1338 0 
L 459 0 
z
" transform="scale(0.015625)"/>
       <path id="Arial-BoldMT-6f" d="M 256 1706 
Q 256 2144 472 2553 
Q 688 2963 1083 3178 
Q 1478 3394 1966 3394 
Q 2719 3394 3200 2905 
Q 3681 2416 3681 1669 
Q 3681 916 3195 420 
Q 2709 -75 1972 -75 
Q 1516 -75 1102 131 
Q 688 338 472 736 
Q 256 1134 256 1706 
z
M 1156 1659 
Q 1156 1166 1390 903 
Q 1625 641 1969 641 
Q 2313 641 2545 903 
Q 2778 1166 2778 1666 
Q 2778 2153 2545 2415 
Q 2313 2678 1969 2678 
Q 1625 2678 1390 2415 
Q 1156 2153 1156 1659 
z
" transform="scale(0.015625)"/>
       <path id="Arial-BoldMT-20" transform="scale(0.015625)"/>
       <path id="Arial-BoldMT-53" d="M 231 1491 
L 1131 1578 
Q 1213 1125 1461 912 
Q 1709 700 2131 700 
Q 2578 700 2804 889 
Q 3031 1078 3031 1331 
Q 3031 1494 2936 1608 
Q 2841 1722 2603 1806 
Q 2441 1863 1863 2006 
Q 1119 2191 819 2459 
Q 397 2838 397 3381 
Q 397 3731 595 4036 
Q 794 4341 1167 4500 
Q 1541 4659 2069 4659 
Q 2931 4659 3367 4281 
Q 3803 3903 3825 3272 
L 2900 3231 
Q 2841 3584 2645 3739 
Q 2450 3894 2059 3894 
Q 1656 3894 1428 3728 
Q 1281 3622 1281 3444 
Q 1281 3281 1419 3166 
Q 1594 3019 2269 2859 
Q 2944 2700 3267 2529 
Q 3591 2359 3773 2064 
Q 3956 1769 3956 1334 
Q 3956 941 3737 597 
Q 3519 253 3119 86 
Q 2719 -81 2122 -81 
Q 1253 -81 787 320 
Q 322 722 231 1491 
z
" transform="scale(0.015625)"/>
       <path id="Arial-BoldMT-7a" d="M 106 0 
L 106 684 
L 1350 2113 
Q 1656 2463 1803 2609 
Q 1650 2600 1400 2597 
L 228 2591 
L 228 3319 
L 2972 3319 
L 2972 2697 
L 1703 1234 
L 1256 750 
Q 1622 772 1709 772 
L 3069 772 
L 3069 0 
L 106 0 
z
" transform="scale(0.015625)"/>
      </defs>
      <use xlink:href="#Arial-BoldMT-49"/>
      <use xlink:href="#Arial-BoldMT-6e" x="27.783203"/>
      <use xlink:href="#Arial-BoldMT-74" x="88.867188"/>
      <use xlink:href="#Arial-BoldMT-65" x="122.167969"/>
      <use xlink:href="#Arial-BoldMT-72" x="177.783203"/>
      <use xlink:href="#Arial-BoldMT-73" x="216.699219"/>
      <use xlink:href="#Arial-BoldMT-65" x="272.314453"/>
      <use xlink:href="#Arial-BoldMT-63" x="327.929688"/>
      <use xlink:href="#Arial-BoldMT-74" x="383.544922"/>
      <use xlink:href="#Arial-BoldMT-69" x="416.845703"/>
      <use xlink:href="#Arial-BoldMT-6f" x="444.628906"/>
      <use xlink:href="#Arial-BoldMT-6e" x="505.712891"/>
      <use xlink:href="#Arial-BoldMT-20" x="566.796875"/>
      <use xlink:href="#Arial-BoldMT-53" x="594.580078"/>
      <use xlink:href="#Arial-BoldMT-69" x="661.279297"/>
      <use xlink:href="#Arial-BoldMT-7a" x="689.0625"/>
      <use xlink:href="#Arial-BoldMT-65" x="739.0625"/>
     </g>
    </g>
   </g>
   <g id="patch_16">
    <path d="M 159.12605 325.919737 
L 159.12605 12.210469 
" style="fill: none; stroke: #262626; stroke-width: 1.25; stroke-linejoin: miter; stroke-linecap: square"/>
   </g>
   <g id="patch_17">
    <path d="M 165.380942 325.919737 
L 177.890726 325.919737 
L 177.890726 29.987327 
L 165.380942 29.987327 
z
" clip-path="url(#p59df125ae6)" style="fill: #001c7f; stroke: #001c7f; stroke-linejoin: miter"/>
   </g>
   <g id="patch_18">
    <path d="M 190.40051 325.919737 
L 202.910294 325.919737 
L 202.910294 265.269279 
L 190.40051 265.269279 
z
" clip-path="url(#p59df125ae6)" style="fill: #001c7f; stroke: #001c7f; stroke-linejoin: miter"/>
   </g>
   <g id="patch_19">
    <path d="M 215.420078 325.919737 
L 227.929862 325.919737 
L 227.929862 288.274625 
L 215.420078 288.274625 
z
" clip-path="url(#p59df125ae6)" style="fill: #001c7f; stroke: #001c7f; stroke-linejoin: miter"/>
   </g>
   <g id="patch_20">
    <path d="M 240.439646 325.919737 
L 252.94943 325.919737 
L 252.94943 313.371366 
L 240.439646 313.371366 
z
" clip-path="url(#p59df125ae6)" style="fill: #001c7f; stroke: #001c7f; stroke-linejoin: miter"/>
   </g>
   <g id="patch_21">
    <path d="M 265.459214 325.919737 
L 277.968998 325.919737 
L 277.968998 317.554157 
L 265.459214 317.554157 
z
" clip-path="url(#p59df125ae6)" style="fill: #001c7f; stroke: #001c7f; stroke-linejoin: miter"/>
   </g>
   <g id="patch_22">
    <path d="M 290.478782 325.919737 
L 302.988565 325.919737 
L 302.988565 319.645552 
L 290.478782 319.645552 
z
" clip-path="url(#p59df125ae6)" style="fill: #001c7f; stroke: #001c7f; stroke-linejoin: miter"/>
   </g>
   <g id="patch_23">
    <path d="M 315.498349 325.919737 
L 328.008133 325.919737 
L 328.008133 320.691249 
L 315.498349 320.691249 
z
" clip-path="url(#p59df125ae6)" style="fill: #001c7f; stroke: #001c7f; stroke-linejoin: miter"/>
   </g>
   <g id="patch_24">
    <path d="M 340.517917 325.919737 
L 353.027701 325.919737 
L 353.027701 321.736947 
L 340.517917 321.736947 
z
" clip-path="url(#p59df125ae6)" style="fill: #001c7f; stroke: #001c7f; stroke-linejoin: miter"/>
   </g>
   <g id="patch_25">
    <path d="M 365.537485 325.919737 
L 378.047269 325.919737 
L 378.047269 321.736947 
L 365.537485 321.736947 
z
" clip-path="url(#p59df125ae6)" style="fill: #001c7f; stroke: #001c7f; stroke-linejoin: miter"/>
   </g>
   <g id="patch_26">
    <path d="M 390.557053 325.919737 
L 403.066837 325.919737 
L 403.066837 322.782644 
L 390.557053 322.782644 
z
" clip-path="url(#p59df125ae6)" style="fill: #001c7f; stroke: #001c7f; stroke-linejoin: miter"/>
   </g>
   <g id="patch_27">
    <path d="M 415.576621 325.919737 
L 428.086405 325.919737 
L 428.086405 324.874039 
L 415.576621 324.874039 
z
" clip-path="url(#p59df125ae6)" style="fill: #001c7f; stroke: #001c7f; stroke-linejoin: miter"/>
   </g>
   <g id="patch_28">
    <path d="M 440.596188 325.919737 
L 453.105972 325.919737 
L 453.105972 324.874039 
L 440.596188 324.874039 
z
" clip-path="url(#p59df125ae6)" style="fill: #001c7f; stroke: #001c7f; stroke-linejoin: miter"/>
   </g>
   <g id="patch_29">
    <path d="M 465.615756 325.919737 
L 478.12554 325.919737 
L 478.12554 324.874039 
L 465.615756 324.874039 
z
" clip-path="url(#p59df125ae6)" style="fill: #001c7f; stroke: #001c7f; stroke-linejoin: miter"/>
   </g>
   <g id="patch_30">
    <path d="M 490.635324 325.919737 
L 503.145108 325.919737 
L 503.145108 324.874039 
L 490.635324 324.874039 
z
" clip-path="url(#p59df125ae6)" style="fill: #001c7f; stroke: #001c7f; stroke-linejoin: miter"/>
   </g>
  </g>
 </g>
 <defs>
  <clipPath id="p3adf6df5e8">
   <rect x="7.2" y="336.737298" width="502.2" height="118.993171"/>
  </clipPath>
  <clipPath id="p1f972b4159">
   <rect x="159.12605" y="336.737298" width="350.27395" height="118.993171"/>
  </clipPath>
  <clipPath id="p30b46a92f0">
   <rect x="7.2" y="336.737298" width="46.421849" height="118.993171"/>
  </clipPath>
  <clipPath id="p59df125ae6">
   <rect x="159.12605" y="12.210469" width="350.27395" height="313.709268"/>
  </clipPath>
 </defs>
</svg>
