<?xml version="1.0" encoding="utf-8" standalone="no"?>
<!DOCTYPE svg PUBLIC "-//W3C//DTD SVG 1.1//EN"
  "http://www.w3.org/Graphics/SVG/1.1/DTD/svg11.dtd">
<svg xmlns:xlink="http://www.w3.org/1999/xlink" width="817.563364pt" height="429.793906pt" viewBox="0 0 817.563364 429.793906" xmlns="http://www.w3.org/2000/svg" version="1.1">
 <metadata>
  <rdf:RDF xmlns:dc="http://purl.org/dc/elements/1.1/" xmlns:cc="http://creativecommons.org/ns#" xmlns:rdf="http://www.w3.org/1999/02/22-rdf-syntax-ns#">
   <cc:Work>
    <dc:type rdf:resource="http://purl.org/dc/dcmitype/StillImage"/>
    <dc:date>2024-09-05T12:08:29.334408</dc:date>
    <dc:format>image/svg+xml</dc:format>
    <dc:creator>
     <cc:Agent>
      <dc:title>Matplotlib v3.7.1, https://matplotlib.org/</dc:title>
     </cc:Agent>
    </dc:creator>
   </cc:Work>
  </rdf:RDF>
 </metadata>
 <defs>
  <style type="text/css">*{stroke-linejoin: round; stroke-linecap: butt}</style>
 </defs>
 <g id="figure_1">
  <g id="patch_1">
   <path d="M 0 429.793906 
L 817.563364 429.793906 
L 817.563364 0 
L 0 0 
z
" style="fill: #ffffff"/>
  </g>
  <g id="axes_1">
   <g id="patch_2">
    <path d="M 12.423364 396.2197 
L 810.363364 396.2197 
L 810.363364 382.650469 
L 12.423364 382.650469 
z
" clip-path="url(#p5221db0f89)" style="fill-opacity: 0.05098"/>
   </g>
   <g id="patch_3">
    <path d="M 12.423364 379.258161 
L 810.363364 379.258161 
L 810.363364 365.68893 
L 12.423364 365.68893 
L 12.423364 379.258161 
z
" clip-path="url(#p5221db0f89)" style="fill: none"/>
   </g>
   <g id="patch_4">
    <path d="M 12.423364 362.296623 
L 810.363364 362.296623 
L 810.363364 348.727392 
L 12.423364 348.727392 
z
" clip-path="url(#p5221db0f89)" style="fill-opacity: 0.05098"/>
   </g>
   <g id="patch_5">
    <path d="M 12.423364 345.335084 
L 810.363364 345.335084 
L 810.363364 331.765853 
L 12.423364 331.765853 
L 12.423364 345.335084 
z
" clip-path="url(#p5221db0f89)" style="fill: none"/>
   </g>
   <g id="patch_6">
    <path d="M 12.423364 328.373546 
L 810.363364 328.373546 
L 810.363364 314.804315 
L 12.423364 314.804315 
z
" clip-path="url(#p5221db0f89)" style="fill-opacity: 0.05098"/>
   </g>
   <g id="matplotlib.axis_1"/>
   <g id="matplotlib.axis_2">
    <g id="ytick_1"/>
    <g id="ytick_2"/>
    <g id="ytick_3"/>
    <g id="ytick_4"/>
    <g id="ytick_5"/>
   </g>
  </g>
  <g id="axes_2">
   <g id="matplotlib.axis_3">
    <g id="ytick_6">
     <g id="line2d_1"/>
     <g id="text_1">
      <!-- MMSE -->
      <g style="fill: #262626" transform="translate(138.934382 394.445553) scale(0.14 -0.14)">
       <defs>
        <path id="ArialMT-4d" d="M 475 0 
L 475 4581 
L 1388 4581 
L 2472 1338 
Q 2622 884 2691 659 
Q 2769 909 2934 1394 
L 4031 4581 
L 4847 4581 
L 4847 0 
L 4263 0 
L 4263 3834 
L 2931 0 
L 2384 0 
L 1059 3900 
L 1059 0 
L 475 0 
z
" transform="scale(0.015625)"/>
        <path id="ArialMT-53" d="M 288 1472 
L 859 1522 
Q 900 1178 1048 958 
Q 1197 738 1509 602 
Q 1822 466 2213 466 
Q 2559 466 2825 569 
Q 3091 672 3220 851 
Q 3350 1031 3350 1244 
Q 3350 1459 3225 1620 
Q 3100 1781 2813 1891 
Q 2628 1963 1997 2114 
Q 1366 2266 1113 2400 
Q 784 2572 623 2826 
Q 463 3081 463 3397 
Q 463 3744 659 4045 
Q 856 4347 1234 4503 
Q 1613 4659 2075 4659 
Q 2584 4659 2973 4495 
Q 3363 4331 3572 4012 
Q 3781 3694 3797 3291 
L 3216 3247 
Q 3169 3681 2898 3903 
Q 2628 4125 2100 4125 
Q 1550 4125 1298 3923 
Q 1047 3722 1047 3438 
Q 1047 3191 1225 3031 
Q 1400 2872 2139 2705 
Q 2878 2538 3153 2413 
Q 3553 2228 3743 1945 
Q 3934 1663 3934 1294 
Q 3934 928 3725 604 
Q 3516 281 3123 101 
Q 2731 -78 2241 -78 
Q 1619 -78 1198 103 
Q 778 284 539 648 
Q 300 1013 288 1472 
z
" transform="scale(0.015625)"/>
        <path id="ArialMT-45" d="M 506 0 
L 506 4581 
L 3819 4581 
L 3819 4041 
L 1113 4041 
L 1113 2638 
L 3647 2638 
L 3647 2100 
L 1113 2100 
L 1113 541 
L 3925 541 
L 3925 0 
L 506 0 
z
" transform="scale(0.015625)"/>
       </defs>
       <use xlink:href="#ArialMT-4d"/>
       <use xlink:href="#ArialMT-4d" x="83.300781"/>
       <use xlink:href="#ArialMT-53" x="166.601562"/>
       <use xlink:href="#ArialMT-45" x="233.300781"/>
      </g>
     </g>
    </g>
    <g id="ytick_7">
     <g id="line2d_2"/>
     <g id="text_2">
      <!-- E/UCr -->
      <g style="fill: #262626" transform="translate(142.823757 377.484014) scale(0.14 -0.14)">
       <defs>
        <path id="ArialMT-2f" d="M 0 -78 
L 1328 4659 
L 1778 4659 
L 453 -78 
L 0 -78 
z
" transform="scale(0.015625)"/>
        <path id="ArialMT-55" d="M 3500 4581 
L 4106 4581 
L 4106 1934 
Q 4106 1244 3950 837 
Q 3794 431 3386 176 
Q 2978 -78 2316 -78 
Q 1672 -78 1262 144 
Q 853 366 678 786 
Q 503 1206 503 1934 
L 503 4581 
L 1109 4581 
L 1109 1938 
Q 1109 1341 1220 1058 
Q 1331 775 1601 622 
Q 1872 469 2263 469 
Q 2931 469 3215 772 
Q 3500 1075 3500 1938 
L 3500 4581 
z
" transform="scale(0.015625)"/>
        <path id="ArialMT-43" d="M 3763 1606 
L 4369 1453 
Q 4178 706 3683 314 
Q 3188 -78 2472 -78 
Q 1731 -78 1267 223 
Q 803 525 561 1097 
Q 319 1669 319 2325 
Q 319 3041 592 3573 
Q 866 4106 1370 4382 
Q 1875 4659 2481 4659 
Q 3169 4659 3637 4309 
Q 4106 3959 4291 3325 
L 3694 3184 
Q 3534 3684 3231 3912 
Q 2928 4141 2469 4141 
Q 1941 4141 1586 3887 
Q 1231 3634 1087 3207 
Q 944 2781 944 2328 
Q 944 1744 1114 1308 
Q 1284 872 1643 656 
Q 2003 441 2422 441 
Q 2931 441 3284 734 
Q 3638 1028 3763 1606 
z
" transform="scale(0.015625)"/>
        <path id="ArialMT-72" d="M 416 0 
L 416 3319 
L 922 3319 
L 922 2816 
Q 1116 3169 1280 3281 
Q 1444 3394 1641 3394 
Q 1925 3394 2219 3213 
L 2025 2691 
Q 1819 2813 1613 2813 
Q 1428 2813 1281 2702 
Q 1134 2591 1072 2394 
Q 978 2094 978 1738 
L 978 0 
L 416 0 
z
" transform="scale(0.015625)"/>
       </defs>
       <use xlink:href="#ArialMT-45"/>
       <use xlink:href="#ArialMT-2f" x="66.699219"/>
       <use xlink:href="#ArialMT-55" x="94.482422"/>
       <use xlink:href="#ArialMT-43" x="166.699219"/>
       <use xlink:href="#ArialMT-72" x="238.916016"/>
      </g>
     </g>
    </g>
    <g id="ytick_8">
     <g id="line2d_3"/>
     <g id="text_3">
      <!-- FBC + Diff -->
      <g style="fill: #262626" transform="translate(116.223757 360.522476) scale(0.14 -0.14)">
       <defs>
        <path id="ArialMT-46" d="M 525 0 
L 525 4581 
L 3616 4581 
L 3616 4041 
L 1131 4041 
L 1131 2622 
L 3281 2622 
L 3281 2081 
L 1131 2081 
L 1131 0 
L 525 0 
z
" transform="scale(0.015625)"/>
        <path id="ArialMT-42" d="M 469 0 
L 469 4581 
L 2188 4581 
Q 2713 4581 3030 4442 
Q 3347 4303 3526 4014 
Q 3706 3725 3706 3409 
Q 3706 3116 3547 2856 
Q 3388 2597 3066 2438 
Q 3481 2316 3704 2022 
Q 3928 1728 3928 1328 
Q 3928 1006 3792 729 
Q 3656 453 3456 303 
Q 3256 153 2954 76 
Q 2653 0 2216 0 
L 469 0 
z
M 1075 2656 
L 2066 2656 
Q 2469 2656 2644 2709 
Q 2875 2778 2992 2937 
Q 3109 3097 3109 3338 
Q 3109 3566 3000 3739 
Q 2891 3913 2687 3977 
Q 2484 4041 1991 4041 
L 1075 4041 
L 1075 2656 
z
M 1075 541 
L 2216 541 
Q 2509 541 2628 563 
Q 2838 600 2978 687 
Q 3119 775 3209 942 
Q 3300 1109 3300 1328 
Q 3300 1584 3169 1773 
Q 3038 1963 2805 2039 
Q 2572 2116 2134 2116 
L 1075 2116 
L 1075 541 
z
" transform="scale(0.015625)"/>
        <path id="ArialMT-20" transform="scale(0.015625)"/>
        <path id="ArialMT-2b" d="M 1603 741 
L 1603 1997 
L 356 1997 
L 356 2522 
L 1603 2522 
L 1603 3769 
L 2134 3769 
L 2134 2522 
L 3381 2522 
L 3381 1997 
L 2134 1997 
L 2134 741 
L 1603 741 
z
" transform="scale(0.015625)"/>
        <path id="ArialMT-44" d="M 494 0 
L 494 4581 
L 2072 4581 
Q 2606 4581 2888 4516 
Q 3281 4425 3559 4188 
Q 3922 3881 4101 3404 
Q 4281 2928 4281 2316 
Q 4281 1794 4159 1391 
Q 4038 988 3847 723 
Q 3656 459 3429 307 
Q 3203 156 2883 78 
Q 2563 0 2147 0 
L 494 0 
z
M 1100 541 
L 2078 541 
Q 2531 541 2789 625 
Q 3047 709 3200 863 
Q 3416 1078 3536 1442 
Q 3656 1806 3656 2325 
Q 3656 3044 3420 3430 
Q 3184 3816 2847 3947 
Q 2603 4041 2063 4041 
L 1100 4041 
L 1100 541 
z
" transform="scale(0.015625)"/>
        <path id="ArialMT-69" d="M 425 3934 
L 425 4581 
L 988 4581 
L 988 3934 
L 425 3934 
z
M 425 0 
L 425 3319 
L 988 3319 
L 988 0 
L 425 0 
z
" transform="scale(0.015625)"/>
        <path id="ArialMT-66" d="M 556 0 
L 556 2881 
L 59 2881 
L 59 3319 
L 556 3319 
L 556 3672 
Q 556 4006 616 4169 
Q 697 4388 901 4523 
Q 1106 4659 1475 4659 
Q 1713 4659 2000 4603 
L 1916 4113 
Q 1741 4144 1584 4144 
Q 1328 4144 1222 4034 
Q 1116 3925 1116 3625 
L 1116 3319 
L 1763 3319 
L 1763 2881 
L 1116 2881 
L 1116 0 
L 556 0 
z
" transform="scale(0.015625)"/>
       </defs>
       <use xlink:href="#ArialMT-46"/>
       <use xlink:href="#ArialMT-42" x="61.083984"/>
       <use xlink:href="#ArialMT-43" x="127.783203"/>
       <use xlink:href="#ArialMT-20" x="200"/>
       <use xlink:href="#ArialMT-2b" x="227.783203"/>
       <use xlink:href="#ArialMT-20" x="286.181641"/>
       <use xlink:href="#ArialMT-44" x="313.964844"/>
       <use xlink:href="#ArialMT-69" x="386.181641"/>
       <use xlink:href="#ArialMT-66" x="408.398438"/>
       <use xlink:href="#ArialMT-66" x="434.431641"/>
      </g>
     </g>
    </g>
    <g id="ytick_9">
     <g id="line2d_4"/>
     <g id="text_4">
      <!-- Urinalysis -->
      <g style="fill: #262626" transform="translate(120.259695 343.560937) scale(0.14 -0.14)">
       <defs>
        <path id="ArialMT-6e" d="M 422 0 
L 422 3319 
L 928 3319 
L 928 2847 
Q 1294 3394 1984 3394 
Q 2284 3394 2536 3286 
Q 2788 3178 2913 3003 
Q 3038 2828 3088 2588 
Q 3119 2431 3119 2041 
L 3119 0 
L 2556 0 
L 2556 2019 
Q 2556 2363 2490 2533 
Q 2425 2703 2258 2804 
Q 2091 2906 1866 2906 
Q 1506 2906 1245 2678 
Q 984 2450 984 1813 
L 984 0 
L 422 0 
z
" transform="scale(0.015625)"/>
        <path id="ArialMT-61" d="M 2588 409 
Q 2275 144 1986 34 
Q 1697 -75 1366 -75 
Q 819 -75 525 192 
Q 231 459 231 875 
Q 231 1119 342 1320 
Q 453 1522 633 1644 
Q 813 1766 1038 1828 
Q 1203 1872 1538 1913 
Q 2219 1994 2541 2106 
Q 2544 2222 2544 2253 
Q 2544 2597 2384 2738 
Q 2169 2928 1744 2928 
Q 1347 2928 1158 2789 
Q 969 2650 878 2297 
L 328 2372 
Q 403 2725 575 2942 
Q 747 3159 1072 3276 
Q 1397 3394 1825 3394 
Q 2250 3394 2515 3294 
Q 2781 3194 2906 3042 
Q 3031 2891 3081 2659 
Q 3109 2516 3109 2141 
L 3109 1391 
Q 3109 606 3145 398 
Q 3181 191 3288 0 
L 2700 0 
Q 2613 175 2588 409 
z
M 2541 1666 
Q 2234 1541 1622 1453 
Q 1275 1403 1131 1340 
Q 988 1278 909 1158 
Q 831 1038 831 891 
Q 831 666 1001 516 
Q 1172 366 1500 366 
Q 1825 366 2078 508 
Q 2331 650 2450 897 
Q 2541 1088 2541 1459 
L 2541 1666 
z
" transform="scale(0.015625)"/>
        <path id="ArialMT-6c" d="M 409 0 
L 409 4581 
L 972 4581 
L 972 0 
L 409 0 
z
" transform="scale(0.015625)"/>
        <path id="ArialMT-79" d="M 397 -1278 
L 334 -750 
Q 519 -800 656 -800 
Q 844 -800 956 -737 
Q 1069 -675 1141 -563 
Q 1194 -478 1313 -144 
Q 1328 -97 1363 -6 
L 103 3319 
L 709 3319 
L 1400 1397 
Q 1534 1031 1641 628 
Q 1738 1016 1872 1384 
L 2581 3319 
L 3144 3319 
L 1881 -56 
Q 1678 -603 1566 -809 
Q 1416 -1088 1222 -1217 
Q 1028 -1347 759 -1347 
Q 597 -1347 397 -1278 
z
" transform="scale(0.015625)"/>
        <path id="ArialMT-73" d="M 197 991 
L 753 1078 
Q 800 744 1014 566 
Q 1228 388 1613 388 
Q 2000 388 2187 545 
Q 2375 703 2375 916 
Q 2375 1106 2209 1216 
Q 2094 1291 1634 1406 
Q 1016 1563 777 1677 
Q 538 1791 414 1992 
Q 291 2194 291 2438 
Q 291 2659 392 2848 
Q 494 3038 669 3163 
Q 800 3259 1026 3326 
Q 1253 3394 1513 3394 
Q 1903 3394 2198 3281 
Q 2494 3169 2634 2976 
Q 2775 2784 2828 2463 
L 2278 2388 
Q 2241 2644 2061 2787 
Q 1881 2931 1553 2931 
Q 1166 2931 1000 2803 
Q 834 2675 834 2503 
Q 834 2394 903 2306 
Q 972 2216 1119 2156 
Q 1203 2125 1616 2013 
Q 2213 1853 2448 1751 
Q 2684 1650 2818 1456 
Q 2953 1263 2953 975 
Q 2953 694 2789 445 
Q 2625 197 2315 61 
Q 2006 -75 1616 -75 
Q 969 -75 630 194 
Q 291 463 197 991 
z
" transform="scale(0.015625)"/>
       </defs>
       <use xlink:href="#ArialMT-55"/>
       <use xlink:href="#ArialMT-72" x="72.216797"/>
       <use xlink:href="#ArialMT-69" x="105.517578"/>
       <use xlink:href="#ArialMT-6e" x="127.734375"/>
       <use xlink:href="#ArialMT-61" x="183.349609"/>
       <use xlink:href="#ArialMT-6c" x="238.964844"/>
       <use xlink:href="#ArialMT-79" x="261.181641"/>
       <use xlink:href="#ArialMT-73" x="311.181641"/>
       <use xlink:href="#ArialMT-69" x="361.181641"/>
       <use xlink:href="#ArialMT-73" x="383.398438"/>
      </g>
     </g>
    </g>
    <g id="ytick_10">
     <g id="line2d_5"/>
     <g id="text_5">
      <!-- Other Assessment -->
      <g style="fill: #262626" transform="translate(66.558757 326.599399) scale(0.14 -0.14)">
       <defs>
        <path id="ArialMT-4f" d="M 309 2231 
Q 309 3372 921 4017 
Q 1534 4663 2503 4663 
Q 3138 4663 3647 4359 
Q 4156 4056 4423 3514 
Q 4691 2972 4691 2284 
Q 4691 1588 4409 1038 
Q 4128 488 3612 205 
Q 3097 -78 2500 -78 
Q 1853 -78 1343 234 
Q 834 547 571 1087 
Q 309 1628 309 2231 
z
M 934 2222 
Q 934 1394 1379 917 
Q 1825 441 2497 441 
Q 3181 441 3623 922 
Q 4066 1403 4066 2288 
Q 4066 2847 3877 3264 
Q 3688 3681 3323 3911 
Q 2959 4141 2506 4141 
Q 1863 4141 1398 3698 
Q 934 3256 934 2222 
z
" transform="scale(0.015625)"/>
        <path id="ArialMT-74" d="M 1650 503 
L 1731 6 
Q 1494 -44 1306 -44 
Q 1000 -44 831 53 
Q 663 150 594 308 
Q 525 466 525 972 
L 525 2881 
L 113 2881 
L 113 3319 
L 525 3319 
L 525 4141 
L 1084 4478 
L 1084 3319 
L 1650 3319 
L 1650 2881 
L 1084 2881 
L 1084 941 
Q 1084 700 1114 631 
Q 1144 563 1211 522 
Q 1278 481 1403 481 
Q 1497 481 1650 503 
z
" transform="scale(0.015625)"/>
        <path id="ArialMT-68" d="M 422 0 
L 422 4581 
L 984 4581 
L 984 2938 
Q 1378 3394 1978 3394 
Q 2347 3394 2619 3248 
Q 2891 3103 3008 2847 
Q 3125 2591 3125 2103 
L 3125 0 
L 2563 0 
L 2563 2103 
Q 2563 2525 2380 2717 
Q 2197 2909 1863 2909 
Q 1613 2909 1392 2779 
Q 1172 2650 1078 2428 
Q 984 2206 984 1816 
L 984 0 
L 422 0 
z
" transform="scale(0.015625)"/>
        <path id="ArialMT-65" d="M 2694 1069 
L 3275 997 
Q 3138 488 2766 206 
Q 2394 -75 1816 -75 
Q 1088 -75 661 373 
Q 234 822 234 1631 
Q 234 2469 665 2931 
Q 1097 3394 1784 3394 
Q 2450 3394 2872 2941 
Q 3294 2488 3294 1666 
Q 3294 1616 3291 1516 
L 816 1516 
Q 847 969 1125 678 
Q 1403 388 1819 388 
Q 2128 388 2347 550 
Q 2566 713 2694 1069 
z
M 847 1978 
L 2700 1978 
Q 2663 2397 2488 2606 
Q 2219 2931 1791 2931 
Q 1403 2931 1139 2672 
Q 875 2413 847 1978 
z
" transform="scale(0.015625)"/>
        <path id="ArialMT-41" d="M -9 0 
L 1750 4581 
L 2403 4581 
L 4278 0 
L 3588 0 
L 3053 1388 
L 1138 1388 
L 634 0 
L -9 0 
z
M 1313 1881 
L 2866 1881 
L 2388 3150 
Q 2169 3728 2063 4100 
Q 1975 3659 1816 3225 
L 1313 1881 
z
" transform="scale(0.015625)"/>
        <path id="ArialMT-6d" d="M 422 0 
L 422 3319 
L 925 3319 
L 925 2853 
Q 1081 3097 1340 3245 
Q 1600 3394 1931 3394 
Q 2300 3394 2536 3241 
Q 2772 3088 2869 2813 
Q 3263 3394 3894 3394 
Q 4388 3394 4653 3120 
Q 4919 2847 4919 2278 
L 4919 0 
L 4359 0 
L 4359 2091 
Q 4359 2428 4304 2576 
Q 4250 2725 4106 2815 
Q 3963 2906 3769 2906 
Q 3419 2906 3187 2673 
Q 2956 2441 2956 1928 
L 2956 0 
L 2394 0 
L 2394 2156 
Q 2394 2531 2256 2718 
Q 2119 2906 1806 2906 
Q 1569 2906 1367 2781 
Q 1166 2656 1075 2415 
Q 984 2175 984 1722 
L 984 0 
L 422 0 
z
" transform="scale(0.015625)"/>
       </defs>
       <use xlink:href="#ArialMT-4f"/>
       <use xlink:href="#ArialMT-74" x="77.783203"/>
       <use xlink:href="#ArialMT-68" x="105.566406"/>
       <use xlink:href="#ArialMT-65" x="161.181641"/>
       <use xlink:href="#ArialMT-72" x="216.796875"/>
       <use xlink:href="#ArialMT-20" x="250.097656"/>
       <use xlink:href="#ArialMT-41" x="272.380859"/>
       <use xlink:href="#ArialMT-73" x="339.080078"/>
       <use xlink:href="#ArialMT-73" x="389.080078"/>
       <use xlink:href="#ArialMT-65" x="439.080078"/>
       <use xlink:href="#ArialMT-73" x="494.695312"/>
       <use xlink:href="#ArialMT-73" x="544.695312"/>
       <use xlink:href="#ArialMT-6d" x="594.695312"/>
       <use xlink:href="#ArialMT-65" x="677.996094"/>
       <use xlink:href="#ArialMT-6e" x="733.611328"/>
       <use xlink:href="#ArialMT-74" x="789.226562"/>
      </g>
     </g>
    </g>
   </g>
   <g id="LineCollection_1">
    <path d="M 198.660041 389.435084 
L 198.660041 389.435084 
" clip-path="url(#pe5f87aed36)" style="fill: none; stroke: #001c7f; stroke-width: 2"/>
    <path d="M 255.562676 389.435084 
L 255.562676 355.512007 
" clip-path="url(#pe5f87aed36)" style="fill: none; stroke: #001c7f; stroke-width: 2"/>
    <path d="M 284.013993 389.435084 
L 284.013993 338.550469 
" clip-path="url(#pe5f87aed36)" style="fill: none; stroke: #001c7f; stroke-width: 2"/>
    <path d="M 312.46531 389.435084 
L 312.46531 372.473546 
" clip-path="url(#pe5f87aed36)" style="fill: none; stroke: #001c7f; stroke-width: 2"/>
    <path d="M 340.916628 389.435084 
L 340.916628 355.512007 
" clip-path="url(#pe5f87aed36)" style="fill: none; stroke: #001c7f; stroke-width: 2"/>
    <path d="M 369.367945 372.473546 
L 369.367945 355.512007 
" clip-path="url(#pe5f87aed36)" style="fill: none; stroke: #001c7f; stroke-width: 2"/>
    <path d="M 397.819262 389.435084 
L 397.819262 338.550469 
" clip-path="url(#pe5f87aed36)" style="fill: none; stroke: #001c7f; stroke-width: 2"/>
    <path d="M 426.27058 389.435084 
L 426.27058 338.550469 
" clip-path="url(#pe5f87aed36)" style="fill: none; stroke: #001c7f; stroke-width: 2"/>
    <path d="M 454.721897 338.550469 
L 454.721897 338.550469 
" clip-path="url(#pe5f87aed36)" style="fill: none; stroke: #001c7f; stroke-width: 2"/>
    <path d="M 483.173215 372.473546 
L 483.173215 338.550469 
" clip-path="url(#pe5f87aed36)" style="fill: none; stroke: #001c7f; stroke-width: 2"/>
    <path d="M 511.624532 389.435084 
L 511.624532 321.58893 
" clip-path="url(#pe5f87aed36)" style="fill: none; stroke: #001c7f; stroke-width: 2"/>
    <path d="M 540.075849 389.435084 
L 540.075849 338.550469 
" clip-path="url(#pe5f87aed36)" style="fill: none; stroke: #001c7f; stroke-width: 2"/>
    <path d="M 568.527167 372.473546 
L 568.527167 372.473546 
" clip-path="url(#pe5f87aed36)" style="fill: none; stroke: #001c7f; stroke-width: 2"/>
    <path d="M 596.978484 321.58893 
L 596.978484 321.58893 
" clip-path="url(#pe5f87aed36)" style="fill: none; stroke: #001c7f; stroke-width: 2"/>
    <path d="M 625.429801 389.435084 
L 625.429801 321.58893 
" clip-path="url(#pe5f87aed36)" style="fill: none; stroke: #001c7f; stroke-width: 2"/>
    <path d="M 653.881119 372.473546 
L 653.881119 338.550469 
" clip-path="url(#pe5f87aed36)" style="fill: none; stroke: #001c7f; stroke-width: 2"/>
    <path d="M 682.332436 389.435084 
L 682.332436 321.58893 
" clip-path="url(#pe5f87aed36)" style="fill: none; stroke: #001c7f; stroke-width: 2"/>
    <path d="M 710.783753 355.512007 
L 710.783753 338.550469 
" clip-path="url(#pe5f87aed36)" style="fill: none; stroke: #001c7f; stroke-width: 2"/>
    <path d="M 739.235071 355.512007 
L 739.235071 321.58893 
" clip-path="url(#pe5f87aed36)" style="fill: none; stroke: #001c7f; stroke-width: 2"/>
    <path d="M 767.686388 389.435084 
L 767.686388 321.58893 
" clip-path="url(#pe5f87aed36)" style="fill: none; stroke: #001c7f; stroke-width: 2"/>
    <path d="M 796.137706 389.435084 
L 796.137706 321.58893 
" clip-path="url(#pe5f87aed36)" style="fill: none; stroke: #001c7f; stroke-width: 2"/>
   </g>
   <g id="PathCollection_1">
    <defs>
     <path id="C0_0_e20b81b897" d="M 0 5.6 
C 1.485137 5.6 2.909647 5.009949 3.959798 3.959798 
C 5.009949 2.909647 5.6 1.485137 5.6 -0 
C 5.6 -1.485137 5.009949 -2.909647 3.959798 -3.959798 
C 2.909647 -5.009949 1.485137 -5.6 0 -5.6 
C -1.485137 -5.6 -2.909647 -5.009949 -3.959798 -3.959798 
C -5.009949 -2.909647 -5.6 -1.485137 -5.6 0 
C -5.6 1.485137 -5.009949 2.909647 -3.959798 3.959798 
C -2.909647 5.009949 -1.485137 5.6 0 5.6 
z
"/>
    </defs>
    <g clip-path="url(#pe5f87aed36)">
     <use xlink:href="#C0_0_e20b81b897" x="198.660041" y="389.435084" style="fill: #001c7f; stroke: #001c7f"/>
    </g>
    <g clip-path="url(#pe5f87aed36)">
     <use xlink:href="#C0_0_e20b81b897" x="198.660041" y="372.473546" style="fill-opacity: 0.180392"/>
    </g>
    <g clip-path="url(#pe5f87aed36)">
     <use xlink:href="#C0_0_e20b81b897" x="198.660041" y="355.512007" style="fill-opacity: 0.180392"/>
    </g>
    <g clip-path="url(#pe5f87aed36)">
     <use xlink:href="#C0_0_e20b81b897" x="198.660041" y="338.550469" style="fill-opacity: 0.180392"/>
    </g>
    <g clip-path="url(#pe5f87aed36)">
     <use xlink:href="#C0_0_e20b81b897" x="198.660041" y="321.58893" style="fill-opacity: 0.180392"/>
    </g>
    <g clip-path="url(#pe5f87aed36)">
     <use xlink:href="#C0_0_e20b81b897" x="227.111358" y="389.435084" style="fill-opacity: 0.180392"/>
    </g>
    <g clip-path="url(#pe5f87aed36)">
     <use xlink:href="#C0_0_e20b81b897" x="227.111358" y="372.473546" style="fill-opacity: 0.180392"/>
    </g>
    <g clip-path="url(#pe5f87aed36)">
     <use xlink:href="#C0_0_e20b81b897" x="227.111358" y="355.512007" style="fill-opacity: 0.180392"/>
    </g>
    <g clip-path="url(#pe5f87aed36)">
     <use xlink:href="#C0_0_e20b81b897" x="227.111358" y="338.550469" style="fill-opacity: 0.180392"/>
    </g>
    <g clip-path="url(#pe5f87aed36)">
     <use xlink:href="#C0_0_e20b81b897" x="227.111358" y="321.58893" style="fill-opacity: 0.180392"/>
    </g>
    <g clip-path="url(#pe5f87aed36)">
     <use xlink:href="#C0_0_e20b81b897" x="255.562676" y="389.435084" style="fill: #001c7f; stroke: #001c7f"/>
    </g>
    <g clip-path="url(#pe5f87aed36)">
     <use xlink:href="#C0_0_e20b81b897" x="255.562676" y="372.473546" style="fill: #001c7f; stroke: #001c7f"/>
    </g>
    <g clip-path="url(#pe5f87aed36)">
     <use xlink:href="#C0_0_e20b81b897" x="255.562676" y="355.512007" style="fill: #001c7f; stroke: #001c7f"/>
    </g>
    <g clip-path="url(#pe5f87aed36)">
     <use xlink:href="#C0_0_e20b81b897" x="255.562676" y="338.550469" style="fill-opacity: 0.180392"/>
    </g>
    <g clip-path="url(#pe5f87aed36)">
     <use xlink:href="#C0_0_e20b81b897" x="255.562676" y="321.58893" style="fill-opacity: 0.180392"/>
    </g>
    <g clip-path="url(#pe5f87aed36)">
     <use xlink:href="#C0_0_e20b81b897" x="284.013993" y="389.435084" style="fill: #001c7f; stroke: #001c7f"/>
    </g>
    <g clip-path="url(#pe5f87aed36)">
     <use xlink:href="#C0_0_e20b81b897" x="284.013993" y="372.473546" style="fill: #001c7f; stroke: #001c7f"/>
    </g>
    <g clip-path="url(#pe5f87aed36)">
     <use xlink:href="#C0_0_e20b81b897" x="284.013993" y="355.512007" style="fill: #001c7f; stroke: #001c7f"/>
    </g>
    <g clip-path="url(#pe5f87aed36)">
     <use xlink:href="#C0_0_e20b81b897" x="284.013993" y="338.550469" style="fill: #001c7f; stroke: #001c7f"/>
    </g>
    <g clip-path="url(#pe5f87aed36)">
     <use xlink:href="#C0_0_e20b81b897" x="284.013993" y="321.58893" style="fill-opacity: 0.180392"/>
    </g>
    <g clip-path="url(#pe5f87aed36)">
     <use xlink:href="#C0_0_e20b81b897" x="312.46531" y="389.435084" style="fill: #001c7f; stroke: #001c7f"/>
    </g>
    <g clip-path="url(#pe5f87aed36)">
     <use xlink:href="#C0_0_e20b81b897" x="312.46531" y="372.473546" style="fill: #001c7f; stroke: #001c7f"/>
    </g>
    <g clip-path="url(#pe5f87aed36)">
     <use xlink:href="#C0_0_e20b81b897" x="312.46531" y="355.512007" style="fill-opacity: 0.180392"/>
    </g>
    <g clip-path="url(#pe5f87aed36)">
     <use xlink:href="#C0_0_e20b81b897" x="312.46531" y="338.550469" style="fill-opacity: 0.180392"/>
    </g>
    <g clip-path="url(#pe5f87aed36)">
     <use xlink:href="#C0_0_e20b81b897" x="312.46531" y="321.58893" style="fill-opacity: 0.180392"/>
    </g>
    <g clip-path="url(#pe5f87aed36)">
     <use xlink:href="#C0_0_e20b81b897" x="340.916628" y="389.435084" style="fill: #001c7f; stroke: #001c7f"/>
    </g>
    <g clip-path="url(#pe5f87aed36)">
     <use xlink:href="#C0_0_e20b81b897" x="340.916628" y="372.473546" style="fill-opacity: 0.180392"/>
    </g>
    <g clip-path="url(#pe5f87aed36)">
     <use xlink:href="#C0_0_e20b81b897" x="340.916628" y="355.512007" style="fill: #001c7f; stroke: #001c7f"/>
    </g>
    <g clip-path="url(#pe5f87aed36)">
     <use xlink:href="#C0_0_e20b81b897" x="340.916628" y="338.550469" style="fill-opacity: 0.180392"/>
    </g>
    <g clip-path="url(#pe5f87aed36)">
     <use xlink:href="#C0_0_e20b81b897" x="340.916628" y="321.58893" style="fill-opacity: 0.180392"/>
    </g>
    <g clip-path="url(#pe5f87aed36)">
     <use xlink:href="#C0_0_e20b81b897" x="369.367945" y="389.435084" style="fill-opacity: 0.180392"/>
    </g>
    <g clip-path="url(#pe5f87aed36)">
     <use xlink:href="#C0_0_e20b81b897" x="369.367945" y="372.473546" style="fill: #001c7f; stroke: #001c7f"/>
    </g>
    <g clip-path="url(#pe5f87aed36)">
     <use xlink:href="#C0_0_e20b81b897" x="369.367945" y="355.512007" style="fill: #001c7f; stroke: #001c7f"/>
    </g>
    <g clip-path="url(#pe5f87aed36)">
     <use xlink:href="#C0_0_e20b81b897" x="369.367945" y="338.550469" style="fill-opacity: 0.180392"/>
    </g>
    <g clip-path="url(#pe5f87aed36)">
     <use xlink:href="#C0_0_e20b81b897" x="369.367945" y="321.58893" style="fill-opacity: 0.180392"/>
    </g>
    <g clip-path="url(#pe5f87aed36)">
     <use xlink:href="#C0_0_e20b81b897" x="397.819262" y="389.435084" style="fill: #001c7f; stroke: #001c7f"/>
    </g>
    <g clip-path="url(#pe5f87aed36)">
     <use xlink:href="#C0_0_e20b81b897" x="397.819262" y="372.473546" style="fill: #001c7f; stroke: #001c7f"/>
    </g>
    <g clip-path="url(#pe5f87aed36)">
     <use xlink:href="#C0_0_e20b81b897" x="397.819262" y="355.512007" style="fill-opacity: 0.180392"/>
    </g>
    <g clip-path="url(#pe5f87aed36)">
     <use xlink:href="#C0_0_e20b81b897" x="397.819262" y="338.550469" style="fill: #001c7f; stroke: #001c7f"/>
    </g>
    <g clip-path="url(#pe5f87aed36)">
     <use xlink:href="#C0_0_e20b81b897" x="397.819262" y="321.58893" style="fill-opacity: 0.180392"/>
    </g>
    <g clip-path="url(#pe5f87aed36)">
     <use xlink:href="#C0_0_e20b81b897" x="426.27058" y="389.435084" style="fill: #001c7f; stroke: #001c7f"/>
    </g>
    <g clip-path="url(#pe5f87aed36)">
     <use xlink:href="#C0_0_e20b81b897" x="426.27058" y="372.473546" style="fill-opacity: 0.180392"/>
    </g>
    <g clip-path="url(#pe5f87aed36)">
     <use xlink:href="#C0_0_e20b81b897" x="426.27058" y="355.512007" style="fill-opacity: 0.180392"/>
    </g>
    <g clip-path="url(#pe5f87aed36)">
     <use xlink:href="#C0_0_e20b81b897" x="426.27058" y="338.550469" style="fill: #001c7f; stroke: #001c7f"/>
    </g>
    <g clip-path="url(#pe5f87aed36)">
     <use xlink:href="#C0_0_e20b81b897" x="426.27058" y="321.58893" style="fill-opacity: 0.180392"/>
    </g>
    <g clip-path="url(#pe5f87aed36)">
     <use xlink:href="#C0_0_e20b81b897" x="454.721897" y="389.435084" style="fill-opacity: 0.180392"/>
    </g>
    <g clip-path="url(#pe5f87aed36)">
     <use xlink:href="#C0_0_e20b81b897" x="454.721897" y="372.473546" style="fill-opacity: 0.180392"/>
    </g>
    <g clip-path="url(#pe5f87aed36)">
     <use xlink:href="#C0_0_e20b81b897" x="454.721897" y="355.512007" style="fill-opacity: 0.180392"/>
    </g>
    <g clip-path="url(#pe5f87aed36)">
     <use xlink:href="#C0_0_e20b81b897" x="454.721897" y="338.550469" style="fill: #001c7f; stroke: #001c7f"/>
    </g>
    <g clip-path="url(#pe5f87aed36)">
     <use xlink:href="#C0_0_e20b81b897" x="454.721897" y="321.58893" style="fill-opacity: 0.180392"/>
    </g>
    <g clip-path="url(#pe5f87aed36)">
     <use xlink:href="#C0_0_e20b81b897" x="483.173215" y="389.435084" style="fill-opacity: 0.180392"/>
    </g>
    <g clip-path="url(#pe5f87aed36)">
     <use xlink:href="#C0_0_e20b81b897" x="483.173215" y="372.473546" style="fill: #001c7f; stroke: #001c7f"/>
    </g>
    <g clip-path="url(#pe5f87aed36)">
     <use xlink:href="#C0_0_e20b81b897" x="483.173215" y="355.512007" style="fill: #001c7f; stroke: #001c7f"/>
    </g>
    <g clip-path="url(#pe5f87aed36)">
     <use xlink:href="#C0_0_e20b81b897" x="483.173215" y="338.550469" style="fill: #001c7f; stroke: #001c7f"/>
    </g>
    <g clip-path="url(#pe5f87aed36)">
     <use xlink:href="#C0_0_e20b81b897" x="483.173215" y="321.58893" style="fill-opacity: 0.180392"/>
    </g>
    <g clip-path="url(#pe5f87aed36)">
     <use xlink:href="#C0_0_e20b81b897" x="511.624532" y="389.435084" style="fill: #001c7f; stroke: #001c7f"/>
    </g>
    <g clip-path="url(#pe5f87aed36)">
     <use xlink:href="#C0_0_e20b81b897" x="511.624532" y="372.473546" style="fill-opacity: 0.180392"/>
    </g>
    <g clip-path="url(#pe5f87aed36)">
     <use xlink:href="#C0_0_e20b81b897" x="511.624532" y="355.512007" style="fill-opacity: 0.180392"/>
    </g>
    <g clip-path="url(#pe5f87aed36)">
     <use xlink:href="#C0_0_e20b81b897" x="511.624532" y="338.550469" style="fill-opacity: 0.180392"/>
    </g>
    <g clip-path="url(#pe5f87aed36)">
     <use xlink:href="#C0_0_e20b81b897" x="511.624532" y="321.58893" style="fill: #001c7f; stroke: #001c7f"/>
    </g>
    <g clip-path="url(#pe5f87aed36)">
     <use xlink:href="#C0_0_e20b81b897" x="540.075849" y="389.435084" style="fill: #001c7f; stroke: #001c7f"/>
    </g>
    <g clip-path="url(#pe5f87aed36)">
     <use xlink:href="#C0_0_e20b81b897" x="540.075849" y="372.473546" style="fill-opacity: 0.180392"/>
    </g>
    <g clip-path="url(#pe5f87aed36)">
     <use xlink:href="#C0_0_e20b81b897" x="540.075849" y="355.512007" style="fill: #001c7f; stroke: #001c7f"/>
    </g>
    <g clip-path="url(#pe5f87aed36)">
     <use xlink:href="#C0_0_e20b81b897" x="540.075849" y="338.550469" style="fill: #001c7f; stroke: #001c7f"/>
    </g>
    <g clip-path="url(#pe5f87aed36)">
     <use xlink:href="#C0_0_e20b81b897" x="540.075849" y="321.58893" style="fill-opacity: 0.180392"/>
    </g>
    <g clip-path="url(#pe5f87aed36)">
     <use xlink:href="#C0_0_e20b81b897" x="568.527167" y="389.435084" style="fill-opacity: 0.180392"/>
    </g>
    <g clip-path="url(#pe5f87aed36)">
     <use xlink:href="#C0_0_e20b81b897" x="568.527167" y="372.473546" style="fill: #001c7f; stroke: #001c7f"/>
    </g>
    <g clip-path="url(#pe5f87aed36)">
     <use xlink:href="#C0_0_e20b81b897" x="568.527167" y="355.512007" style="fill-opacity: 0.180392"/>
    </g>
    <g clip-path="url(#pe5f87aed36)">
     <use xlink:href="#C0_0_e20b81b897" x="568.527167" y="338.550469" style="fill-opacity: 0.180392"/>
    </g>
    <g clip-path="url(#pe5f87aed36)">
     <use xlink:href="#C0_0_e20b81b897" x="568.527167" y="321.58893" style="fill-opacity: 0.180392"/>
    </g>
    <g clip-path="url(#pe5f87aed36)">
     <use xlink:href="#C0_0_e20b81b897" x="596.978484" y="389.435084" style="fill-opacity: 0.180392"/>
    </g>
    <g clip-path="url(#pe5f87aed36)">
     <use xlink:href="#C0_0_e20b81b897" x="596.978484" y="372.473546" style="fill-opacity: 0.180392"/>
    </g>
    <g clip-path="url(#pe5f87aed36)">
     <use xlink:href="#C0_0_e20b81b897" x="596.978484" y="355.512007" style="fill-opacity: 0.180392"/>
    </g>
    <g clip-path="url(#pe5f87aed36)">
     <use xlink:href="#C0_0_e20b81b897" x="596.978484" y="338.550469" style="fill-opacity: 0.180392"/>
    </g>
    <g clip-path="url(#pe5f87aed36)">
     <use xlink:href="#C0_0_e20b81b897" x="596.978484" y="321.58893" style="fill: #001c7f; stroke: #001c7f"/>
    </g>
    <g clip-path="url(#pe5f87aed36)">
     <use xlink:href="#C0_0_e20b81b897" x="625.429801" y="389.435084" style="fill: #001c7f; stroke: #001c7f"/>
    </g>
    <g clip-path="url(#pe5f87aed36)">
     <use xlink:href="#C0_0_e20b81b897" x="625.429801" y="372.473546" style="fill-opacity: 0.180392"/>
    </g>
    <g clip-path="url(#pe5f87aed36)">
     <use xlink:href="#C0_0_e20b81b897" x="625.429801" y="355.512007" style="fill-opacity: 0.180392"/>
    </g>
    <g clip-path="url(#pe5f87aed36)">
     <use xlink:href="#C0_0_e20b81b897" x="625.429801" y="338.550469" style="fill: #001c7f; stroke: #001c7f"/>
    </g>
    <g clip-path="url(#pe5f87aed36)">
     <use xlink:href="#C0_0_e20b81b897" x="625.429801" y="321.58893" style="fill: #001c7f; stroke: #001c7f"/>
    </g>
    <g clip-path="url(#pe5f87aed36)">
     <use xlink:href="#C0_0_e20b81b897" x="653.881119" y="389.435084" style="fill-opacity: 0.180392"/>
    </g>
    <g clip-path="url(#pe5f87aed36)">
     <use xlink:href="#C0_0_e20b81b897" x="653.881119" y="372.473546" style="fill: #001c7f; stroke: #001c7f"/>
    </g>
    <g clip-path="url(#pe5f87aed36)">
     <use xlink:href="#C0_0_e20b81b897" x="653.881119" y="355.512007" style="fill-opacity: 0.180392"/>
    </g>
    <g clip-path="url(#pe5f87aed36)">
     <use xlink:href="#C0_0_e20b81b897" x="653.881119" y="338.550469" style="fill: #001c7f; stroke: #001c7f"/>
    </g>
    <g clip-path="url(#pe5f87aed36)">
     <use xlink:href="#C0_0_e20b81b897" x="653.881119" y="321.58893" style="fill-opacity: 0.180392"/>
    </g>
    <g clip-path="url(#pe5f87aed36)">
     <use xlink:href="#C0_0_e20b81b897" x="682.332436" y="389.435084" style="fill: #001c7f; stroke: #001c7f"/>
    </g>
    <g clip-path="url(#pe5f87aed36)">
     <use xlink:href="#C0_0_e20b81b897" x="682.332436" y="372.473546" style="fill: #001c7f; stroke: #001c7f"/>
    </g>
    <g clip-path="url(#pe5f87aed36)">
     <use xlink:href="#C0_0_e20b81b897" x="682.332436" y="355.512007" style="fill-opacity: 0.180392"/>
    </g>
    <g clip-path="url(#pe5f87aed36)">
     <use xlink:href="#C0_0_e20b81b897" x="682.332436" y="338.550469" style="fill-opacity: 0.180392"/>
    </g>
    <g clip-path="url(#pe5f87aed36)">
     <use xlink:href="#C0_0_e20b81b897" x="682.332436" y="321.58893" style="fill: #001c7f; stroke: #001c7f"/>
    </g>
    <g clip-path="url(#pe5f87aed36)">
     <use xlink:href="#C0_0_e20b81b897" x="710.783753" y="389.435084" style="fill-opacity: 0.180392"/>
    </g>
    <g clip-path="url(#pe5f87aed36)">
     <use xlink:href="#C0_0_e20b81b897" x="710.783753" y="372.473546" style="fill-opacity: 0.180392"/>
    </g>
    <g clip-path="url(#pe5f87aed36)">
     <use xlink:href="#C0_0_e20b81b897" x="710.783753" y="355.512007" style="fill: #001c7f; stroke: #001c7f"/>
    </g>
    <g clip-path="url(#pe5f87aed36)">
     <use xlink:href="#C0_0_e20b81b897" x="710.783753" y="338.550469" style="fill: #001c7f; stroke: #001c7f"/>
    </g>
    <g clip-path="url(#pe5f87aed36)">
     <use xlink:href="#C0_0_e20b81b897" x="710.783753" y="321.58893" style="fill-opacity: 0.180392"/>
    </g>
    <g clip-path="url(#pe5f87aed36)">
     <use xlink:href="#C0_0_e20b81b897" x="739.235071" y="389.435084" style="fill-opacity: 0.180392"/>
    </g>
    <g clip-path="url(#pe5f87aed36)">
     <use xlink:href="#C0_0_e20b81b897" x="739.235071" y="372.473546" style="fill-opacity: 0.180392"/>
    </g>
    <g clip-path="url(#pe5f87aed36)">
     <use xlink:href="#C0_0_e20b81b897" x="739.235071" y="355.512007" style="fill: #001c7f; stroke: #001c7f"/>
    </g>
    <g clip-path="url(#pe5f87aed36)">
     <use xlink:href="#C0_0_e20b81b897" x="739.235071" y="338.550469" style="fill-opacity: 0.180392"/>
    </g>
    <g clip-path="url(#pe5f87aed36)">
     <use xlink:href="#C0_0_e20b81b897" x="739.235071" y="321.58893" style="fill: #001c7f; stroke: #001c7f"/>
    </g>
    <g clip-path="url(#pe5f87aed36)">
     <use xlink:href="#C0_0_e20b81b897" x="767.686388" y="389.435084" style="fill: #001c7f; stroke: #001c7f"/>
    </g>
    <g clip-path="url(#pe5f87aed36)">
     <use xlink:href="#C0_0_e20b81b897" x="767.686388" y="372.473546" style="fill: #001c7f; stroke: #001c7f"/>
    </g>
    <g clip-path="url(#pe5f87aed36)">
     <use xlink:href="#C0_0_e20b81b897" x="767.686388" y="355.512007" style="fill: #001c7f; stroke: #001c7f"/>
    </g>
    <g clip-path="url(#pe5f87aed36)">
     <use xlink:href="#C0_0_e20b81b897" x="767.686388" y="338.550469" style="fill-opacity: 0.180392"/>
    </g>
    <g clip-path="url(#pe5f87aed36)">
     <use xlink:href="#C0_0_e20b81b897" x="767.686388" y="321.58893" style="fill: #001c7f; stroke: #001c7f"/>
    </g>
    <g clip-path="url(#pe5f87aed36)">
     <use xlink:href="#C0_0_e20b81b897" x="796.137706" y="389.435084" style="fill: #001c7f; stroke: #001c7f"/>
    </g>
    <g clip-path="url(#pe5f87aed36)">
     <use xlink:href="#C0_0_e20b81b897" x="796.137706" y="372.473546" style="fill: #001c7f; stroke: #001c7f"/>
    </g>
    <g clip-path="url(#pe5f87aed36)">
     <use xlink:href="#C0_0_e20b81b897" x="796.137706" y="355.512007" style="fill: #001c7f; stroke: #001c7f"/>
    </g>
    <g clip-path="url(#pe5f87aed36)">
     <use xlink:href="#C0_0_e20b81b897" x="796.137706" y="338.550469" style="fill: #001c7f; stroke: #001c7f"/>
    </g>
    <g clip-path="url(#pe5f87aed36)">
     <use xlink:href="#C0_0_e20b81b897" x="796.137706" y="321.58893" style="fill: #001c7f; stroke: #001c7f"/>
    </g>
   </g>
  </g>
  <g id="axes_3">
   <g id="matplotlib.axis_4">
    <g id="xtick_1">
     <g id="line2d_6">
      <path d="M 64.982286 400.290469 
L 64.982286 310.733546 
" clip-path="url(#p62783fe10e)" style="fill: none; stroke: #cccccc; stroke-linecap: round"/>
     </g>
     <g id="line2d_7">
      <defs>
       <path id="ma8e5116032" d="M 0 0 
L 0 6 
" style="stroke: #262626; stroke-width: 1.25"/>
      </defs>
      <g>
       <use xlink:href="#ma8e5116032" x="64.982286" y="400.290469" style="fill: #262626; stroke: #262626; stroke-width: 1.25"/>
      </g>
     </g>
     <g id="text_6">
      <!-- 0 -->
      <g style="fill: #262626" transform="translate(61.08963 419.811406) scale(0.14 -0.14)">
       <defs>
        <path id="ArialMT-30" d="M 266 2259 
Q 266 3072 433 3567 
Q 600 4063 929 4331 
Q 1259 4600 1759 4600 
Q 2128 4600 2406 4451 
Q 2684 4303 2865 4023 
Q 3047 3744 3150 3342 
Q 3253 2941 3253 2259 
Q 3253 1453 3087 958 
Q 2922 463 2592 192 
Q 2263 -78 1759 -78 
Q 1097 -78 719 397 
Q 266 969 266 2259 
z
M 844 2259 
Q 844 1131 1108 757 
Q 1372 384 1759 384 
Q 2147 384 2411 759 
Q 2675 1134 2675 2259 
Q 2675 3391 2411 3762 
Q 2147 4134 1753 4134 
Q 1366 4134 1134 3806 
Q 844 3388 844 2259 
z
" transform="scale(0.015625)"/>
       </defs>
       <use xlink:href="#ArialMT-30"/>
      </g>
     </g>
    </g>
    <g id="xtick_2">
     <g id="line2d_8">
      <path d="M 18.877969 400.290469 
L 18.877969 310.733546 
" clip-path="url(#p62783fe10e)" style="fill: none; stroke: #cccccc; stroke-linecap: round"/>
     </g>
     <g id="line2d_9">
      <g>
       <use xlink:href="#ma8e5116032" x="18.877969" y="400.290469" style="fill: #262626; stroke: #262626; stroke-width: 1.25"/>
      </g>
     </g>
     <g id="text_7">
      <!-- 250 -->
      <g style="fill: #262626" transform="translate(7.2 419.811406) scale(0.14 -0.14)">
       <defs>
        <path id="ArialMT-32" d="M 3222 541 
L 3222 0 
L 194 0 
Q 188 203 259 391 
Q 375 700 629 1000 
Q 884 1300 1366 1694 
Q 2113 2306 2375 2664 
Q 2638 3022 2638 3341 
Q 2638 3675 2398 3904 
Q 2159 4134 1775 4134 
Q 1369 4134 1125 3890 
Q 881 3647 878 3216 
L 300 3275 
Q 359 3922 746 4261 
Q 1134 4600 1788 4600 
Q 2447 4600 2831 4234 
Q 3216 3869 3216 3328 
Q 3216 3053 3103 2787 
Q 2991 2522 2730 2228 
Q 2469 1934 1863 1422 
Q 1356 997 1212 845 
Q 1069 694 975 541 
L 3222 541 
z
" transform="scale(0.015625)"/>
        <path id="ArialMT-35" d="M 266 1200 
L 856 1250 
Q 922 819 1161 601 
Q 1400 384 1738 384 
Q 2144 384 2425 690 
Q 2706 997 2706 1503 
Q 2706 1984 2436 2262 
Q 2166 2541 1728 2541 
Q 1456 2541 1237 2417 
Q 1019 2294 894 2097 
L 366 2166 
L 809 4519 
L 3088 4519 
L 3088 3981 
L 1259 3981 
L 1013 2750 
Q 1425 3038 1878 3038 
Q 2478 3038 2890 2622 
Q 3303 2206 3303 1553 
Q 3303 931 2941 478 
Q 2500 -78 1738 -78 
Q 1113 -78 717 272 
Q 322 622 266 1200 
z
" transform="scale(0.015625)"/>
       </defs>
       <use xlink:href="#ArialMT-32"/>
       <use xlink:href="#ArialMT-35" x="55.615234"/>
       <use xlink:href="#ArialMT-30" x="111.230469"/>
      </g>
     </g>
    </g>
   </g>
   <g id="patch_7">
    <path d="M 64.982286 393.675469 
L 12.423364 393.675469 
L 12.423364 385.1947 
L 64.982286 385.1947 
z
" clip-path="url(#p62783fe10e)" style="stroke: #000000; stroke-linejoin: miter"/>
   </g>
   <g id="patch_8">
    <path d="M 64.982286 376.71393 
L 51.150991 376.71393 
L 51.150991 368.233161 
L 64.982286 368.233161 
z
" clip-path="url(#p62783fe10e)" style="stroke: #000000; stroke-linejoin: miter"/>
   </g>
   <g id="patch_9">
    <path d="M 64.982286 359.752392 
L 52.626329 359.752392 
L 52.626329 351.271623 
L 64.982286 351.271623 
z
" clip-path="url(#p62783fe10e)" style="stroke: #000000; stroke-linejoin: miter"/>
   </g>
   <g id="patch_10">
    <path d="M 64.982286 342.790853 
L 57.790013 342.790853 
L 57.790013 334.310084 
L 64.982286 334.310084 
z
" clip-path="url(#p62783fe10e)" style="stroke: #000000; stroke-linejoin: miter"/>
   </g>
   <g id="patch_11">
    <path d="M 64.982286 325.829315 
L 63.506948 325.829315 
L 63.506948 317.348546 
L 64.982286 317.348546 
z
" clip-path="url(#p62783fe10e)" style="stroke: #000000; stroke-linejoin: miter"/>
   </g>
   <g id="patch_12">
    <path d="M 12.423364 400.290469 
L 64.982286 400.290469 
" style="fill: none; stroke: #262626; stroke-width: 1.25; stroke-linejoin: miter; stroke-linecap: square"/>
   </g>
  </g>
  <g id="axes_4">
   <g id="patch_13">
    <path d="M 184.434382 300.782776 
L 810.363364 300.782776 
L 810.363364 12.210469 
L 184.434382 12.210469 
z
" style="fill: #ffffff"/>
   </g>
   <g id="matplotlib.axis_5">
    <g id="ytick_11">
     <g id="line2d_10">
      <defs>
       <path id="m4ec5af18f0" d="M 0 0 
L -6 0 
" style="stroke: #262626; stroke-width: 1.25"/>
      </defs>
      <g>
       <use xlink:href="#m4ec5af18f0" x="184.434382" y="300.782776" style="fill: #262626; stroke: #262626; stroke-width: 1.25"/>
      </g>
     </g>
     <g id="text_8">
      <!-- 0 -->
      <g style="fill: #262626" transform="translate(167.14907 305.793245) scale(0.14 -0.14)">
       <defs>
        <path id="Arial-BoldMT-30" d="M 1756 4600 
Q 2422 4600 2797 4125 
Q 3244 3563 3244 2259 
Q 3244 959 2794 391 
Q 2422 -78 1756 -78 
Q 1088 -78 678 436 
Q 269 950 269 2269 
Q 269 3563 719 4131 
Q 1091 4600 1756 4600 
z
M 1756 3872 
Q 1597 3872 1472 3770 
Q 1347 3669 1278 3406 
Q 1188 3066 1188 2259 
Q 1188 1453 1269 1151 
Q 1350 850 1473 750 
Q 1597 650 1756 650 
Q 1916 650 2041 751 
Q 2166 853 2234 1116 
Q 2325 1453 2325 2259 
Q 2325 3066 2244 3367 
Q 2163 3669 2039 3770 
Q 1916 3872 1756 3872 
z
" transform="scale(0.015625)"/>
       </defs>
       <use xlink:href="#Arial-BoldMT-30"/>
      </g>
     </g>
    </g>
    <g id="ytick_12">
     <g id="line2d_11">
      <g>
       <use xlink:href="#m4ec5af18f0" x="184.434382" y="268.719187" style="fill: #262626; stroke: #262626; stroke-width: 1.25"/>
      </g>
     </g>
     <g id="text_9">
      <!-- 25 -->
      <g style="fill: #262626" transform="translate(159.363757 273.729655) scale(0.14 -0.14)">
       <defs>
        <path id="Arial-BoldMT-32" d="M 3238 816 
L 3238 0 
L 159 0 
Q 209 463 459 877 
Q 709 1291 1447 1975 
Q 2041 2528 2175 2725 
Q 2356 2997 2356 3263 
Q 2356 3556 2198 3714 
Q 2041 3872 1763 3872 
Q 1488 3872 1325 3706 
Q 1163 3541 1138 3156 
L 263 3244 
Q 341 3969 753 4284 
Q 1166 4600 1784 4600 
Q 2463 4600 2850 4234 
Q 3238 3869 3238 3325 
Q 3238 3016 3127 2736 
Q 3016 2456 2775 2150 
Q 2616 1947 2200 1565 
Q 1784 1184 1673 1059 
Q 1563 934 1494 816 
L 3238 816 
z
" transform="scale(0.015625)"/>
        <path id="Arial-BoldMT-35" d="M 284 1178 
L 1159 1269 
Q 1197 972 1381 798 
Q 1566 625 1806 625 
Q 2081 625 2272 848 
Q 2463 1072 2463 1522 
Q 2463 1944 2273 2155 
Q 2084 2366 1781 2366 
Q 1403 2366 1103 2031 
L 391 2134 
L 841 4519 
L 3163 4519 
L 3163 3697 
L 1506 3697 
L 1369 2919 
Q 1663 3066 1969 3066 
Q 2553 3066 2959 2641 
Q 3366 2216 3366 1538 
Q 3366 972 3038 528 
Q 2591 -78 1797 -78 
Q 1163 -78 763 262 
Q 363 603 284 1178 
z
" transform="scale(0.015625)"/>
       </defs>
       <use xlink:href="#Arial-BoldMT-32"/>
       <use xlink:href="#Arial-BoldMT-35" x="55.615234"/>
      </g>
     </g>
    </g>
    <g id="ytick_13">
     <g id="line2d_12">
      <g>
       <use xlink:href="#m4ec5af18f0" x="184.434382" y="236.655597" style="fill: #262626; stroke: #262626; stroke-width: 1.25"/>
      </g>
     </g>
     <g id="text_10">
      <!-- 50 -->
      <g style="fill: #262626" transform="translate(159.363757 241.666066) scale(0.14 -0.14)">
       <use xlink:href="#Arial-BoldMT-35"/>
       <use xlink:href="#Arial-BoldMT-30" x="55.615234"/>
      </g>
     </g>
    </g>
    <g id="ytick_14">
     <g id="line2d_13">
      <g>
       <use xlink:href="#m4ec5af18f0" x="184.434382" y="204.592007" style="fill: #262626; stroke: #262626; stroke-width: 1.25"/>
      </g>
     </g>
     <g id="text_11">
      <!-- 75 -->
      <g style="fill: #262626" transform="translate(159.363757 209.602476) scale(0.14 -0.14)">
       <defs>
        <path id="Arial-BoldMT-37" d="M 272 3703 
L 272 4519 
L 3275 4519 
L 3275 3881 
Q 2903 3516 2518 2831 
Q 2134 2147 1932 1376 
Q 1731 606 1734 0 
L 888 0 
Q 909 950 1279 1937 
Q 1650 2925 2269 3703 
L 272 3703 
z
" transform="scale(0.015625)"/>
       </defs>
       <use xlink:href="#Arial-BoldMT-37"/>
       <use xlink:href="#Arial-BoldMT-35" x="55.615234"/>
      </g>
     </g>
    </g>
    <g id="ytick_15">
     <g id="line2d_14">
      <g>
       <use xlink:href="#m4ec5af18f0" x="184.434382" y="172.528417" style="fill: #262626; stroke: #262626; stroke-width: 1.25"/>
      </g>
     </g>
     <g id="text_12">
      <!-- 100 -->
      <g style="fill: #262626" transform="translate(151.578445 177.538886) scale(0.14 -0.14)">
       <defs>
        <path id="Arial-BoldMT-31" d="M 2519 0 
L 1641 0 
L 1641 3309 
Q 1159 2859 506 2644 
L 506 3441 
Q 850 3553 1253 3867 
Q 1656 4181 1806 4600 
L 2519 4600 
L 2519 0 
z
" transform="scale(0.015625)"/>
       </defs>
       <use xlink:href="#Arial-BoldMT-31"/>
       <use xlink:href="#Arial-BoldMT-30" x="55.615234"/>
       <use xlink:href="#Arial-BoldMT-30" x="111.230469"/>
      </g>
     </g>
    </g>
    <g id="ytick_16">
     <g id="line2d_15">
      <g>
       <use xlink:href="#m4ec5af18f0" x="184.434382" y="140.464828" style="fill: #262626; stroke: #262626; stroke-width: 1.25"/>
      </g>
     </g>
     <g id="text_13">
      <!-- 125 -->
      <g style="fill: #262626" transform="translate(151.578445 145.475296) scale(0.14 -0.14)">
       <use xlink:href="#Arial-BoldMT-31"/>
       <use xlink:href="#Arial-BoldMT-32" x="55.615234"/>
       <use xlink:href="#Arial-BoldMT-35" x="111.230469"/>
      </g>
     </g>
    </g>
    <g id="ytick_17">
     <g id="line2d_16">
      <g>
       <use xlink:href="#m4ec5af18f0" x="184.434382" y="108.401238" style="fill: #262626; stroke: #262626; stroke-width: 1.25"/>
      </g>
     </g>
     <g id="text_14">
      <!-- 150 -->
      <g style="fill: #262626" transform="translate(151.578445 113.411707) scale(0.14 -0.14)">
       <use xlink:href="#Arial-BoldMT-31"/>
       <use xlink:href="#Arial-BoldMT-35" x="55.615234"/>
       <use xlink:href="#Arial-BoldMT-30" x="111.230469"/>
      </g>
     </g>
    </g>
    <g id="ytick_18">
     <g id="line2d_17">
      <g>
       <use xlink:href="#m4ec5af18f0" x="184.434382" y="76.337648" style="fill: #262626; stroke: #262626; stroke-width: 1.25"/>
      </g>
     </g>
     <g id="text_15">
      <!-- 175 -->
      <g style="fill: #262626" transform="translate(151.578445 81.348117) scale(0.14 -0.14)">
       <use xlink:href="#Arial-BoldMT-31"/>
       <use xlink:href="#Arial-BoldMT-37" x="55.615234"/>
       <use xlink:href="#Arial-BoldMT-35" x="111.230469"/>
      </g>
     </g>
    </g>
    <g id="ytick_19">
     <g id="line2d_18">
      <g>
       <use xlink:href="#m4ec5af18f0" x="184.434382" y="44.274058" style="fill: #262626; stroke: #262626; stroke-width: 1.25"/>
      </g>
     </g>
     <g id="text_16">
      <!-- 200 -->
      <g style="fill: #262626" transform="translate(151.578445 49.284527) scale(0.14 -0.14)">
       <use xlink:href="#Arial-BoldMT-32"/>
       <use xlink:href="#Arial-BoldMT-30" x="55.615234"/>
       <use xlink:href="#Arial-BoldMT-30" x="111.230469"/>
      </g>
     </g>
    </g>
    <g id="ytick_20">
     <g id="line2d_19">
      <g>
       <use xlink:href="#m4ec5af18f0" x="184.434382" y="12.210469" style="fill: #262626; stroke: #262626; stroke-width: 1.25"/>
      </g>
     </g>
     <g id="text_17">
      <!-- 225 -->
      <g style="fill: #262626" transform="translate(151.578445 17.220937) scale(0.14 -0.14)">
       <use xlink:href="#Arial-BoldMT-32"/>
       <use xlink:href="#Arial-BoldMT-32" x="55.615234"/>
       <use xlink:href="#Arial-BoldMT-35" x="111.230469"/>
      </g>
     </g>
    </g>
    <g id="text_18">
     <!-- Intersection Size -->
     <g style="fill: #262626" transform="translate(144.618288 216.093498) rotate(-90) scale(0.15 -0.15)">
      <defs>
       <path id="Arial-BoldMT-49" d="M 438 0 
L 438 4581 
L 1363 4581 
L 1363 0 
L 438 0 
z
" transform="scale(0.015625)"/>
       <path id="Arial-BoldMT-6e" d="M 3478 0 
L 2600 0 
L 2600 1694 
Q 2600 2231 2544 2389 
Q 2488 2547 2361 2634 
Q 2234 2722 2056 2722 
Q 1828 2722 1647 2597 
Q 1466 2472 1398 2265 
Q 1331 2059 1331 1503 
L 1331 0 
L 453 0 
L 453 3319 
L 1269 3319 
L 1269 2831 
Q 1703 3394 2363 3394 
Q 2653 3394 2893 3289 
Q 3134 3184 3257 3021 
Q 3381 2859 3429 2653 
Q 3478 2447 3478 2063 
L 3478 0 
z
" transform="scale(0.015625)"/>
       <path id="Arial-BoldMT-74" d="M 1981 3319 
L 1981 2619 
L 1381 2619 
L 1381 1281 
Q 1381 875 1398 808 
Q 1416 741 1477 697 
Q 1538 653 1625 653 
Q 1747 653 1978 738 
L 2053 56 
Q 1747 -75 1359 -75 
Q 1122 -75 931 4 
Q 741 84 652 211 
Q 563 338 528 553 
Q 500 706 500 1172 
L 500 2619 
L 97 2619 
L 97 3319 
L 500 3319 
L 500 3978 
L 1381 4491 
L 1381 3319 
L 1981 3319 
z
" transform="scale(0.015625)"/>
       <path id="Arial-BoldMT-65" d="M 2381 1056 
L 3256 909 
Q 3088 428 2723 176 
Q 2359 -75 1813 -75 
Q 947 -75 531 491 
Q 203 944 203 1634 
Q 203 2459 634 2926 
Q 1066 3394 1725 3394 
Q 2466 3394 2894 2905 
Q 3322 2416 3303 1406 
L 1103 1406 
Q 1113 1016 1316 798 
Q 1519 581 1822 581 
Q 2028 581 2168 693 
Q 2309 806 2381 1056 
z
M 2431 1944 
Q 2422 2325 2234 2523 
Q 2047 2722 1778 2722 
Q 1491 2722 1303 2513 
Q 1116 2303 1119 1944 
L 2431 1944 
z
" transform="scale(0.015625)"/>
       <path id="Arial-BoldMT-72" d="M 1300 0 
L 422 0 
L 422 3319 
L 1238 3319 
L 1238 2847 
Q 1447 3181 1614 3287 
Q 1781 3394 1994 3394 
Q 2294 3394 2572 3228 
L 2300 2463 
Q 2078 2606 1888 2606 
Q 1703 2606 1575 2504 
Q 1447 2403 1373 2137 
Q 1300 1872 1300 1025 
L 1300 0 
z
" transform="scale(0.015625)"/>
       <path id="Arial-BoldMT-73" d="M 150 947 
L 1031 1081 
Q 1088 825 1259 692 
Q 1431 559 1741 559 
Q 2081 559 2253 684 
Q 2369 772 2369 919 
Q 2369 1019 2306 1084 
Q 2241 1147 2013 1200 
Q 950 1434 666 1628 
Q 272 1897 272 2375 
Q 272 2806 612 3100 
Q 953 3394 1669 3394 
Q 2350 3394 2681 3172 
Q 3013 2950 3138 2516 
L 2309 2363 
Q 2256 2556 2107 2659 
Q 1959 2763 1684 2763 
Q 1338 2763 1188 2666 
Q 1088 2597 1088 2488 
Q 1088 2394 1175 2328 
Q 1294 2241 1995 2081 
Q 2697 1922 2975 1691 
Q 3250 1456 3250 1038 
Q 3250 581 2869 253 
Q 2488 -75 1741 -75 
Q 1063 -75 667 200 
Q 272 475 150 947 
z
" transform="scale(0.015625)"/>
       <path id="Arial-BoldMT-63" d="M 3353 2338 
L 2488 2181 
Q 2444 2441 2289 2572 
Q 2134 2703 1888 2703 
Q 1559 2703 1364 2476 
Q 1169 2250 1169 1719 
Q 1169 1128 1367 884 
Q 1566 641 1900 641 
Q 2150 641 2309 783 
Q 2469 925 2534 1272 
L 3397 1125 
Q 3263 531 2881 228 
Q 2500 -75 1859 -75 
Q 1131 -75 698 384 
Q 266 844 266 1656 
Q 266 2478 700 2936 
Q 1134 3394 1875 3394 
Q 2481 3394 2839 3133 
Q 3197 2872 3353 2338 
z
" transform="scale(0.015625)"/>
       <path id="Arial-BoldMT-69" d="M 459 3769 
L 459 4581 
L 1338 4581 
L 1338 3769 
L 459 3769 
z
M 459 0 
L 459 3319 
L 1338 3319 
L 1338 0 
L 459 0 
z
" transform="scale(0.015625)"/>
       <path id="Arial-BoldMT-6f" d="M 256 1706 
Q 256 2144 472 2553 
Q 688 2963 1083 3178 
Q 1478 3394 1966 3394 
Q 2719 3394 3200 2905 
Q 3681 2416 3681 1669 
Q 3681 916 3195 420 
Q 2709 -75 1972 -75 
Q 1516 -75 1102 131 
Q 688 338 472 736 
Q 256 1134 256 1706 
z
M 1156 1659 
Q 1156 1166 1390 903 
Q 1625 641 1969 641 
Q 2313 641 2545 903 
Q 2778 1166 2778 1666 
Q 2778 2153 2545 2415 
Q 2313 2678 1969 2678 
Q 1625 2678 1390 2415 
Q 1156 2153 1156 1659 
z
" transform="scale(0.015625)"/>
       <path id="Arial-BoldMT-20" transform="scale(0.015625)"/>
       <path id="Arial-BoldMT-53" d="M 231 1491 
L 1131 1578 
Q 1213 1125 1461 912 
Q 1709 700 2131 700 
Q 2578 700 2804 889 
Q 3031 1078 3031 1331 
Q 3031 1494 2936 1608 
Q 2841 1722 2603 1806 
Q 2441 1863 1863 2006 
Q 1119 2191 819 2459 
Q 397 2838 397 3381 
Q 397 3731 595 4036 
Q 794 4341 1167 4500 
Q 1541 4659 2069 4659 
Q 2931 4659 3367 4281 
Q 3803 3903 3825 3272 
L 2900 3231 
Q 2841 3584 2645 3739 
Q 2450 3894 2059 3894 
Q 1656 3894 1428 3728 
Q 1281 3622 1281 3444 
Q 1281 3281 1419 3166 
Q 1594 3019 2269 2859 
Q 2944 2700 3267 2529 
Q 3591 2359 3773 2064 
Q 3956 1769 3956 1334 
Q 3956 941 3737 597 
Q 3519 253 3119 86 
Q 2719 -81 2122 -81 
Q 1253 -81 787 320 
Q 322 722 231 1491 
z
" transform="scale(0.015625)"/>
       <path id="Arial-BoldMT-7a" d="M 106 0 
L 106 684 
L 1350 2113 
Q 1656 2463 1803 2609 
Q 1650 2600 1400 2597 
L 228 2591 
L 228 3319 
L 2972 3319 
L 2972 2697 
L 1703 1234 
L 1256 750 
Q 1622 772 1709 772 
L 3069 772 
L 3069 0 
L 106 0 
z
" transform="scale(0.015625)"/>
      </defs>
      <use xlink:href="#Arial-BoldMT-49"/>
      <use xlink:href="#Arial-BoldMT-6e" x="27.783203"/>
      <use xlink:href="#Arial-BoldMT-74" x="88.867188"/>
      <use xlink:href="#Arial-BoldMT-65" x="122.167969"/>
      <use xlink:href="#Arial-BoldMT-72" x="177.783203"/>
      <use xlink:href="#Arial-BoldMT-73" x="216.699219"/>
      <use xlink:href="#Arial-BoldMT-65" x="272.314453"/>
      <use xlink:href="#Arial-BoldMT-63" x="327.929688"/>
      <use xlink:href="#Arial-BoldMT-74" x="383.544922"/>
      <use xlink:href="#Arial-BoldMT-69" x="416.845703"/>
      <use xlink:href="#Arial-BoldMT-6f" x="444.628906"/>
      <use xlink:href="#Arial-BoldMT-6e" x="505.712891"/>
      <use xlink:href="#Arial-BoldMT-20" x="566.796875"/>
      <use xlink:href="#Arial-BoldMT-53" x="594.580078"/>
      <use xlink:href="#Arial-BoldMT-69" x="661.279297"/>
      <use xlink:href="#Arial-BoldMT-7a" x="689.0625"/>
      <use xlink:href="#Arial-BoldMT-65" x="739.0625"/>
     </g>
    </g>
   </g>
   <g id="patch_14">
    <path d="M 184.434382 300.782776 
L 184.434382 12.210469 
" style="fill: none; stroke: #262626; stroke-width: 1.25; stroke-linejoin: miter; stroke-linecap: square"/>
   </g>
   <g id="patch_15">
    <path d="M 191.547212 300.782776 
L 205.77287 300.782776 
L 205.77287 36.578797 
L 191.547212 36.578797 
z
" clip-path="url(#p81f3cab66e)" style="fill: #001c7f; stroke: #001c7f; stroke-linejoin: miter"/>
   </g>
   <g id="patch_16">
    <path d="M 219.998529 300.782776 
L 234.224188 300.782776 
L 234.224188 145.595002 
L 219.998529 145.595002 
z
" clip-path="url(#p81f3cab66e)" style="fill: #001c7f; stroke: #001c7f; stroke-linejoin: miter"/>
   </g>
   <g id="patch_17">
    <path d="M 248.449846 300.782776 
L 262.675505 300.782776 
L 262.675505 264.871556 
L 248.449846 264.871556 
z
" clip-path="url(#p81f3cab66e)" style="fill: #001c7f; stroke: #001c7f; stroke-linejoin: miter"/>
   </g>
   <g id="patch_18">
    <path d="M 276.901164 300.782776 
L 291.126822 300.782776 
L 291.126822 276.414448 
L 276.901164 276.414448 
z
" clip-path="url(#p81f3cab66e)" style="fill: #001c7f; stroke: #001c7f; stroke-linejoin: miter"/>
   </g>
   <g id="patch_19">
    <path d="M 305.352481 300.782776 
L 319.57814 300.782776 
L 319.57814 289.239884 
L 305.352481 289.239884 
z
" clip-path="url(#p81f3cab66e)" style="fill: #001c7f; stroke: #001c7f; stroke-linejoin: miter"/>
   </g>
   <g id="patch_20">
    <path d="M 333.803798 300.782776 
L 348.029457 300.782776 
L 348.029457 293.087515 
L 333.803798 293.087515 
z
" clip-path="url(#p81f3cab66e)" style="fill: #001c7f; stroke: #001c7f; stroke-linejoin: miter"/>
   </g>
   <g id="patch_21">
    <path d="M 362.255116 300.782776 
L 376.480774 300.782776 
L 376.480774 293.087515 
L 362.255116 293.087515 
z
" clip-path="url(#p81f3cab66e)" style="fill: #001c7f; stroke: #001c7f; stroke-linejoin: miter"/>
   </g>
   <g id="patch_22">
    <path d="M 390.706433 300.782776 
L 404.932092 300.782776 
L 404.932092 294.370058 
L 390.706433 294.370058 
z
" clip-path="url(#p81f3cab66e)" style="fill: #001c7f; stroke: #001c7f; stroke-linejoin: miter"/>
   </g>
   <g id="patch_23">
    <path d="M 419.157751 300.782776 
L 433.383409 300.782776 
L 433.383409 295.652602 
L 419.157751 295.652602 
z
" clip-path="url(#p81f3cab66e)" style="fill: #001c7f; stroke: #001c7f; stroke-linejoin: miter"/>
   </g>
   <g id="patch_24">
    <path d="M 447.609068 300.782776 
L 461.834727 300.782776 
L 461.834727 296.935146 
L 447.609068 296.935146 
z
" clip-path="url(#p81f3cab66e)" style="fill: #001c7f; stroke: #001c7f; stroke-linejoin: miter"/>
   </g>
   <g id="patch_25">
    <path d="M 476.060385 300.782776 
L 490.286044 300.782776 
L 490.286044 298.217689 
L 476.060385 298.217689 
z
" clip-path="url(#p81f3cab66e)" style="fill: #001c7f; stroke: #001c7f; stroke-linejoin: miter"/>
   </g>
   <g id="patch_26">
    <path d="M 504.511703 300.782776 
L 518.737361 300.782776 
L 518.737361 298.217689 
L 504.511703 298.217689 
z
" clip-path="url(#p81f3cab66e)" style="fill: #001c7f; stroke: #001c7f; stroke-linejoin: miter"/>
   </g>
   <g id="patch_27">
    <path d="M 532.96302 300.782776 
L 547.188679 300.782776 
L 547.188679 298.217689 
L 532.96302 298.217689 
z
" clip-path="url(#p81f3cab66e)" style="fill: #001c7f; stroke: #001c7f; stroke-linejoin: miter"/>
   </g>
   <g id="patch_28">
    <path d="M 561.414337 300.782776 
L 575.639996 300.782776 
L 575.639996 298.217689 
L 561.414337 298.217689 
z
" clip-path="url(#p81f3cab66e)" style="fill: #001c7f; stroke: #001c7f; stroke-linejoin: miter"/>
   </g>
   <g id="patch_29">
    <path d="M 589.865655 300.782776 
L 604.091313 300.782776 
L 604.091313 299.500233 
L 589.865655 299.500233 
z
" clip-path="url(#p81f3cab66e)" style="fill: #001c7f; stroke: #001c7f; stroke-linejoin: miter"/>
   </g>
   <g id="patch_30">
    <path d="M 618.316972 300.782776 
L 632.542631 300.782776 
L 632.542631 299.500233 
L 618.316972 299.500233 
z
" clip-path="url(#p81f3cab66e)" style="fill: #001c7f; stroke: #001c7f; stroke-linejoin: miter"/>
   </g>
   <g id="patch_31">
    <path d="M 646.768289 300.782776 
L 660.993948 300.782776 
L 660.993948 299.500233 
L 646.768289 299.500233 
z
" clip-path="url(#p81f3cab66e)" style="fill: #001c7f; stroke: #001c7f; stroke-linejoin: miter"/>
   </g>
   <g id="patch_32">
    <path d="M 675.219607 300.782776 
L 689.445265 300.782776 
L 689.445265 299.500233 
L 675.219607 299.500233 
z
" clip-path="url(#p81f3cab66e)" style="fill: #001c7f; stroke: #001c7f; stroke-linejoin: miter"/>
   </g>
   <g id="patch_33">
    <path d="M 703.670924 300.782776 
L 717.896583 300.782776 
L 717.896583 299.500233 
L 703.670924 299.500233 
z
" clip-path="url(#p81f3cab66e)" style="fill: #001c7f; stroke: #001c7f; stroke-linejoin: miter"/>
   </g>
   <g id="patch_34">
    <path d="M 732.122242 300.782776 
L 746.3479 300.782776 
L 746.3479 299.500233 
L 732.122242 299.500233 
z
" clip-path="url(#p81f3cab66e)" style="fill: #001c7f; stroke: #001c7f; stroke-linejoin: miter"/>
   </g>
   <g id="patch_35">
    <path d="M 760.573559 300.782776 
L 774.799218 300.782776 
L 774.799218 299.500233 
L 760.573559 299.500233 
z
" clip-path="url(#p81f3cab66e)" style="fill: #001c7f; stroke: #001c7f; stroke-linejoin: miter"/>
   </g>
   <g id="patch_36">
    <path d="M 789.024876 300.782776 
L 803.250535 300.782776 
L 803.250535 299.500233 
L 789.024876 299.500233 
z
" clip-path="url(#p81f3cab66e)" style="fill: #001c7f; stroke: #001c7f; stroke-linejoin: miter"/>
   </g>
  </g>
 </g>
 <defs>
  <clipPath id="p5221db0f89">
   <rect x="12.423364" y="310.733546" width="797.94" height="89.556923"/>
  </clipPath>
  <clipPath id="pe5f87aed36">
   <rect x="184.434382" y="310.733546" width="625.928982" height="89.556923"/>
  </clipPath>
  <clipPath id="p62783fe10e">
   <rect x="12.423364" y="310.733546" width="52.558922" height="89.556923"/>
  </clipPath>
  <clipPath id="p81f3cab66e">
   <rect x="184.434382" y="12.210469" width="625.928982" height="288.572308"/>
  </clipPath>
 </defs>
</svg>
