<?xml version="1.0" encoding="utf-8" standalone="no"?>
<!DOCTYPE svg PUBLIC "-//W3C//DTD SVG 1.1//EN"
  "http://www.w3.org/Graphics/SVG/1.1/DTD/svg11.dtd">
<svg xmlns:xlink="http://www.w3.org/1999/xlink" width="516.6pt" height="429.793906pt" viewBox="0 0 516.6 429.793906" xmlns="http://www.w3.org/2000/svg" version="1.1">
 <metadata>
  <rdf:RDF xmlns:dc="http://purl.org/dc/elements/1.1/" xmlns:cc="http://creativecommons.org/ns#" xmlns:rdf="http://www.w3.org/1999/02/22-rdf-syntax-ns#">
   <cc:Work>
    <dc:type rdf:resource="http://purl.org/dc/dcmitype/StillImage"/>
    <dc:date>2024-09-05T12:43:02.331881</dc:date>
    <dc:format>image/svg+xml</dc:format>
    <dc:creator>
     <cc:Agent>
      <dc:title>Matplotlib v3.7.1, https://matplotlib.org/</dc:title>
     </cc:Agent>
    </dc:creator>
   </cc:Work>
  </rdf:RDF>
 </metadata>
 <defs>
  <style type="text/css">*{stroke-linejoin: round; stroke-linecap: butt}</style>
 </defs>
 <g id="figure_1">
  <g id="patch_1">
   <path d="M 0 429.793906 
L 516.6 429.793906 
L 516.6 0 
L 0 0 
z
" style="fill: #ffffff"/>
  </g>
  <g id="axes_1">
   <g id="patch_2">
    <path d="M 7.2 395.557786 
L 509.4 395.557786 
L 509.4 382.502109 
L 7.2 382.502109 
z
" clip-path="url(#p2a184a4458)" style="fill-opacity: 0.05098"/>
   </g>
   <g id="patch_3">
    <path d="M 7.2 379.23819 
L 509.4 379.23819 
L 509.4 366.182512 
L 7.2 366.182512 
L 7.2 379.23819 
z
" clip-path="url(#p2a184a4458)" style="fill: none"/>
   </g>
   <g id="patch_4">
    <path d="M 7.2 362.918593 
L 509.4 362.918593 
L 509.4 349.862916 
L 7.2 349.862916 
z
" clip-path="url(#p2a184a4458)" style="fill-opacity: 0.05098"/>
   </g>
   <g id="patch_5">
    <path d="M 7.2 346.598997 
L 509.4 346.598997 
L 509.4 333.54332 
L 7.2 333.54332 
L 7.2 346.598997 
z
" clip-path="url(#p2a184a4458)" style="fill: none"/>
   </g>
   <g id="patch_6">
    <path d="M 7.2 330.279401 
L 509.4 330.279401 
L 509.4 317.223724 
L 7.2 317.223724 
z
" clip-path="url(#p2a184a4458)" style="fill-opacity: 0.05098"/>
   </g>
   <g id="patch_7">
    <path d="M 7.2 313.959804 
L 509.4 313.959804 
L 509.4 300.904127 
L 7.2 300.904127 
L 7.2 313.959804 
z
" clip-path="url(#p2a184a4458)" style="fill: none"/>
   </g>
   <g id="matplotlib.axis_1"/>
   <g id="matplotlib.axis_2">
    <g id="ytick_1"/>
    <g id="ytick_2"/>
    <g id="ytick_3"/>
    <g id="ytick_4"/>
    <g id="ytick_5"/>
    <g id="ytick_6"/>
   </g>
  </g>
  <g id="axes_2">
   <g id="matplotlib.axis_3">
    <g id="ytick_7">
     <g id="line2d_1"/>
     <g id="text_1">
      <!-- Hypertension -->
      <g style="fill: #262626" transform="translate(118.341171 394.040416) scale(0.14 -0.14)">
       <defs>
        <path id="ArialMT-48" d="M 513 0 
L 513 4581 
L 1119 4581 
L 1119 2700 
L 3500 2700 
L 3500 4581 
L 4106 4581 
L 4106 0 
L 3500 0 
L 3500 2159 
L 1119 2159 
L 1119 0 
L 513 0 
z
" transform="scale(0.015625)"/>
        <path id="ArialMT-79" d="M 397 -1278 
L 334 -750 
Q 519 -800 656 -800 
Q 844 -800 956 -737 
Q 1069 -675 1141 -563 
Q 1194 -478 1313 -144 
Q 1328 -97 1363 -6 
L 103 3319 
L 709 3319 
L 1400 1397 
Q 1534 1031 1641 628 
Q 1738 1016 1872 1384 
L 2581 3319 
L 3144 3319 
L 1881 -56 
Q 1678 -603 1566 -809 
Q 1416 -1088 1222 -1217 
Q 1028 -1347 759 -1347 
Q 597 -1347 397 -1278 
z
" transform="scale(0.015625)"/>
        <path id="ArialMT-70" d="M 422 -1272 
L 422 3319 
L 934 3319 
L 934 2888 
Q 1116 3141 1344 3267 
Q 1572 3394 1897 3394 
Q 2322 3394 2647 3175 
Q 2972 2956 3137 2557 
Q 3303 2159 3303 1684 
Q 3303 1175 3120 767 
Q 2938 359 2589 142 
Q 2241 -75 1856 -75 
Q 1575 -75 1351 44 
Q 1128 163 984 344 
L 984 -1272 
L 422 -1272 
z
M 931 1641 
Q 931 1000 1190 694 
Q 1450 388 1819 388 
Q 2194 388 2461 705 
Q 2728 1022 2728 1688 
Q 2728 2322 2467 2637 
Q 2206 2953 1844 2953 
Q 1484 2953 1207 2617 
Q 931 2281 931 1641 
z
" transform="scale(0.015625)"/>
        <path id="ArialMT-65" d="M 2694 1069 
L 3275 997 
Q 3138 488 2766 206 
Q 2394 -75 1816 -75 
Q 1088 -75 661 373 
Q 234 822 234 1631 
Q 234 2469 665 2931 
Q 1097 3394 1784 3394 
Q 2450 3394 2872 2941 
Q 3294 2488 3294 1666 
Q 3294 1616 3291 1516 
L 816 1516 
Q 847 969 1125 678 
Q 1403 388 1819 388 
Q 2128 388 2347 550 
Q 2566 713 2694 1069 
z
M 847 1978 
L 2700 1978 
Q 2663 2397 2488 2606 
Q 2219 2931 1791 2931 
Q 1403 2931 1139 2672 
Q 875 2413 847 1978 
z
" transform="scale(0.015625)"/>
        <path id="ArialMT-72" d="M 416 0 
L 416 3319 
L 922 3319 
L 922 2816 
Q 1116 3169 1280 3281 
Q 1444 3394 1641 3394 
Q 1925 3394 2219 3213 
L 2025 2691 
Q 1819 2813 1613 2813 
Q 1428 2813 1281 2702 
Q 1134 2591 1072 2394 
Q 978 2094 978 1738 
L 978 0 
L 416 0 
z
" transform="scale(0.015625)"/>
        <path id="ArialMT-74" d="M 1650 503 
L 1731 6 
Q 1494 -44 1306 -44 
Q 1000 -44 831 53 
Q 663 150 594 308 
Q 525 466 525 972 
L 525 2881 
L 113 2881 
L 113 3319 
L 525 3319 
L 525 4141 
L 1084 4478 
L 1084 3319 
L 1650 3319 
L 1650 2881 
L 1084 2881 
L 1084 941 
Q 1084 700 1114 631 
Q 1144 563 1211 522 
Q 1278 481 1403 481 
Q 1497 481 1650 503 
z
" transform="scale(0.015625)"/>
        <path id="ArialMT-6e" d="M 422 0 
L 422 3319 
L 928 3319 
L 928 2847 
Q 1294 3394 1984 3394 
Q 2284 3394 2536 3286 
Q 2788 3178 2913 3003 
Q 3038 2828 3088 2588 
Q 3119 2431 3119 2041 
L 3119 0 
L 2556 0 
L 2556 2019 
Q 2556 2363 2490 2533 
Q 2425 2703 2258 2804 
Q 2091 2906 1866 2906 
Q 1506 2906 1245 2678 
Q 984 2450 984 1813 
L 984 0 
L 422 0 
z
" transform="scale(0.015625)"/>
        <path id="ArialMT-73" d="M 197 991 
L 753 1078 
Q 800 744 1014 566 
Q 1228 388 1613 388 
Q 2000 388 2187 545 
Q 2375 703 2375 916 
Q 2375 1106 2209 1216 
Q 2094 1291 1634 1406 
Q 1016 1563 777 1677 
Q 538 1791 414 1992 
Q 291 2194 291 2438 
Q 291 2659 392 2848 
Q 494 3038 669 3163 
Q 800 3259 1026 3326 
Q 1253 3394 1513 3394 
Q 1903 3394 2198 3281 
Q 2494 3169 2634 2976 
Q 2775 2784 2828 2463 
L 2278 2388 
Q 2241 2644 2061 2787 
Q 1881 2931 1553 2931 
Q 1166 2931 1000 2803 
Q 834 2675 834 2503 
Q 834 2394 903 2306 
Q 972 2216 1119 2156 
Q 1203 2125 1616 2013 
Q 2213 1853 2448 1751 
Q 2684 1650 2818 1456 
Q 2953 1263 2953 975 
Q 2953 694 2789 445 
Q 2625 197 2315 61 
Q 2006 -75 1616 -75 
Q 969 -75 630 194 
Q 291 463 197 991 
z
" transform="scale(0.015625)"/>
        <path id="ArialMT-69" d="M 425 3934 
L 425 4581 
L 988 4581 
L 988 3934 
L 425 3934 
z
M 425 0 
L 425 3319 
L 988 3319 
L 988 0 
L 425 0 
z
" transform="scale(0.015625)"/>
        <path id="ArialMT-6f" d="M 213 1659 
Q 213 2581 725 3025 
Q 1153 3394 1769 3394 
Q 2453 3394 2887 2945 
Q 3322 2497 3322 1706 
Q 3322 1066 3130 698 
Q 2938 331 2570 128 
Q 2203 -75 1769 -75 
Q 1072 -75 642 372 
Q 213 819 213 1659 
z
M 791 1659 
Q 791 1022 1069 705 
Q 1347 388 1769 388 
Q 2188 388 2466 706 
Q 2744 1025 2744 1678 
Q 2744 2294 2464 2611 
Q 2184 2928 1769 2928 
Q 1347 2928 1069 2612 
Q 791 2297 791 1659 
z
" transform="scale(0.015625)"/>
       </defs>
       <use xlink:href="#ArialMT-48"/>
       <use xlink:href="#ArialMT-79" x="72.216797"/>
       <use xlink:href="#ArialMT-70" x="122.216797"/>
       <use xlink:href="#ArialMT-65" x="177.832031"/>
       <use xlink:href="#ArialMT-72" x="233.447266"/>
       <use xlink:href="#ArialMT-74" x="266.748047"/>
       <use xlink:href="#ArialMT-65" x="294.53125"/>
       <use xlink:href="#ArialMT-6e" x="350.146484"/>
       <use xlink:href="#ArialMT-73" x="405.761719"/>
       <use xlink:href="#ArialMT-69" x="455.761719"/>
       <use xlink:href="#ArialMT-6f" x="477.978516"/>
       <use xlink:href="#ArialMT-6e" x="533.59375"/>
      </g>
     </g>
    </g>
    <g id="ytick_8">
     <g id="line2d_2"/>
     <g id="text_2">
      <!-- Depression -->
      <g style="fill: #262626" transform="translate(130.015859 377.72082) scale(0.14 -0.14)">
       <defs>
        <path id="ArialMT-44" d="M 494 0 
L 494 4581 
L 2072 4581 
Q 2606 4581 2888 4516 
Q 3281 4425 3559 4188 
Q 3922 3881 4101 3404 
Q 4281 2928 4281 2316 
Q 4281 1794 4159 1391 
Q 4038 988 3847 723 
Q 3656 459 3429 307 
Q 3203 156 2883 78 
Q 2563 0 2147 0 
L 494 0 
z
M 1100 541 
L 2078 541 
Q 2531 541 2789 625 
Q 3047 709 3200 863 
Q 3416 1078 3536 1442 
Q 3656 1806 3656 2325 
Q 3656 3044 3420 3430 
Q 3184 3816 2847 3947 
Q 2603 4041 2063 4041 
L 1100 4041 
L 1100 541 
z
" transform="scale(0.015625)"/>
       </defs>
       <use xlink:href="#ArialMT-44"/>
       <use xlink:href="#ArialMT-65" x="72.216797"/>
       <use xlink:href="#ArialMT-70" x="127.832031"/>
       <use xlink:href="#ArialMT-72" x="183.447266"/>
       <use xlink:href="#ArialMT-65" x="216.748047"/>
       <use xlink:href="#ArialMT-73" x="272.363281"/>
       <use xlink:href="#ArialMT-73" x="322.363281"/>
       <use xlink:href="#ArialMT-69" x="372.363281"/>
       <use xlink:href="#ArialMT-6f" x="394.580078"/>
       <use xlink:href="#ArialMT-6e" x="450.195312"/>
      </g>
     </g>
    </g>
    <g id="ytick_9">
     <g id="line2d_3"/>
     <g id="text_3">
      <!-- Other -->
      <g style="fill: #262626" transform="translate(165.814296 361.401223) scale(0.14 -0.14)">
       <defs>
        <path id="ArialMT-4f" d="M 309 2231 
Q 309 3372 921 4017 
Q 1534 4663 2503 4663 
Q 3138 4663 3647 4359 
Q 4156 4056 4423 3514 
Q 4691 2972 4691 2284 
Q 4691 1588 4409 1038 
Q 4128 488 3612 205 
Q 3097 -78 2500 -78 
Q 1853 -78 1343 234 
Q 834 547 571 1087 
Q 309 1628 309 2231 
z
M 934 2222 
Q 934 1394 1379 917 
Q 1825 441 2497 441 
Q 3181 441 3623 922 
Q 4066 1403 4066 2288 
Q 4066 2847 3877 3264 
Q 3688 3681 3323 3911 
Q 2959 4141 2506 4141 
Q 1863 4141 1398 3698 
Q 934 3256 934 2222 
z
" transform="scale(0.015625)"/>
        <path id="ArialMT-68" d="M 422 0 
L 422 4581 
L 984 4581 
L 984 2938 
Q 1378 3394 1978 3394 
Q 2347 3394 2619 3248 
Q 2891 3103 3008 2847 
Q 3125 2591 3125 2103 
L 3125 0 
L 2563 0 
L 2563 2103 
Q 2563 2525 2380 2717 
Q 2197 2909 1863 2909 
Q 1613 2909 1392 2779 
Q 1172 2650 1078 2428 
Q 984 2206 984 1816 
L 984 0 
L 422 0 
z
" transform="scale(0.015625)"/>
       </defs>
       <use xlink:href="#ArialMT-4f"/>
       <use xlink:href="#ArialMT-74" x="77.783203"/>
       <use xlink:href="#ArialMT-68" x="105.566406"/>
       <use xlink:href="#ArialMT-65" x="161.181641"/>
       <use xlink:href="#ArialMT-72" x="216.796875"/>
      </g>
     </g>
    </g>
    <g id="ytick_10">
     <g id="line2d_4"/>
     <g id="text_4">
      <!-- Stroke -->
      <g style="fill: #262626" transform="translate(160.365234 345.081627) scale(0.14 -0.14)">
       <defs>
        <path id="ArialMT-53" d="M 288 1472 
L 859 1522 
Q 900 1178 1048 958 
Q 1197 738 1509 602 
Q 1822 466 2213 466 
Q 2559 466 2825 569 
Q 3091 672 3220 851 
Q 3350 1031 3350 1244 
Q 3350 1459 3225 1620 
Q 3100 1781 2813 1891 
Q 2628 1963 1997 2114 
Q 1366 2266 1113 2400 
Q 784 2572 623 2826 
Q 463 3081 463 3397 
Q 463 3744 659 4045 
Q 856 4347 1234 4503 
Q 1613 4659 2075 4659 
Q 2584 4659 2973 4495 
Q 3363 4331 3572 4012 
Q 3781 3694 3797 3291 
L 3216 3247 
Q 3169 3681 2898 3903 
Q 2628 4125 2100 4125 
Q 1550 4125 1298 3923 
Q 1047 3722 1047 3438 
Q 1047 3191 1225 3031 
Q 1400 2872 2139 2705 
Q 2878 2538 3153 2413 
Q 3553 2228 3743 1945 
Q 3934 1663 3934 1294 
Q 3934 928 3725 604 
Q 3516 281 3123 101 
Q 2731 -78 2241 -78 
Q 1619 -78 1198 103 
Q 778 284 539 648 
Q 300 1013 288 1472 
z
" transform="scale(0.015625)"/>
        <path id="ArialMT-6b" d="M 425 0 
L 425 4581 
L 988 4581 
L 988 1969 
L 2319 3319 
L 3047 3319 
L 1778 2088 
L 3175 0 
L 2481 0 
L 1384 1697 
L 988 1316 
L 988 0 
L 425 0 
z
" transform="scale(0.015625)"/>
       </defs>
       <use xlink:href="#ArialMT-53"/>
       <use xlink:href="#ArialMT-74" x="66.699219"/>
       <use xlink:href="#ArialMT-72" x="94.482422"/>
       <use xlink:href="#ArialMT-6f" x="127.783203"/>
       <use xlink:href="#ArialMT-6b" x="183.398438"/>
       <use xlink:href="#ArialMT-65" x="233.398438"/>
      </g>
     </g>
    </g>
    <g id="ytick_11">
     <g id="line2d_5"/>
     <g id="text_5">
      <!-- Parkinson's Disease -->
      <g style="fill: #262626" transform="translate(74.433671 328.762031) scale(0.14 -0.14)">
       <defs>
        <path id="ArialMT-50" d="M 494 0 
L 494 4581 
L 2222 4581 
Q 2678 4581 2919 4538 
Q 3256 4481 3484 4323 
Q 3713 4166 3852 3881 
Q 3991 3597 3991 3256 
Q 3991 2672 3619 2267 
Q 3247 1863 2275 1863 
L 1100 1863 
L 1100 0 
L 494 0 
z
M 1100 2403 
L 2284 2403 
Q 2872 2403 3119 2622 
Q 3366 2841 3366 3238 
Q 3366 3525 3220 3729 
Q 3075 3934 2838 4000 
Q 2684 4041 2272 4041 
L 1100 4041 
L 1100 2403 
z
" transform="scale(0.015625)"/>
        <path id="ArialMT-61" d="M 2588 409 
Q 2275 144 1986 34 
Q 1697 -75 1366 -75 
Q 819 -75 525 192 
Q 231 459 231 875 
Q 231 1119 342 1320 
Q 453 1522 633 1644 
Q 813 1766 1038 1828 
Q 1203 1872 1538 1913 
Q 2219 1994 2541 2106 
Q 2544 2222 2544 2253 
Q 2544 2597 2384 2738 
Q 2169 2928 1744 2928 
Q 1347 2928 1158 2789 
Q 969 2650 878 2297 
L 328 2372 
Q 403 2725 575 2942 
Q 747 3159 1072 3276 
Q 1397 3394 1825 3394 
Q 2250 3394 2515 3294 
Q 2781 3194 2906 3042 
Q 3031 2891 3081 2659 
Q 3109 2516 3109 2141 
L 3109 1391 
Q 3109 606 3145 398 
Q 3181 191 3288 0 
L 2700 0 
Q 2613 175 2588 409 
z
M 2541 1666 
Q 2234 1541 1622 1453 
Q 1275 1403 1131 1340 
Q 988 1278 909 1158 
Q 831 1038 831 891 
Q 831 666 1001 516 
Q 1172 366 1500 366 
Q 1825 366 2078 508 
Q 2331 650 2450 897 
Q 2541 1088 2541 1459 
L 2541 1666 
z
" transform="scale(0.015625)"/>
        <path id="ArialMT-27" d="M 425 2959 
L 281 3816 
L 281 4581 
L 922 4581 
L 922 3816 
L 772 2959 
L 425 2959 
z
" transform="scale(0.015625)"/>
        <path id="ArialMT-20" transform="scale(0.015625)"/>
       </defs>
       <use xlink:href="#ArialMT-50"/>
       <use xlink:href="#ArialMT-61" x="66.699219"/>
       <use xlink:href="#ArialMT-72" x="122.314453"/>
       <use xlink:href="#ArialMT-6b" x="155.615234"/>
       <use xlink:href="#ArialMT-69" x="205.615234"/>
       <use xlink:href="#ArialMT-6e" x="227.832031"/>
       <use xlink:href="#ArialMT-73" x="283.447266"/>
       <use xlink:href="#ArialMT-6f" x="333.447266"/>
       <use xlink:href="#ArialMT-6e" x="389.0625"/>
       <use xlink:href="#ArialMT-27" x="444.677734"/>
       <use xlink:href="#ArialMT-73" x="463.769531"/>
       <use xlink:href="#ArialMT-20" x="513.769531"/>
       <use xlink:href="#ArialMT-44" x="541.552734"/>
       <use xlink:href="#ArialMT-69" x="613.769531"/>
       <use xlink:href="#ArialMT-73" x="635.986328"/>
       <use xlink:href="#ArialMT-65" x="685.986328"/>
       <use xlink:href="#ArialMT-61" x="741.601562"/>
       <use xlink:href="#ArialMT-73" x="797.216797"/>
       <use xlink:href="#ArialMT-65" x="847.216797"/>
      </g>
     </g>
    </g>
    <g id="ytick_12">
     <g id="line2d_6"/>
     <g id="text_6">
      <!-- Diabetes -->
      <g style="fill: #262626" transform="translate(145.573359 312.442435) scale(0.14 -0.14)">
       <defs>
        <path id="ArialMT-62" d="M 941 0 
L 419 0 
L 419 4581 
L 981 4581 
L 981 2947 
Q 1338 3394 1891 3394 
Q 2197 3394 2470 3270 
Q 2744 3147 2920 2923 
Q 3097 2700 3197 2384 
Q 3297 2069 3297 1709 
Q 3297 856 2875 390 
Q 2453 -75 1863 -75 
Q 1275 -75 941 416 
L 941 0 
z
M 934 1684 
Q 934 1088 1097 822 
Q 1363 388 1816 388 
Q 2184 388 2453 708 
Q 2722 1028 2722 1663 
Q 2722 2313 2464 2622 
Q 2206 2931 1841 2931 
Q 1472 2931 1203 2611 
Q 934 2291 934 1684 
z
" transform="scale(0.015625)"/>
       </defs>
       <use xlink:href="#ArialMT-44"/>
       <use xlink:href="#ArialMT-69" x="72.216797"/>
       <use xlink:href="#ArialMT-61" x="94.433594"/>
       <use xlink:href="#ArialMT-62" x="150.048828"/>
       <use xlink:href="#ArialMT-65" x="205.664062"/>
       <use xlink:href="#ArialMT-74" x="261.279297"/>
       <use xlink:href="#ArialMT-65" x="289.0625"/>
       <use xlink:href="#ArialMT-73" x="344.677734"/>
      </g>
     </g>
    </g>
   </g>
   <g id="LineCollection_1">
    <path d="M 245.926338 389.029947 
L 245.926338 389.029947 
" clip-path="url(#p27782a93ca)" style="fill: none; stroke: #001c7f; stroke-width: 2"/>
    <path d="M 273.660408 372.710351 
L 273.660408 372.710351 
" clip-path="url(#p27782a93ca)" style="fill: none; stroke: #001c7f; stroke-width: 2"/>
    <path d="M 301.394477 389.029947 
L 301.394477 372.710351 
" clip-path="url(#p27782a93ca)" style="fill: none; stroke: #001c7f; stroke-width: 2"/>
    <path d="M 329.128547 389.029947 
L 329.128547 356.390755 
" clip-path="url(#p27782a93ca)" style="fill: none; stroke: #001c7f; stroke-width: 2"/>
    <path d="M 356.862617 356.390755 
L 356.862617 356.390755 
" clip-path="url(#p27782a93ca)" style="fill: none; stroke: #001c7f; stroke-width: 2"/>
    <path d="M 384.596686 340.071158 
L 384.596686 340.071158 
" clip-path="url(#p27782a93ca)" style="fill: none; stroke: #001c7f; stroke-width: 2"/>
    <path d="M 412.330756 323.751562 
L 412.330756 323.751562 
" clip-path="url(#p27782a93ca)" style="fill: none; stroke: #001c7f; stroke-width: 2"/>
    <path d="M 440.064826 307.431966 
L 440.064826 307.431966 
" clip-path="url(#p27782a93ca)" style="fill: none; stroke: #001c7f; stroke-width: 2"/>
    <path d="M 467.798895 389.029947 
L 467.798895 307.431966 
" clip-path="url(#p27782a93ca)" style="fill: none; stroke: #001c7f; stroke-width: 2"/>
    <path d="M 495.532965 389.029947 
L 495.532965 340.071158 
" clip-path="url(#p27782a93ca)" style="fill: none; stroke: #001c7f; stroke-width: 2"/>
   </g>
   <g id="PathCollection_1">
    <defs>
     <path id="C0_0_645d10dc06" d="M 0 5.6 
C 1.485137 5.6 2.909647 5.009949 3.959798 3.959798 
C 5.009949 2.909647 5.6 1.485137 5.6 -0 
C 5.6 -1.485137 5.009949 -2.909647 3.959798 -3.959798 
C 2.909647 -5.009949 1.485137 -5.6 0 -5.6 
C -1.485137 -5.6 -2.909647 -5.009949 -3.959798 -3.959798 
C -5.009949 -2.909647 -5.6 -1.485137 -5.6 0 
C -5.6 1.485137 -5.009949 2.909647 -3.959798 3.959798 
C -2.909647 5.009949 -1.485137 5.6 0 5.6 
z
"/>
    </defs>
    <g clip-path="url(#p27782a93ca)">
     <use xlink:href="#C0_0_645d10dc06" x="218.192268" y="389.029947" style="fill-opacity: 0.180392"/>
    </g>
    <g clip-path="url(#p27782a93ca)">
     <use xlink:href="#C0_0_645d10dc06" x="218.192268" y="372.710351" style="fill-opacity: 0.180392"/>
    </g>
    <g clip-path="url(#p27782a93ca)">
     <use xlink:href="#C0_0_645d10dc06" x="218.192268" y="356.390755" style="fill-opacity: 0.180392"/>
    </g>
    <g clip-path="url(#p27782a93ca)">
     <use xlink:href="#C0_0_645d10dc06" x="218.192268" y="340.071158" style="fill-opacity: 0.180392"/>
    </g>
    <g clip-path="url(#p27782a93ca)">
     <use xlink:href="#C0_0_645d10dc06" x="218.192268" y="323.751562" style="fill-opacity: 0.180392"/>
    </g>
    <g clip-path="url(#p27782a93ca)">
     <use xlink:href="#C0_0_645d10dc06" x="218.192268" y="307.431966" style="fill-opacity: 0.180392"/>
    </g>
    <g clip-path="url(#p27782a93ca)">
     <use xlink:href="#C0_0_645d10dc06" x="245.926338" y="389.029947" style="fill: #001c7f; stroke: #001c7f"/>
    </g>
    <g clip-path="url(#p27782a93ca)">
     <use xlink:href="#C0_0_645d10dc06" x="245.926338" y="372.710351" style="fill-opacity: 0.180392"/>
    </g>
    <g clip-path="url(#p27782a93ca)">
     <use xlink:href="#C0_0_645d10dc06" x="245.926338" y="356.390755" style="fill-opacity: 0.180392"/>
    </g>
    <g clip-path="url(#p27782a93ca)">
     <use xlink:href="#C0_0_645d10dc06" x="245.926338" y="340.071158" style="fill-opacity: 0.180392"/>
    </g>
    <g clip-path="url(#p27782a93ca)">
     <use xlink:href="#C0_0_645d10dc06" x="245.926338" y="323.751562" style="fill-opacity: 0.180392"/>
    </g>
    <g clip-path="url(#p27782a93ca)">
     <use xlink:href="#C0_0_645d10dc06" x="245.926338" y="307.431966" style="fill-opacity: 0.180392"/>
    </g>
    <g clip-path="url(#p27782a93ca)">
     <use xlink:href="#C0_0_645d10dc06" x="273.660408" y="389.029947" style="fill-opacity: 0.180392"/>
    </g>
    <g clip-path="url(#p27782a93ca)">
     <use xlink:href="#C0_0_645d10dc06" x="273.660408" y="372.710351" style="fill: #001c7f; stroke: #001c7f"/>
    </g>
    <g clip-path="url(#p27782a93ca)">
     <use xlink:href="#C0_0_645d10dc06" x="273.660408" y="356.390755" style="fill-opacity: 0.180392"/>
    </g>
    <g clip-path="url(#p27782a93ca)">
     <use xlink:href="#C0_0_645d10dc06" x="273.660408" y="340.071158" style="fill-opacity: 0.180392"/>
    </g>
    <g clip-path="url(#p27782a93ca)">
     <use xlink:href="#C0_0_645d10dc06" x="273.660408" y="323.751562" style="fill-opacity: 0.180392"/>
    </g>
    <g clip-path="url(#p27782a93ca)">
     <use xlink:href="#C0_0_645d10dc06" x="273.660408" y="307.431966" style="fill-opacity: 0.180392"/>
    </g>
    <g clip-path="url(#p27782a93ca)">
     <use xlink:href="#C0_0_645d10dc06" x="301.394477" y="389.029947" style="fill: #001c7f; stroke: #001c7f"/>
    </g>
    <g clip-path="url(#p27782a93ca)">
     <use xlink:href="#C0_0_645d10dc06" x="301.394477" y="372.710351" style="fill: #001c7f; stroke: #001c7f"/>
    </g>
    <g clip-path="url(#p27782a93ca)">
     <use xlink:href="#C0_0_645d10dc06" x="301.394477" y="356.390755" style="fill-opacity: 0.180392"/>
    </g>
    <g clip-path="url(#p27782a93ca)">
     <use xlink:href="#C0_0_645d10dc06" x="301.394477" y="340.071158" style="fill-opacity: 0.180392"/>
    </g>
    <g clip-path="url(#p27782a93ca)">
     <use xlink:href="#C0_0_645d10dc06" x="301.394477" y="323.751562" style="fill-opacity: 0.180392"/>
    </g>
    <g clip-path="url(#p27782a93ca)">
     <use xlink:href="#C0_0_645d10dc06" x="301.394477" y="307.431966" style="fill-opacity: 0.180392"/>
    </g>
    <g clip-path="url(#p27782a93ca)">
     <use xlink:href="#C0_0_645d10dc06" x="329.128547" y="389.029947" style="fill: #001c7f; stroke: #001c7f"/>
    </g>
    <g clip-path="url(#p27782a93ca)">
     <use xlink:href="#C0_0_645d10dc06" x="329.128547" y="372.710351" style="fill-opacity: 0.180392"/>
    </g>
    <g clip-path="url(#p27782a93ca)">
     <use xlink:href="#C0_0_645d10dc06" x="329.128547" y="356.390755" style="fill: #001c7f; stroke: #001c7f"/>
    </g>
    <g clip-path="url(#p27782a93ca)">
     <use xlink:href="#C0_0_645d10dc06" x="329.128547" y="340.071158" style="fill-opacity: 0.180392"/>
    </g>
    <g clip-path="url(#p27782a93ca)">
     <use xlink:href="#C0_0_645d10dc06" x="329.128547" y="323.751562" style="fill-opacity: 0.180392"/>
    </g>
    <g clip-path="url(#p27782a93ca)">
     <use xlink:href="#C0_0_645d10dc06" x="329.128547" y="307.431966" style="fill-opacity: 0.180392"/>
    </g>
    <g clip-path="url(#p27782a93ca)">
     <use xlink:href="#C0_0_645d10dc06" x="356.862617" y="389.029947" style="fill-opacity: 0.180392"/>
    </g>
    <g clip-path="url(#p27782a93ca)">
     <use xlink:href="#C0_0_645d10dc06" x="356.862617" y="372.710351" style="fill-opacity: 0.180392"/>
    </g>
    <g clip-path="url(#p27782a93ca)">
     <use xlink:href="#C0_0_645d10dc06" x="356.862617" y="356.390755" style="fill: #001c7f; stroke: #001c7f"/>
    </g>
    <g clip-path="url(#p27782a93ca)">
     <use xlink:href="#C0_0_645d10dc06" x="356.862617" y="340.071158" style="fill-opacity: 0.180392"/>
    </g>
    <g clip-path="url(#p27782a93ca)">
     <use xlink:href="#C0_0_645d10dc06" x="356.862617" y="323.751562" style="fill-opacity: 0.180392"/>
    </g>
    <g clip-path="url(#p27782a93ca)">
     <use xlink:href="#C0_0_645d10dc06" x="356.862617" y="307.431966" style="fill-opacity: 0.180392"/>
    </g>
    <g clip-path="url(#p27782a93ca)">
     <use xlink:href="#C0_0_645d10dc06" x="384.596686" y="389.029947" style="fill-opacity: 0.180392"/>
    </g>
    <g clip-path="url(#p27782a93ca)">
     <use xlink:href="#C0_0_645d10dc06" x="384.596686" y="372.710351" style="fill-opacity: 0.180392"/>
    </g>
    <g clip-path="url(#p27782a93ca)">
     <use xlink:href="#C0_0_645d10dc06" x="384.596686" y="356.390755" style="fill-opacity: 0.180392"/>
    </g>
    <g clip-path="url(#p27782a93ca)">
     <use xlink:href="#C0_0_645d10dc06" x="384.596686" y="340.071158" style="fill: #001c7f; stroke: #001c7f"/>
    </g>
    <g clip-path="url(#p27782a93ca)">
     <use xlink:href="#C0_0_645d10dc06" x="384.596686" y="323.751562" style="fill-opacity: 0.180392"/>
    </g>
    <g clip-path="url(#p27782a93ca)">
     <use xlink:href="#C0_0_645d10dc06" x="384.596686" y="307.431966" style="fill-opacity: 0.180392"/>
    </g>
    <g clip-path="url(#p27782a93ca)">
     <use xlink:href="#C0_0_645d10dc06" x="412.330756" y="389.029947" style="fill-opacity: 0.180392"/>
    </g>
    <g clip-path="url(#p27782a93ca)">
     <use xlink:href="#C0_0_645d10dc06" x="412.330756" y="372.710351" style="fill-opacity: 0.180392"/>
    </g>
    <g clip-path="url(#p27782a93ca)">
     <use xlink:href="#C0_0_645d10dc06" x="412.330756" y="356.390755" style="fill-opacity: 0.180392"/>
    </g>
    <g clip-path="url(#p27782a93ca)">
     <use xlink:href="#C0_0_645d10dc06" x="412.330756" y="340.071158" style="fill-opacity: 0.180392"/>
    </g>
    <g clip-path="url(#p27782a93ca)">
     <use xlink:href="#C0_0_645d10dc06" x="412.330756" y="323.751562" style="fill: #001c7f; stroke: #001c7f"/>
    </g>
    <g clip-path="url(#p27782a93ca)">
     <use xlink:href="#C0_0_645d10dc06" x="412.330756" y="307.431966" style="fill-opacity: 0.180392"/>
    </g>
    <g clip-path="url(#p27782a93ca)">
     <use xlink:href="#C0_0_645d10dc06" x="440.064826" y="389.029947" style="fill-opacity: 0.180392"/>
    </g>
    <g clip-path="url(#p27782a93ca)">
     <use xlink:href="#C0_0_645d10dc06" x="440.064826" y="372.710351" style="fill-opacity: 0.180392"/>
    </g>
    <g clip-path="url(#p27782a93ca)">
     <use xlink:href="#C0_0_645d10dc06" x="440.064826" y="356.390755" style="fill-opacity: 0.180392"/>
    </g>
    <g clip-path="url(#p27782a93ca)">
     <use xlink:href="#C0_0_645d10dc06" x="440.064826" y="340.071158" style="fill-opacity: 0.180392"/>
    </g>
    <g clip-path="url(#p27782a93ca)">
     <use xlink:href="#C0_0_645d10dc06" x="440.064826" y="323.751562" style="fill-opacity: 0.180392"/>
    </g>
    <g clip-path="url(#p27782a93ca)">
     <use xlink:href="#C0_0_645d10dc06" x="440.064826" y="307.431966" style="fill: #001c7f; stroke: #001c7f"/>
    </g>
    <g clip-path="url(#p27782a93ca)">
     <use xlink:href="#C0_0_645d10dc06" x="467.798895" y="389.029947" style="fill: #001c7f; stroke: #001c7f"/>
    </g>
    <g clip-path="url(#p27782a93ca)">
     <use xlink:href="#C0_0_645d10dc06" x="467.798895" y="372.710351" style="fill-opacity: 0.180392"/>
    </g>
    <g clip-path="url(#p27782a93ca)">
     <use xlink:href="#C0_0_645d10dc06" x="467.798895" y="356.390755" style="fill-opacity: 0.180392"/>
    </g>
    <g clip-path="url(#p27782a93ca)">
     <use xlink:href="#C0_0_645d10dc06" x="467.798895" y="340.071158" style="fill-opacity: 0.180392"/>
    </g>
    <g clip-path="url(#p27782a93ca)">
     <use xlink:href="#C0_0_645d10dc06" x="467.798895" y="323.751562" style="fill-opacity: 0.180392"/>
    </g>
    <g clip-path="url(#p27782a93ca)">
     <use xlink:href="#C0_0_645d10dc06" x="467.798895" y="307.431966" style="fill: #001c7f; stroke: #001c7f"/>
    </g>
    <g clip-path="url(#p27782a93ca)">
     <use xlink:href="#C0_0_645d10dc06" x="495.532965" y="389.029947" style="fill: #001c7f; stroke: #001c7f"/>
    </g>
    <g clip-path="url(#p27782a93ca)">
     <use xlink:href="#C0_0_645d10dc06" x="495.532965" y="372.710351" style="fill-opacity: 0.180392"/>
    </g>
    <g clip-path="url(#p27782a93ca)">
     <use xlink:href="#C0_0_645d10dc06" x="495.532965" y="356.390755" style="fill-opacity: 0.180392"/>
    </g>
    <g clip-path="url(#p27782a93ca)">
     <use xlink:href="#C0_0_645d10dc06" x="495.532965" y="340.071158" style="fill: #001c7f; stroke: #001c7f"/>
    </g>
    <g clip-path="url(#p27782a93ca)">
     <use xlink:href="#C0_0_645d10dc06" x="495.532965" y="323.751562" style="fill-opacity: 0.180392"/>
    </g>
    <g clip-path="url(#p27782a93ca)">
     <use xlink:href="#C0_0_645d10dc06" x="495.532965" y="307.431966" style="fill-opacity: 0.180392"/>
    </g>
   </g>
  </g>
  <g id="axes_3">
   <g id="matplotlib.axis_4">
    <g id="xtick_1">
     <g id="line2d_7">
      <path d="M 58.828037 400.290469 
L 58.828037 296.171444 
" clip-path="url(#pa5adf90552)" style="fill: none; stroke: #cccccc; stroke-linecap: round"/>
     </g>
     <g id="line2d_8">
      <defs>
       <path id="me9a599f6e9" d="M 0 0 
L 0 6 
" style="stroke: #262626; stroke-width: 1.25"/>
      </defs>
      <g>
       <use xlink:href="#me9a599f6e9" x="58.828037" y="400.290469" style="fill: #262626; stroke: #262626; stroke-width: 1.25"/>
      </g>
     </g>
     <g id="text_7">
      <!-- 0 -->
      <g style="fill: #262626" transform="translate(54.935381 419.811406) scale(0.14 -0.14)">
       <defs>
        <path id="ArialMT-30" d="M 266 2259 
Q 266 3072 433 3567 
Q 600 4063 929 4331 
Q 1259 4600 1759 4600 
Q 2128 4600 2406 4451 
Q 2684 4303 2865 4023 
Q 3047 3744 3150 3342 
Q 3253 2941 3253 2259 
Q 3253 1453 3087 958 
Q 2922 463 2592 192 
Q 2263 -78 1759 -78 
Q 1097 -78 719 397 
Q 266 969 266 2259 
z
M 844 2259 
Q 844 1131 1108 757 
Q 1372 384 1759 384 
Q 2147 384 2411 759 
Q 2675 1134 2675 2259 
Q 2675 3391 2411 3762 
Q 2147 4134 1753 4134 
Q 1366 4134 1134 3806 
Q 844 3388 844 2259 
z
" transform="scale(0.015625)"/>
       </defs>
       <use xlink:href="#ArialMT-30"/>
      </g>
     </g>
    </g>
    <g id="xtick_2">
     <g id="line2d_9">
      <path d="M 17.853405 400.290469 
L 17.853405 296.171444 
" clip-path="url(#pa5adf90552)" style="fill: none; stroke: #cccccc; stroke-linecap: round"/>
     </g>
     <g id="line2d_10">
      <g>
       <use xlink:href="#me9a599f6e9" x="17.853405" y="400.290469" style="fill: #262626; stroke: #262626; stroke-width: 1.25"/>
      </g>
     </g>
     <g id="text_8">
      <!-- 50 -->
      <g style="fill: #262626" transform="translate(10.068092 419.811406) scale(0.14 -0.14)">
       <defs>
        <path id="ArialMT-35" d="M 266 1200 
L 856 1250 
Q 922 819 1161 601 
Q 1400 384 1738 384 
Q 2144 384 2425 690 
Q 2706 997 2706 1503 
Q 2706 1984 2436 2262 
Q 2166 2541 1728 2541 
Q 1456 2541 1237 2417 
Q 1019 2294 894 2097 
L 366 2166 
L 809 4519 
L 3088 4519 
L 3088 3981 
L 1259 3981 
L 1013 2750 
Q 1425 3038 1878 3038 
Q 2478 3038 2890 2622 
Q 3303 2206 3303 1553 
Q 3303 931 2941 478 
Q 2500 -78 1738 -78 
Q 1113 -78 717 272 
Q 322 622 266 1200 
z
" transform="scale(0.015625)"/>
       </defs>
       <use xlink:href="#ArialMT-35"/>
       <use xlink:href="#ArialMT-30" x="55.615234"/>
      </g>
     </g>
    </g>
   </g>
   <g id="patch_8">
    <path d="M 58.828037 393.109846 
L 7.2 393.109846 
L 7.2 384.950048 
L 58.828037 384.950048 
z
" clip-path="url(#pa5adf90552)" style="stroke: #000000; stroke-linejoin: miter"/>
   </g>
   <g id="patch_9">
    <path d="M 58.828037 376.79025 
L 47.35514 376.79025 
L 47.35514 368.630452 
L 58.828037 368.630452 
z
" clip-path="url(#pa5adf90552)" style="stroke: #000000; stroke-linejoin: miter"/>
   </g>
   <g id="patch_10">
    <path d="M 58.828037 360.470654 
L 54.730574 360.470654 
L 54.730574 352.310856 
L 58.828037 352.310856 
z
" clip-path="url(#pa5adf90552)" style="stroke: #000000; stroke-linejoin: miter"/>
   </g>
   <g id="patch_11">
    <path d="M 58.828037 344.151057 
L 56.369559 344.151057 
L 56.369559 335.991259 
L 58.828037 335.991259 
z
" clip-path="url(#pa5adf90552)" style="stroke: #000000; stroke-linejoin: miter"/>
   </g>
   <g id="patch_12">
    <path d="M 58.828037 327.831461 
L 57.189052 327.831461 
L 57.189052 319.671663 
L 58.828037 319.671663 
z
" clip-path="url(#pa5adf90552)" style="stroke: #000000; stroke-linejoin: miter"/>
   </g>
   <g id="patch_13">
    <path d="M 58.828037 311.511865 
L 57.189052 311.511865 
L 57.189052 303.352067 
L 58.828037 303.352067 
z
" clip-path="url(#pa5adf90552)" style="stroke: #000000; stroke-linejoin: miter"/>
   </g>
   <g id="patch_14">
    <path d="M 7.2 400.290469 
L 58.828037 400.290469 
" style="fill: none; stroke: #262626; stroke-width: 1.25; stroke-linejoin: miter; stroke-linecap: square"/>
   </g>
  </g>
  <g id="axes_4">
   <g id="patch_15">
    <path d="M 204.325234 286.706079 
L 509.4 286.706079 
L 509.4 12.210469 
L 204.325234 12.210469 
z
" style="fill: #ffffff"/>
   </g>
   <g id="matplotlib.axis_5">
    <g id="ytick_13">
     <g id="line2d_11">
      <defs>
       <path id="m844e12d501" d="M 0 0 
L -6 0 
" style="stroke: #262626; stroke-width: 1.25"/>
      </defs>
      <g>
       <use xlink:href="#m844e12d501" x="204.325234" y="286.706079" style="fill: #262626; stroke: #262626; stroke-width: 1.25"/>
      </g>
     </g>
     <g id="text_9">
      <!-- 0 -->
      <g style="fill: #262626" transform="translate(187.039921 291.716547) scale(0.14 -0.14)">
       <defs>
        <path id="Arial-BoldMT-30" d="M 1756 4600 
Q 2422 4600 2797 4125 
Q 3244 3563 3244 2259 
Q 3244 959 2794 391 
Q 2422 -78 1756 -78 
Q 1088 -78 678 436 
Q 269 950 269 2269 
Q 269 3563 719 4131 
Q 1091 4600 1756 4600 
z
M 1756 3872 
Q 1597 3872 1472 3770 
Q 1347 3669 1278 3406 
Q 1188 3066 1188 2259 
Q 1188 1453 1269 1151 
Q 1350 850 1473 750 
Q 1597 650 1756 650 
Q 1916 650 2041 751 
Q 2166 853 2234 1116 
Q 2325 1453 2325 2259 
Q 2325 3066 2244 3367 
Q 2163 3669 2039 3770 
Q 1916 3872 1756 3872 
z
" transform="scale(0.015625)"/>
       </defs>
       <use xlink:href="#Arial-BoldMT-30"/>
      </g>
     </g>
    </g>
    <g id="ytick_14">
     <g id="line2d_12">
      <g>
       <use xlink:href="#m844e12d501" x="204.325234" y="240.95681" style="fill: #262626; stroke: #262626; stroke-width: 1.25"/>
      </g>
     </g>
     <g id="text_10">
      <!-- 50 -->
      <g style="fill: #262626" transform="translate(179.254609 245.967279) scale(0.14 -0.14)">
       <defs>
        <path id="Arial-BoldMT-35" d="M 284 1178 
L 1159 1269 
Q 1197 972 1381 798 
Q 1566 625 1806 625 
Q 2081 625 2272 848 
Q 2463 1072 2463 1522 
Q 2463 1944 2273 2155 
Q 2084 2366 1781 2366 
Q 1403 2366 1103 2031 
L 391 2134 
L 841 4519 
L 3163 4519 
L 3163 3697 
L 1506 3697 
L 1369 2919 
Q 1663 3066 1969 3066 
Q 2553 3066 2959 2641 
Q 3366 2216 3366 1538 
Q 3366 972 3038 528 
Q 2591 -78 1797 -78 
Q 1163 -78 763 262 
Q 363 603 284 1178 
z
" transform="scale(0.015625)"/>
       </defs>
       <use xlink:href="#Arial-BoldMT-35"/>
       <use xlink:href="#Arial-BoldMT-30" x="55.615234"/>
      </g>
     </g>
    </g>
    <g id="ytick_15">
     <g id="line2d_13">
      <g>
       <use xlink:href="#m844e12d501" x="204.325234" y="195.207542" style="fill: #262626; stroke: #262626; stroke-width: 1.25"/>
      </g>
     </g>
     <g id="text_11">
      <!-- 100 -->
      <g style="fill: #262626" transform="translate(171.469296 200.218011) scale(0.14 -0.14)">
       <defs>
        <path id="Arial-BoldMT-31" d="M 2519 0 
L 1641 0 
L 1641 3309 
Q 1159 2859 506 2644 
L 506 3441 
Q 850 3553 1253 3867 
Q 1656 4181 1806 4600 
L 2519 4600 
L 2519 0 
z
" transform="scale(0.015625)"/>
       </defs>
       <use xlink:href="#Arial-BoldMT-31"/>
       <use xlink:href="#Arial-BoldMT-30" x="55.615234"/>
       <use xlink:href="#Arial-BoldMT-30" x="111.230469"/>
      </g>
     </g>
    </g>
    <g id="ytick_16">
     <g id="line2d_14">
      <g>
       <use xlink:href="#m844e12d501" x="204.325234" y="149.458274" style="fill: #262626; stroke: #262626; stroke-width: 1.25"/>
      </g>
     </g>
     <g id="text_12">
      <!-- 150 -->
      <g style="fill: #262626" transform="translate(171.469296 154.468742) scale(0.14 -0.14)">
       <use xlink:href="#Arial-BoldMT-31"/>
       <use xlink:href="#Arial-BoldMT-35" x="55.615234"/>
       <use xlink:href="#Arial-BoldMT-30" x="111.230469"/>
      </g>
     </g>
    </g>
    <g id="ytick_17">
     <g id="line2d_15">
      <g>
       <use xlink:href="#m844e12d501" x="204.325234" y="103.709005" style="fill: #262626; stroke: #262626; stroke-width: 1.25"/>
      </g>
     </g>
     <g id="text_13">
      <!-- 200 -->
      <g style="fill: #262626" transform="translate(171.469296 108.719474) scale(0.14 -0.14)">
       <defs>
        <path id="Arial-BoldMT-32" d="M 3238 816 
L 3238 0 
L 159 0 
Q 209 463 459 877 
Q 709 1291 1447 1975 
Q 2041 2528 2175 2725 
Q 2356 2997 2356 3263 
Q 2356 3556 2198 3714 
Q 2041 3872 1763 3872 
Q 1488 3872 1325 3706 
Q 1163 3541 1138 3156 
L 263 3244 
Q 341 3969 753 4284 
Q 1166 4600 1784 4600 
Q 2463 4600 2850 4234 
Q 3238 3869 3238 3325 
Q 3238 3016 3127 2736 
Q 3016 2456 2775 2150 
Q 2616 1947 2200 1565 
Q 1784 1184 1673 1059 
Q 1563 934 1494 816 
L 3238 816 
z
" transform="scale(0.015625)"/>
       </defs>
       <use xlink:href="#Arial-BoldMT-32"/>
       <use xlink:href="#Arial-BoldMT-30" x="55.615234"/>
       <use xlink:href="#Arial-BoldMT-30" x="111.230469"/>
      </g>
     </g>
    </g>
    <g id="ytick_18">
     <g id="line2d_16">
      <g>
       <use xlink:href="#m844e12d501" x="204.325234" y="57.959737" style="fill: #262626; stroke: #262626; stroke-width: 1.25"/>
      </g>
     </g>
     <g id="text_14">
      <!-- 250 -->
      <g style="fill: #262626" transform="translate(171.469296 62.970206) scale(0.14 -0.14)">
       <use xlink:href="#Arial-BoldMT-32"/>
       <use xlink:href="#Arial-BoldMT-35" x="55.615234"/>
       <use xlink:href="#Arial-BoldMT-30" x="111.230469"/>
      </g>
     </g>
    </g>
    <g id="ytick_19">
     <g id="line2d_17">
      <g>
       <use xlink:href="#m844e12d501" x="204.325234" y="12.210469" style="fill: #262626; stroke: #262626; stroke-width: 1.25"/>
      </g>
     </g>
     <g id="text_15">
      <!-- 300 -->
      <g style="fill: #262626" transform="translate(171.469296 17.220937) scale(0.14 -0.14)">
       <defs>
        <path id="Arial-BoldMT-33" d="M 241 1216 
L 1091 1319 
Q 1131 994 1309 822 
Q 1488 650 1741 650 
Q 2013 650 2198 856 
Q 2384 1063 2384 1413 
Q 2384 1744 2206 1937 
Q 2028 2131 1772 2131 
Q 1603 2131 1369 2066 
L 1466 2781 
Q 1822 2772 2009 2936 
Q 2197 3100 2197 3372 
Q 2197 3603 2059 3740 
Q 1922 3878 1694 3878 
Q 1469 3878 1309 3722 
Q 1150 3566 1116 3266 
L 306 3403 
Q 391 3819 561 4067 
Q 731 4316 1036 4458 
Q 1341 4600 1719 4600 
Q 2366 4600 2756 4188 
Q 3078 3850 3078 3425 
Q 3078 2822 2419 2463 
Q 2813 2378 3048 2084 
Q 3284 1791 3284 1375 
Q 3284 772 2843 347 
Q 2403 -78 1747 -78 
Q 1125 -78 715 280 
Q 306 638 241 1216 
z
" transform="scale(0.015625)"/>
       </defs>
       <use xlink:href="#Arial-BoldMT-33"/>
       <use xlink:href="#Arial-BoldMT-30" x="55.615234"/>
       <use xlink:href="#Arial-BoldMT-30" x="111.230469"/>
      </g>
     </g>
    </g>
    <g id="text_16">
     <!-- Intersection Size -->
     <g style="fill: #262626" transform="translate(164.50914 209.055149) rotate(-90) scale(0.15 -0.15)">
      <defs>
       <path id="Arial-BoldMT-49" d="M 438 0 
L 438 4581 
L 1363 4581 
L 1363 0 
L 438 0 
z
" transform="scale(0.015625)"/>
       <path id="Arial-BoldMT-6e" d="M 3478 0 
L 2600 0 
L 2600 1694 
Q 2600 2231 2544 2389 
Q 2488 2547 2361 2634 
Q 2234 2722 2056 2722 
Q 1828 2722 1647 2597 
Q 1466 2472 1398 2265 
Q 1331 2059 1331 1503 
L 1331 0 
L 453 0 
L 453 3319 
L 1269 3319 
L 1269 2831 
Q 1703 3394 2363 3394 
Q 2653 3394 2893 3289 
Q 3134 3184 3257 3021 
Q 3381 2859 3429 2653 
Q 3478 2447 3478 2063 
L 3478 0 
z
" transform="scale(0.015625)"/>
       <path id="Arial-BoldMT-74" d="M 1981 3319 
L 1981 2619 
L 1381 2619 
L 1381 1281 
Q 1381 875 1398 808 
Q 1416 741 1477 697 
Q 1538 653 1625 653 
Q 1747 653 1978 738 
L 2053 56 
Q 1747 -75 1359 -75 
Q 1122 -75 931 4 
Q 741 84 652 211 
Q 563 338 528 553 
Q 500 706 500 1172 
L 500 2619 
L 97 2619 
L 97 3319 
L 500 3319 
L 500 3978 
L 1381 4491 
L 1381 3319 
L 1981 3319 
z
" transform="scale(0.015625)"/>
       <path id="Arial-BoldMT-65" d="M 2381 1056 
L 3256 909 
Q 3088 428 2723 176 
Q 2359 -75 1813 -75 
Q 947 -75 531 491 
Q 203 944 203 1634 
Q 203 2459 634 2926 
Q 1066 3394 1725 3394 
Q 2466 3394 2894 2905 
Q 3322 2416 3303 1406 
L 1103 1406 
Q 1113 1016 1316 798 
Q 1519 581 1822 581 
Q 2028 581 2168 693 
Q 2309 806 2381 1056 
z
M 2431 1944 
Q 2422 2325 2234 2523 
Q 2047 2722 1778 2722 
Q 1491 2722 1303 2513 
Q 1116 2303 1119 1944 
L 2431 1944 
z
" transform="scale(0.015625)"/>
       <path id="Arial-BoldMT-72" d="M 1300 0 
L 422 0 
L 422 3319 
L 1238 3319 
L 1238 2847 
Q 1447 3181 1614 3287 
Q 1781 3394 1994 3394 
Q 2294 3394 2572 3228 
L 2300 2463 
Q 2078 2606 1888 2606 
Q 1703 2606 1575 2504 
Q 1447 2403 1373 2137 
Q 1300 1872 1300 1025 
L 1300 0 
z
" transform="scale(0.015625)"/>
       <path id="Arial-BoldMT-73" d="M 150 947 
L 1031 1081 
Q 1088 825 1259 692 
Q 1431 559 1741 559 
Q 2081 559 2253 684 
Q 2369 772 2369 919 
Q 2369 1019 2306 1084 
Q 2241 1147 2013 1200 
Q 950 1434 666 1628 
Q 272 1897 272 2375 
Q 272 2806 612 3100 
Q 953 3394 1669 3394 
Q 2350 3394 2681 3172 
Q 3013 2950 3138 2516 
L 2309 2363 
Q 2256 2556 2107 2659 
Q 1959 2763 1684 2763 
Q 1338 2763 1188 2666 
Q 1088 2597 1088 2488 
Q 1088 2394 1175 2328 
Q 1294 2241 1995 2081 
Q 2697 1922 2975 1691 
Q 3250 1456 3250 1038 
Q 3250 581 2869 253 
Q 2488 -75 1741 -75 
Q 1063 -75 667 200 
Q 272 475 150 947 
z
" transform="scale(0.015625)"/>
       <path id="Arial-BoldMT-63" d="M 3353 2338 
L 2488 2181 
Q 2444 2441 2289 2572 
Q 2134 2703 1888 2703 
Q 1559 2703 1364 2476 
Q 1169 2250 1169 1719 
Q 1169 1128 1367 884 
Q 1566 641 1900 641 
Q 2150 641 2309 783 
Q 2469 925 2534 1272 
L 3397 1125 
Q 3263 531 2881 228 
Q 2500 -75 1859 -75 
Q 1131 -75 698 384 
Q 266 844 266 1656 
Q 266 2478 700 2936 
Q 1134 3394 1875 3394 
Q 2481 3394 2839 3133 
Q 3197 2872 3353 2338 
z
" transform="scale(0.015625)"/>
       <path id="Arial-BoldMT-69" d="M 459 3769 
L 459 4581 
L 1338 4581 
L 1338 3769 
L 459 3769 
z
M 459 0 
L 459 3319 
L 1338 3319 
L 1338 0 
L 459 0 
z
" transform="scale(0.015625)"/>
       <path id="Arial-BoldMT-6f" d="M 256 1706 
Q 256 2144 472 2553 
Q 688 2963 1083 3178 
Q 1478 3394 1966 3394 
Q 2719 3394 3200 2905 
Q 3681 2416 3681 1669 
Q 3681 916 3195 420 
Q 2709 -75 1972 -75 
Q 1516 -75 1102 131 
Q 688 338 472 736 
Q 256 1134 256 1706 
z
M 1156 1659 
Q 1156 1166 1390 903 
Q 1625 641 1969 641 
Q 2313 641 2545 903 
Q 2778 1166 2778 1666 
Q 2778 2153 2545 2415 
Q 2313 2678 1969 2678 
Q 1625 2678 1390 2415 
Q 1156 2153 1156 1659 
z
" transform="scale(0.015625)"/>
       <path id="Arial-BoldMT-20" transform="scale(0.015625)"/>
       <path id="Arial-BoldMT-53" d="M 231 1491 
L 1131 1578 
Q 1213 1125 1461 912 
Q 1709 700 2131 700 
Q 2578 700 2804 889 
Q 3031 1078 3031 1331 
Q 3031 1494 2936 1608 
Q 2841 1722 2603 1806 
Q 2441 1863 1863 2006 
Q 1119 2191 819 2459 
Q 397 2838 397 3381 
Q 397 3731 595 4036 
Q 794 4341 1167 4500 
Q 1541 4659 2069 4659 
Q 2931 4659 3367 4281 
Q 3803 3903 3825 3272 
L 2900 3231 
Q 2841 3584 2645 3739 
Q 2450 3894 2059 3894 
Q 1656 3894 1428 3728 
Q 1281 3622 1281 3444 
Q 1281 3281 1419 3166 
Q 1594 3019 2269 2859 
Q 2944 2700 3267 2529 
Q 3591 2359 3773 2064 
Q 3956 1769 3956 1334 
Q 3956 941 3737 597 
Q 3519 253 3119 86 
Q 2719 -81 2122 -81 
Q 1253 -81 787 320 
Q 322 722 231 1491 
z
" transform="scale(0.015625)"/>
       <path id="Arial-BoldMT-7a" d="M 106 0 
L 106 684 
L 1350 2113 
Q 1656 2463 1803 2609 
Q 1650 2600 1400 2597 
L 228 2591 
L 228 3319 
L 2972 3319 
L 2972 2697 
L 1703 1234 
L 1256 750 
Q 1622 772 1709 772 
L 3069 772 
L 3069 0 
L 106 0 
z
" transform="scale(0.015625)"/>
      </defs>
      <use xlink:href="#Arial-BoldMT-49"/>
      <use xlink:href="#Arial-BoldMT-6e" x="27.783203"/>
      <use xlink:href="#Arial-BoldMT-74" x="88.867188"/>
      <use xlink:href="#Arial-BoldMT-65" x="122.167969"/>
      <use xlink:href="#Arial-BoldMT-72" x="177.783203"/>
      <use xlink:href="#Arial-BoldMT-73" x="216.699219"/>
      <use xlink:href="#Arial-BoldMT-65" x="272.314453"/>
      <use xlink:href="#Arial-BoldMT-63" x="327.929688"/>
      <use xlink:href="#Arial-BoldMT-74" x="383.544922"/>
      <use xlink:href="#Arial-BoldMT-69" x="416.845703"/>
      <use xlink:href="#Arial-BoldMT-6f" x="444.628906"/>
      <use xlink:href="#Arial-BoldMT-6e" x="505.712891"/>
      <use xlink:href="#Arial-BoldMT-20" x="566.796875"/>
      <use xlink:href="#Arial-BoldMT-53" x="594.580078"/>
      <use xlink:href="#Arial-BoldMT-69" x="661.279297"/>
      <use xlink:href="#Arial-BoldMT-7a" x="689.0625"/>
      <use xlink:href="#Arial-BoldMT-65" x="739.0625"/>
     </g>
    </g>
   </g>
   <g id="patch_16">
    <path d="M 204.325234 286.706079 
L 204.325234 12.210469 
" style="fill: none; stroke: #262626; stroke-width: 1.25; stroke-linejoin: miter; stroke-linecap: square"/>
   </g>
   <g id="patch_17">
    <path d="M 211.258751 286.706079 
L 225.125786 286.706079 
L 225.125786 124.753669 
L 211.258751 124.753669 
z
" clip-path="url(#p7f079a7a73)" style="fill: #001c7f; stroke: #001c7f; stroke-linejoin: miter"/>
   </g>
   <g id="patch_18">
    <path d="M 238.992821 286.706079 
L 252.859856 286.706079 
L 252.859856 238.211854 
L 238.992821 238.211854 
z
" clip-path="url(#p7f079a7a73)" style="fill: #001c7f; stroke: #001c7f; stroke-linejoin: miter"/>
   </g>
   <g id="patch_19">
    <path d="M 266.72689 286.706079 
L 280.593925 286.706079 
L 280.593925 278.47121 
L 266.72689 278.47121 
z
" clip-path="url(#p7f079a7a73)" style="fill: #001c7f; stroke: #001c7f; stroke-linejoin: miter"/>
   </g>
   <g id="patch_20">
    <path d="M 294.46096 286.706079 
L 308.327995 286.706079 
L 308.327995 282.131152 
L 294.46096 282.131152 
z
" clip-path="url(#p7f079a7a73)" style="fill: #001c7f; stroke: #001c7f; stroke-linejoin: miter"/>
   </g>
   <g id="patch_21">
    <path d="M 322.19503 286.706079 
L 336.062065 286.706079 
L 336.062065 283.961122 
L 322.19503 283.961122 
z
" clip-path="url(#p7f079a7a73)" style="fill: #001c7f; stroke: #001c7f; stroke-linejoin: miter"/>
   </g>
   <g id="patch_22">
    <path d="M 349.929099 286.706079 
L 363.796134 286.706079 
L 363.796134 284.876108 
L 349.929099 284.876108 
z
" clip-path="url(#p7f079a7a73)" style="fill: #001c7f; stroke: #001c7f; stroke-linejoin: miter"/>
   </g>
   <g id="patch_23">
    <path d="M 377.663169 286.706079 
L 391.530204 286.706079 
L 391.530204 284.876108 
L 377.663169 284.876108 
z
" clip-path="url(#p7f079a7a73)" style="fill: #001c7f; stroke: #001c7f; stroke-linejoin: miter"/>
   </g>
   <g id="patch_24">
    <path d="M 405.397239 286.706079 
L 419.264274 286.706079 
L 419.264274 284.876108 
L 405.397239 284.876108 
z
" clip-path="url(#p7f079a7a73)" style="fill: #001c7f; stroke: #001c7f; stroke-linejoin: miter"/>
   </g>
   <g id="patch_25">
    <path d="M 433.131308 286.706079 
L 446.998343 286.706079 
L 446.998343 285.791093 
L 433.131308 285.791093 
z
" clip-path="url(#p7f079a7a73)" style="fill: #001c7f; stroke: #001c7f; stroke-linejoin: miter"/>
   </g>
   <g id="patch_26">
    <path d="M 460.865378 286.706079 
L 474.732413 286.706079 
L 474.732413 285.791093 
L 460.865378 285.791093 
z
" clip-path="url(#p7f079a7a73)" style="fill: #001c7f; stroke: #001c7f; stroke-linejoin: miter"/>
   </g>
   <g id="patch_27">
    <path d="M 488.599448 286.706079 
L 502.466483 286.706079 
L 502.466483 285.791093 
L 488.599448 285.791093 
z
" clip-path="url(#p7f079a7a73)" style="fill: #001c7f; stroke: #001c7f; stroke-linejoin: miter"/>
   </g>
  </g>
 </g>
 <defs>
  <clipPath id="p2a184a4458">
   <rect x="7.2" y="296.171444" width="502.2" height="104.119024"/>
  </clipPath>
  <clipPath id="p27782a93ca">
   <rect x="204.325234" y="296.171444" width="305.074766" height="104.119024"/>
  </clipPath>
  <clipPath id="pa5adf90552">
   <rect x="7.2" y="296.171444" width="51.628037" height="104.119024"/>
  </clipPath>
  <clipPath id="p7f079a7a73">
   <rect x="204.325234" y="12.210469" width="305.074766" height="274.49561"/>
  </clipPath>
 </defs>
</svg>
